%TF.GenerationSoftware,KiCad,Pcbnew,10.0.0*%
%TF.CreationDate,2026-03-31T23:13:25+02:00*%
%TF.ProjectId,Simon,53696d6f-6e2e-46b6-9963-61645f706362,01*%
%TF.SameCoordinates,Original*%
%TF.FileFunction,Copper,L2,Bot*%
%TF.FilePolarity,Positive*%
%FSLAX46Y46*%
G04 Gerber Fmt 4.6, Leading zero omitted, Abs format (unit mm)*
G04 Created by KiCad (PCBNEW 10.0.0) date 2026-03-31 23:13:25*
%MOMM*%
%LPD*%
G01*
G04 APERTURE LIST*
%TA.AperFunction,ComponentPad*%
%ADD10R,1.700000X1.700000*%
%TD*%
%TA.AperFunction,ComponentPad*%
%ADD11C,1.700000*%
%TD*%
%TA.AperFunction,ComponentPad*%
%ADD12O,1.400000X2.000000*%
%TD*%
%TA.AperFunction,ComponentPad*%
%ADD13O,0.950000X1.900000*%
%TD*%
%TA.AperFunction,ComponentPad*%
%ADD14R,1.800000X1.800000*%
%TD*%
%TA.AperFunction,ComponentPad*%
%ADD15C,1.800000*%
%TD*%
%TA.AperFunction,ComponentPad*%
%ADD16R,1.560000X1.560000*%
%TD*%
%TA.AperFunction,ComponentPad*%
%ADD17C,1.560000*%
%TD*%
%TA.AperFunction,ComponentPad*%
%ADD18C,2.286000*%
%TD*%
%TA.AperFunction,ComponentPad*%
%ADD19R,1.600000X1.600000*%
%TD*%
%TA.AperFunction,ComponentPad*%
%ADD20O,1.600000X1.600000*%
%TD*%
%TA.AperFunction,ComponentPad*%
%ADD21C,1.100000*%
%TD*%
%TA.AperFunction,ComponentPad*%
%ADD22R,2.000000X2.000000*%
%TD*%
%TA.AperFunction,ComponentPad*%
%ADD23C,2.000000*%
%TD*%
%TA.AperFunction,ViaPad*%
%ADD24C,0.600000*%
%TD*%
%TA.AperFunction,Conductor*%
%ADD25C,0.200000*%
%TD*%
%TA.AperFunction,Conductor*%
%ADD26C,0.500000*%
%TD*%
G04 APERTURE END LIST*
D10*
%TO.P,J2,1,Pin_1_1*%
%TO.N,GND*%
X173100000Y-114540000D03*
D11*
%TO.P,J2,2,Pin_2_2*%
%TO.N,/Logic Section/SDA*%
X173100000Y-112000000D03*
%TO.P,J2,3,Pin_3_3*%
%TO.N,/Logic Section/SCL*%
X173100000Y-109460000D03*
%TD*%
D12*
%TO.P,SW5,1,A_1*%
%TO.N,unconnected-(SW5-A-Pad1)*%
X137300000Y-60600000D03*
%TO.P,SW5,2,B_2*%
%TO.N,RAW_BATT*%
X142000000Y-60700000D03*
%TO.P,SW5,3,C_3*%
%TO.N,+BATT*%
X146700000Y-60600000D03*
D13*
%TO.P,SW5,MP*%
%TO.N,N/C*%
X135500000Y-51500000D03*
X148500000Y-51500000D03*
%TD*%
D14*
%TO.P,D3,1,K_1*%
%TO.N,Net-(D3-K)*%
X139730000Y-112000000D03*
D15*
%TO.P,D3,2,A_2*%
%TO.N,Net-(D3-A)*%
X142270000Y-112000000D03*
%TD*%
D16*
%TO.P,RV1,1,1_1*%
%TO.N,+5V*%
X91000000Y-67240000D03*
D17*
%TO.P,RV1,2,2_2*%
%TO.N,Net-(R9-Pad2)*%
X88500000Y-62240000D03*
%TO.P,RV1,3,3_3*%
%TO.N,GND*%
X86000000Y-67240000D03*
%TD*%
D18*
%TO.P,SW2,1,1_1*%
%TO.N,Net-(R15-Pad1)*%
X121540000Y-126920000D03*
%TO.P,SW2,2,2_2*%
%TO.N,+5V*%
X115190000Y-129460000D03*
%TD*%
D14*
%TO.P,D2,1,K_1*%
%TO.N,Net-(D2-K)*%
X117730000Y-112000000D03*
D15*
%TO.P,D2,2,A_2*%
%TO.N,Net-(D2-A)*%
X120270000Y-112000000D03*
%TD*%
D18*
%TO.P,SW3,1,1_1*%
%TO.N,Net-(R16-Pad1)*%
X143540000Y-126920000D03*
%TO.P,SW3,2,2_2*%
%TO.N,+5V*%
X137190000Y-129460000D03*
%TD*%
D10*
%TO.P,J1,1,Pin_1_1*%
%TO.N,/Logic Section/SCL*%
X86900000Y-109460000D03*
D11*
%TO.P,J1,2,Pin_2_2*%
%TO.N,/Logic Section/SDA*%
X86900000Y-112000000D03*
%TO.P,J1,3,Pin_3_3*%
%TO.N,GND*%
X86900000Y-114540000D03*
%TD*%
D14*
%TO.P,D6,1,K_1*%
%TO.N,Net-(D6-K)*%
X121270000Y-59375000D03*
D15*
%TO.P,D6,2,A_2*%
%TO.N,+5V*%
X118730000Y-59375000D03*
%TD*%
D19*
%TO.P,A1,1,D1/TX_1*%
%TO.N,unconnected-(A1-D1{slash}TX-Pad1)*%
X112610000Y-89550000D03*
D20*
%TO.P,A1,2,D0/RX_2*%
%TO.N,unconnected-(A1-D0{slash}RX-Pad2)*%
X112610000Y-87010000D03*
%TO.P,A1,3,~{RESET}_3*%
%TO.N,unconnected-(A1-~{RESET}-Pad3)*%
X112610000Y-84470000D03*
%TO.P,A1,4,GND_4*%
%TO.N,GND*%
X112610000Y-81930000D03*
%TO.P,A1,5,D2_5*%
%TO.N,/Input Section/SWITCH_0*%
X112610000Y-79390000D03*
%TO.P,A1,6,D3_6*%
%TO.N,/Input Section/SWITCH_1*%
X112610000Y-76850000D03*
%TO.P,A1,7,D4_7*%
%TO.N,/Input Section/SWITCH_2*%
X112610000Y-74310000D03*
%TO.P,A1,8,D5_8*%
%TO.N,/Input Section/SWITCH_3*%
X112610000Y-71770000D03*
%TO.P,A1,9,D6_9*%
%TO.N,/Logic Section/LED_0*%
X112610000Y-69230000D03*
%TO.P,A1,10,D7_10*%
%TO.N,/Logic Section/LED_1*%
X112610000Y-66690000D03*
%TO.P,A1,11,D8_11*%
%TO.N,/Logic Section/LED_2*%
X112610000Y-64150000D03*
%TO.P,A1,12,D9_12*%
%TO.N,/Logic Section/LED_3*%
X112610000Y-61610000D03*
%TO.P,A1,13,D10_13*%
%TO.N,/Logic Section/SPEAKER*%
X112610000Y-59070000D03*
%TO.P,A1,14,D11_14*%
%TO.N,unconnected-(A1-D11-Pad14)*%
X112610000Y-56530000D03*
%TO.P,A1,15,D12_15*%
%TO.N,unconnected-(A1-D12-Pad15)*%
X112610000Y-53990000D03*
%TO.P,A1,16,D13_16*%
%TO.N,unconnected-(A1-D13-Pad16)*%
X97370000Y-53990000D03*
%TO.P,A1,17,3V3_17*%
%TO.N,unconnected-(A1-3V3-Pad17)*%
X97370000Y-56530000D03*
%TO.P,A1,18,AREF_18*%
%TO.N,GND*%
X97370000Y-59070000D03*
%TO.P,A1,19,A0_19*%
%TO.N,/Input Section/POTENTIOMETER*%
X97370000Y-61610000D03*
%TO.P,A1,20,A1_20*%
%TO.N,unconnected-(A1-A1-Pad20)*%
X97370000Y-64150000D03*
%TO.P,A1,21,A2_21*%
%TO.N,unconnected-(A1-A2-Pad21)*%
X97370000Y-66690000D03*
%TO.P,A1,22,A3_22*%
%TO.N,unconnected-(A1-A3-Pad22)*%
X97370000Y-69230000D03*
%TO.P,A1,23,A4_23*%
%TO.N,/Logic Section/SDA*%
X97370000Y-71770000D03*
%TO.P,A1,24,A5_24*%
%TO.N,/Logic Section/SCL*%
X97370000Y-74310000D03*
%TO.P,A1,25,A6_25*%
%TO.N,/Logic Section/I2C_MODE*%
X97370000Y-76850000D03*
%TO.P,A1,26,A7_26*%
%TO.N,unconnected-(A1-A7-Pad26)*%
X97370000Y-79390000D03*
%TO.P,A1,27,+5V_27*%
%TO.N,+5V*%
X97370000Y-81930000D03*
%TO.P,A1,28,~{RESET}_28*%
%TO.N,unconnected-(A1-~{RESET}-Pad28)*%
X97370000Y-84470000D03*
%TO.P,A1,29,GND_29*%
%TO.N,GND*%
X97370000Y-87010000D03*
%TO.P,A1,30,VIN_30*%
%TO.N,Net-(A1-VIN)*%
X97370000Y-89550000D03*
%TD*%
D14*
%TO.P,D1,1,K_1*%
%TO.N,Net-(D1-K)*%
X95730000Y-112000000D03*
D15*
%TO.P,D1,2,A_2*%
%TO.N,Net-(D1-A)*%
X98270000Y-112000000D03*
%TD*%
D18*
%TO.P,SW4,1,1_1*%
%TO.N,Net-(R17-Pad1)*%
X165540000Y-126920000D03*
%TO.P,SW4,2,2_2*%
%TO.N,+5V*%
X159190000Y-129460000D03*
%TD*%
D14*
%TO.P,D4,1,K_1*%
%TO.N,Net-(D4-K)*%
X161730000Y-112000000D03*
D15*
%TO.P,D4,2,A_2*%
%TO.N,Net-(D4-A)*%
X164270000Y-112000000D03*
%TD*%
D21*
%TO.P,LS1,1,1_1*%
%TO.N,Net-(LS1-Pad1)*%
X88000000Y-95460000D03*
%TO.P,LS1,2,2_2*%
%TO.N,Net-(Q5-C)*%
X88000000Y-100540000D03*
%TD*%
D18*
%TO.P,SW1,1,1_1*%
%TO.N,Net-(R14-Pad1)*%
X99540000Y-126920000D03*
%TO.P,SW1,2,2_2*%
%TO.N,+5V*%
X93190000Y-129460000D03*
%TD*%
D10*
%TO.P,J3,1,Pin_1_1*%
%TO.N,+5V*%
X89775000Y-82000000D03*
D11*
%TO.P,J3,2,Pin_2_2*%
%TO.N,/Logic Section/I2C_MODE*%
X87235000Y-82000000D03*
%TD*%
D22*
%TO.P,BT1,1,+_1*%
%TO.N,RAW_BATT*%
X174165000Y-91495000D03*
D23*
%TO.P,BT1,2,-_2*%
%TO.N,GND*%
X174165000Y-76505000D03*
%TD*%
D24*
%TO.N,GND*%
X94500000Y-73000000D03*
X160000000Y-58750000D03*
X158750000Y-55500000D03*
X157500000Y-56750000D03*
X158750000Y-60250000D03*
X158750000Y-61250000D03*
X156500000Y-56750000D03*
%TO.N,/Logic Section/SDA*%
X84750000Y-130500000D03*
%TO.N,/Logic Section/SCL*%
X82750000Y-128500000D03*
%TO.N,/Input Section/SWITCH_1*%
X125000000Y-123500000D03*
%TO.N,/Input Section/SWITCH_0*%
X103000000Y-123500000D03*
%TO.N,/Input Section/SWITCH_3*%
X169000000Y-123500000D03*
%TO.N,Net-(A1-VIN)*%
X172000000Y-66500000D03*
%TO.N,/Input Section/SWITCH_2*%
X147000000Y-123500000D03*
%TO.N,Net-(Q6-B)*%
X150000000Y-63500000D03*
X126500000Y-63500000D03*
%TD*%
%TO.N,/Logic Section/SDA*%
D25*
X176599000Y-128901000D02*
X176599000Y-113511100D01*
X86900000Y-112015000D02*
X86885000Y-112000000D01*
X88500000Y-136500000D02*
X169000000Y-136500000D01*
X84000000Y-113000000D02*
X84000000Y-130500000D01*
X175072900Y-111985000D02*
X173100000Y-111985000D01*
X169000000Y-136500000D02*
X176599000Y-128901000D01*
X84750000Y-130500000D02*
X84000000Y-130500000D01*
X85000000Y-112000000D02*
X84000000Y-113000000D01*
X84000000Y-130500000D02*
X84000000Y-132000000D01*
X176599000Y-113511100D02*
X175072900Y-111985000D01*
X86885000Y-112000000D02*
X85000000Y-112000000D01*
X84000000Y-132000000D02*
X88500000Y-136500000D01*
%TO.N,/Logic Section/SCL*%
X83500000Y-112875000D02*
X83500000Y-128500000D01*
X177000000Y-129067100D02*
X177000000Y-113345000D01*
X82750000Y-128500000D02*
X83500000Y-128500000D01*
X88333900Y-136901000D02*
X169166100Y-136901000D01*
X177000000Y-113345000D02*
X173100000Y-109445000D01*
X86900000Y-109475000D02*
X83500000Y-112875000D01*
X169166100Y-136901000D02*
X177000000Y-129067100D01*
X83500000Y-132067100D02*
X88333900Y-136901000D01*
X83500000Y-128500000D02*
X83500000Y-132067100D01*
%TO.N,+5V*%
D26*
X93190000Y-129460000D02*
X115190000Y-129460000D01*
X89775000Y-82000000D02*
X93190000Y-82000000D01*
X137190000Y-129460000D02*
X159190000Y-129460000D01*
X93260000Y-81930000D02*
X93190000Y-82000000D01*
X115190000Y-129460000D02*
X137190000Y-129460000D01*
X97370000Y-81930000D02*
X93260000Y-81930000D01*
X93190000Y-74440000D02*
X93190000Y-82000000D01*
X93190000Y-82000000D02*
X93190000Y-129460000D01*
X91000000Y-66740000D02*
X91000000Y-72250000D01*
X91000000Y-72250000D02*
X93190000Y-74440000D01*
%TO.N,/Input Section/SWITCH_1*%
D25*
X112610000Y-76850000D02*
X117350000Y-76850000D01*
X125000000Y-84500000D02*
X125000000Y-123500000D01*
X117350000Y-76850000D02*
X125000000Y-84500000D01*
%TO.N,/Input Section/SWITCH_0*%
X103000000Y-86500000D02*
X103000000Y-123500000D01*
X112610000Y-79390000D02*
X110110000Y-79390000D01*
X110110000Y-79390000D02*
X103000000Y-86500000D01*
%TO.N,/Input Section/SWITCH_3*%
X117270000Y-71770000D02*
X169000000Y-123500000D01*
X112610000Y-71770000D02*
X117270000Y-71770000D01*
%TO.N,Net-(A1-VIN)*%
D26*
X172000000Y-66500000D02*
X170901000Y-65401000D01*
X170901000Y-65401000D02*
X108599000Y-65401000D01*
X100500000Y-73500000D02*
X100500000Y-88000000D01*
X98950000Y-89550000D02*
X97370000Y-89550000D01*
X108599000Y-65401000D02*
X100500000Y-73500000D01*
X100500000Y-88000000D02*
X98950000Y-89550000D01*
%TO.N,/Input Section/SWITCH_2*%
D25*
X119242900Y-74310000D02*
X147000000Y-102067100D01*
X112610000Y-74310000D02*
X119242900Y-74310000D01*
X147000000Y-102067100D02*
X147000000Y-123500000D01*
%TO.N,Net-(Q6-B)*%
X126500000Y-63500000D02*
X150000000Y-63500000D01*
%TD*%
%TA.AperFunction,Conductor*%
%TO.N,GND*%
G36*
X134507278Y-50509742D02*
G01*
X134539075Y-50517858D01*
X134540639Y-50519538D01*
X134542841Y-50520185D01*
X134564314Y-50544966D01*
X134586686Y-50568995D01*
X134587093Y-50571255D01*
X134588596Y-50572989D01*
X134593263Y-50605449D01*
X134599092Y-50637754D01*
X134598342Y-50640772D01*
X134598540Y-50642147D01*
X134592846Y-50662899D01*
X134590967Y-50670467D01*
X134590657Y-50671242D01*
X134561988Y-50740457D01*
X134560953Y-50745658D01*
X134560950Y-50745667D01*
X134524500Y-50928917D01*
X134524500Y-52071082D01*
X134561986Y-52259535D01*
X134561989Y-52259547D01*
X134635520Y-52437068D01*
X134635521Y-52437070D01*
X134742279Y-52596844D01*
X134742282Y-52596848D01*
X134878151Y-52732717D01*
X134878155Y-52732720D01*
X135037927Y-52839477D01*
X135037928Y-52839477D01*
X135037929Y-52839478D01*
X135037931Y-52839479D01*
X135130237Y-52877713D01*
X135215457Y-52913012D01*
X135403917Y-52950499D01*
X135403920Y-52950500D01*
X135403922Y-52950500D01*
X135596080Y-52950500D01*
X135596081Y-52950499D01*
X135784543Y-52913012D01*
X135962073Y-52839477D01*
X136121845Y-52732720D01*
X136257720Y-52596845D01*
X136364477Y-52437073D01*
X136438012Y-52259543D01*
X136475500Y-52071078D01*
X136475500Y-50928922D01*
X136475500Y-50928919D01*
X136475499Y-50928917D01*
X136438013Y-50740464D01*
X136438012Y-50740457D01*
X136438010Y-50740452D01*
X136409637Y-50671952D01*
X136402168Y-50602483D01*
X136433444Y-50540004D01*
X136493533Y-50504352D01*
X136524198Y-50500500D01*
X147475802Y-50500500D01*
X147542841Y-50520185D01*
X147588596Y-50572989D01*
X147598540Y-50642147D01*
X147590363Y-50671952D01*
X147561989Y-50740452D01*
X147561986Y-50740464D01*
X147524500Y-50928917D01*
X147524500Y-52071082D01*
X147561986Y-52259535D01*
X147561989Y-52259547D01*
X147635520Y-52437068D01*
X147635521Y-52437070D01*
X147742279Y-52596844D01*
X147742282Y-52596848D01*
X147878151Y-52732717D01*
X147878155Y-52732720D01*
X148037927Y-52839477D01*
X148037928Y-52839477D01*
X148037929Y-52839478D01*
X148037931Y-52839479D01*
X148130237Y-52877713D01*
X148215457Y-52913012D01*
X148403917Y-52950499D01*
X148403920Y-52950500D01*
X148403922Y-52950500D01*
X148596080Y-52950500D01*
X148596081Y-52950499D01*
X148784543Y-52913012D01*
X148962073Y-52839477D01*
X149121845Y-52732720D01*
X149257720Y-52596845D01*
X149364477Y-52437073D01*
X149438012Y-52259543D01*
X149475500Y-52071078D01*
X149475500Y-50928922D01*
X149475500Y-50928919D01*
X149475499Y-50928917D01*
X149438013Y-50740464D01*
X149438012Y-50740457D01*
X149438010Y-50740452D01*
X149409637Y-50671952D01*
X149402168Y-50602483D01*
X149433444Y-50540004D01*
X149493533Y-50504352D01*
X149524198Y-50500500D01*
X174934108Y-50500500D01*
X174997294Y-50500500D01*
X175002702Y-50500617D01*
X175386773Y-50517386D01*
X175397505Y-50518326D01*
X175775963Y-50568150D01*
X175786601Y-50570025D01*
X176159279Y-50652647D01*
X176169720Y-50655445D01*
X176533765Y-50770227D01*
X176543911Y-50773920D01*
X176896578Y-50920000D01*
X176906369Y-50924566D01*
X177244942Y-51100816D01*
X177254310Y-51106224D01*
X177576244Y-51311318D01*
X177585105Y-51317523D01*
X177887930Y-51549889D01*
X177896217Y-51556843D01*
X178177635Y-51814715D01*
X178185284Y-51822364D01*
X178443156Y-52103782D01*
X178450110Y-52112069D01*
X178682476Y-52414894D01*
X178688681Y-52423755D01*
X178893775Y-52745689D01*
X178899183Y-52755057D01*
X179075430Y-53093623D01*
X179080002Y-53103427D01*
X179226075Y-53456078D01*
X179229775Y-53466244D01*
X179344553Y-53830276D01*
X179347353Y-53840724D01*
X179429972Y-54213390D01*
X179431850Y-54224044D01*
X179481671Y-54602472D01*
X179482614Y-54613248D01*
X179499382Y-54997297D01*
X179499500Y-55002706D01*
X179499500Y-144997293D01*
X179499382Y-145002702D01*
X179482614Y-145386751D01*
X179481671Y-145397527D01*
X179431850Y-145775955D01*
X179429972Y-145786609D01*
X179347353Y-146159275D01*
X179344553Y-146169723D01*
X179229775Y-146533755D01*
X179226075Y-146543921D01*
X179080002Y-146896572D01*
X179075430Y-146906376D01*
X178899183Y-147244942D01*
X178893775Y-147254310D01*
X178688681Y-147576244D01*
X178682476Y-147585105D01*
X178450110Y-147887930D01*
X178443156Y-147896217D01*
X178185284Y-148177635D01*
X178177635Y-148185284D01*
X177896217Y-148443156D01*
X177887930Y-148450110D01*
X177585105Y-148682476D01*
X177576244Y-148688681D01*
X177254310Y-148893775D01*
X177244942Y-148899183D01*
X176906376Y-149075430D01*
X176896572Y-149080002D01*
X176543921Y-149226075D01*
X176533755Y-149229775D01*
X176169723Y-149344553D01*
X176159275Y-149347353D01*
X175786609Y-149429972D01*
X175775955Y-149431850D01*
X175397527Y-149481671D01*
X175386751Y-149482614D01*
X175002703Y-149499382D01*
X174997294Y-149499500D01*
X85002706Y-149499500D01*
X84997297Y-149499382D01*
X84613248Y-149482614D01*
X84602474Y-149481671D01*
X84540007Y-149473447D01*
X84224044Y-149431850D01*
X84213390Y-149429972D01*
X83840724Y-149347353D01*
X83830276Y-149344553D01*
X83466244Y-149229775D01*
X83456078Y-149226075D01*
X83103427Y-149080002D01*
X83093623Y-149075430D01*
X82755057Y-148899183D01*
X82745689Y-148893775D01*
X82423755Y-148688681D01*
X82414894Y-148682476D01*
X82112069Y-148450110D01*
X82103782Y-148443156D01*
X81822364Y-148185284D01*
X81814715Y-148177635D01*
X81556843Y-147896217D01*
X81549889Y-147887930D01*
X81317523Y-147585105D01*
X81311318Y-147576244D01*
X81106224Y-147254310D01*
X81100816Y-147244942D01*
X80924569Y-146906376D01*
X80919997Y-146896572D01*
X80773920Y-146543911D01*
X80770224Y-146533755D01*
X80726243Y-146394265D01*
X80655445Y-146169720D01*
X80652646Y-146159275D01*
X80570027Y-145786609D01*
X80568149Y-145775955D01*
X80555642Y-145680953D01*
X80518326Y-145397505D01*
X80517386Y-145386773D01*
X80500618Y-145002702D01*
X80500500Y-144997293D01*
X80500500Y-144878711D01*
X83149500Y-144878711D01*
X83149500Y-145121288D01*
X83181161Y-145361785D01*
X83243947Y-145596104D01*
X83322857Y-145786609D01*
X83336776Y-145820212D01*
X83458064Y-146030289D01*
X83458066Y-146030292D01*
X83458067Y-146030293D01*
X83605733Y-146222736D01*
X83605739Y-146222743D01*
X83777256Y-146394260D01*
X83777262Y-146394265D01*
X83969711Y-146541936D01*
X84179788Y-146663224D01*
X84403900Y-146756054D01*
X84638211Y-146818838D01*
X84818586Y-146842584D01*
X84878711Y-146850500D01*
X84878712Y-146850500D01*
X85121289Y-146850500D01*
X85169388Y-146844167D01*
X85361789Y-146818838D01*
X85596100Y-146756054D01*
X85820212Y-146663224D01*
X86030289Y-146541936D01*
X86222738Y-146394265D01*
X86394265Y-146222738D01*
X86541936Y-146030289D01*
X86663224Y-145820212D01*
X86756054Y-145596100D01*
X86818838Y-145361789D01*
X86850500Y-145121288D01*
X86850500Y-144878712D01*
X86850500Y-144878711D01*
X128149500Y-144878711D01*
X128149500Y-145121288D01*
X128181161Y-145361785D01*
X128243947Y-145596104D01*
X128322857Y-145786609D01*
X128336776Y-145820212D01*
X128458064Y-146030289D01*
X128458066Y-146030292D01*
X128458067Y-146030293D01*
X128605733Y-146222736D01*
X128605739Y-146222743D01*
X128777256Y-146394260D01*
X128777262Y-146394265D01*
X128969711Y-146541936D01*
X129179788Y-146663224D01*
X129403900Y-146756054D01*
X129638211Y-146818838D01*
X129818586Y-146842584D01*
X129878711Y-146850500D01*
X129878712Y-146850500D01*
X130121289Y-146850500D01*
X130169388Y-146844167D01*
X130361789Y-146818838D01*
X130596100Y-146756054D01*
X130820212Y-146663224D01*
X131030289Y-146541936D01*
X131222738Y-146394265D01*
X131394265Y-146222738D01*
X131541936Y-146030289D01*
X131663224Y-145820212D01*
X131756054Y-145596100D01*
X131818838Y-145361789D01*
X131850500Y-145121288D01*
X131850500Y-144878712D01*
X131850500Y-144878711D01*
X173149500Y-144878711D01*
X173149500Y-145121288D01*
X173181161Y-145361785D01*
X173243947Y-145596104D01*
X173322857Y-145786609D01*
X173336776Y-145820212D01*
X173458064Y-146030289D01*
X173458066Y-146030292D01*
X173458067Y-146030293D01*
X173605733Y-146222736D01*
X173605739Y-146222743D01*
X173777256Y-146394260D01*
X173777262Y-146394265D01*
X173969711Y-146541936D01*
X174179788Y-146663224D01*
X174403900Y-146756054D01*
X174638211Y-146818838D01*
X174818586Y-146842584D01*
X174878711Y-146850500D01*
X174878712Y-146850500D01*
X175121289Y-146850500D01*
X175169388Y-146844167D01*
X175361789Y-146818838D01*
X175596100Y-146756054D01*
X175820212Y-146663224D01*
X176030289Y-146541936D01*
X176222738Y-146394265D01*
X176394265Y-146222738D01*
X176541936Y-146030289D01*
X176663224Y-145820212D01*
X176756054Y-145596100D01*
X176818838Y-145361789D01*
X176850500Y-145121288D01*
X176850500Y-144878712D01*
X176818838Y-144638211D01*
X176756054Y-144403900D01*
X176663224Y-144179788D01*
X176541936Y-143969711D01*
X176394265Y-143777262D01*
X176394260Y-143777256D01*
X176222743Y-143605739D01*
X176222736Y-143605733D01*
X176030293Y-143458067D01*
X176030292Y-143458066D01*
X176030289Y-143458064D01*
X175820212Y-143336776D01*
X175820205Y-143336773D01*
X175596104Y-143243947D01*
X175361785Y-143181161D01*
X175121289Y-143149500D01*
X175121288Y-143149500D01*
X174878712Y-143149500D01*
X174878711Y-143149500D01*
X174638214Y-143181161D01*
X174403895Y-143243947D01*
X174179794Y-143336773D01*
X174179785Y-143336777D01*
X173969706Y-143458067D01*
X173777263Y-143605733D01*
X173777256Y-143605739D01*
X173605739Y-143777256D01*
X173605733Y-143777263D01*
X173458067Y-143969706D01*
X173336777Y-144179785D01*
X173336773Y-144179794D01*
X173243947Y-144403895D01*
X173181161Y-144638214D01*
X173149500Y-144878711D01*
X131850500Y-144878711D01*
X131818838Y-144638211D01*
X131756054Y-144403900D01*
X131663224Y-144179788D01*
X131541936Y-143969711D01*
X131394265Y-143777262D01*
X131394260Y-143777256D01*
X131222743Y-143605739D01*
X131222736Y-143605733D01*
X131030293Y-143458067D01*
X131030292Y-143458066D01*
X131030289Y-143458064D01*
X130820212Y-143336776D01*
X130820205Y-143336773D01*
X130596104Y-143243947D01*
X130361785Y-143181161D01*
X130121289Y-143149500D01*
X130121288Y-143149500D01*
X129878712Y-143149500D01*
X129878711Y-143149500D01*
X129638214Y-143181161D01*
X129403895Y-143243947D01*
X129179794Y-143336773D01*
X129179785Y-143336777D01*
X128969706Y-143458067D01*
X128777263Y-143605733D01*
X128777256Y-143605739D01*
X128605739Y-143777256D01*
X128605733Y-143777263D01*
X128458067Y-143969706D01*
X128336777Y-144179785D01*
X128336773Y-144179794D01*
X128243947Y-144403895D01*
X128181161Y-144638214D01*
X128149500Y-144878711D01*
X86850500Y-144878711D01*
X86818838Y-144638211D01*
X86756054Y-144403900D01*
X86663224Y-144179788D01*
X86541936Y-143969711D01*
X86394265Y-143777262D01*
X86394260Y-143777256D01*
X86222743Y-143605739D01*
X86222736Y-143605733D01*
X86030293Y-143458067D01*
X86030292Y-143458066D01*
X86030289Y-143458064D01*
X85820212Y-143336776D01*
X85820205Y-143336773D01*
X85596104Y-143243947D01*
X85361785Y-143181161D01*
X85121289Y-143149500D01*
X85121288Y-143149500D01*
X84878712Y-143149500D01*
X84878711Y-143149500D01*
X84638214Y-143181161D01*
X84403895Y-143243947D01*
X84179794Y-143336773D01*
X84179785Y-143336777D01*
X83969706Y-143458067D01*
X83777263Y-143605733D01*
X83777256Y-143605739D01*
X83605739Y-143777256D01*
X83605733Y-143777263D01*
X83458067Y-143969706D01*
X83336777Y-144179785D01*
X83336773Y-144179794D01*
X83243947Y-144403895D01*
X83181161Y-144638214D01*
X83149500Y-144878711D01*
X80500500Y-144878711D01*
X80500500Y-128421153D01*
X81949500Y-128421153D01*
X81949500Y-128578846D01*
X81980261Y-128733489D01*
X81980264Y-128733501D01*
X82040602Y-128879172D01*
X82040609Y-128879185D01*
X82128210Y-129010288D01*
X82128213Y-129010292D01*
X82239707Y-129121786D01*
X82239711Y-129121789D01*
X82370814Y-129209390D01*
X82370827Y-129209397D01*
X82516498Y-129269735D01*
X82516503Y-129269737D01*
X82663034Y-129298884D01*
X82671153Y-129300499D01*
X82671156Y-129300500D01*
X82775500Y-129300500D01*
X82842539Y-129320185D01*
X82888294Y-129372989D01*
X82899500Y-129424500D01*
X82899500Y-131980430D01*
X82899499Y-131980448D01*
X82899499Y-132146154D01*
X82899498Y-132146154D01*
X82940423Y-132298885D01*
X82969358Y-132349000D01*
X82969359Y-132349004D01*
X82969360Y-132349004D01*
X83011958Y-132422788D01*
X83019479Y-132435814D01*
X83019481Y-132435817D01*
X83138349Y-132554685D01*
X83138355Y-132554690D01*
X87849039Y-137265374D01*
X87849049Y-137265385D01*
X87853379Y-137269715D01*
X87853380Y-137269716D01*
X87965184Y-137381520D01*
X88051995Y-137431639D01*
X88051997Y-137431641D01*
X88090051Y-137453611D01*
X88102115Y-137460577D01*
X88254843Y-137501501D01*
X88254846Y-137501501D01*
X88420553Y-137501501D01*
X88420569Y-137501500D01*
X169079431Y-137501500D01*
X169079447Y-137501501D01*
X169087043Y-137501501D01*
X169245154Y-137501501D01*
X169245157Y-137501501D01*
X169397885Y-137460577D01*
X169448004Y-137431639D01*
X169534816Y-137381520D01*
X169646620Y-137269716D01*
X169646620Y-137269714D01*
X169656828Y-137259507D01*
X169656829Y-137259504D01*
X177480520Y-129435816D01*
X177559577Y-129298884D01*
X177600501Y-129146157D01*
X177600501Y-128988042D01*
X177600501Y-128980447D01*
X177600500Y-128980429D01*
X177600500Y-113434059D01*
X177600501Y-113434046D01*
X177600501Y-113265945D01*
X177600501Y-113265943D01*
X177559577Y-113113215D01*
X177530639Y-113063095D01*
X177480520Y-112976284D01*
X177368716Y-112864480D01*
X177368715Y-112864479D01*
X177364385Y-112860149D01*
X177364374Y-112860139D01*
X174437436Y-109933201D01*
X174403951Y-109871878D01*
X174407185Y-109807204D01*
X174417246Y-109776243D01*
X174450500Y-109566287D01*
X174450500Y-109353713D01*
X174417246Y-109143757D01*
X174351557Y-108941588D01*
X174255051Y-108752184D01*
X174255049Y-108752181D01*
X174255048Y-108752179D01*
X174130109Y-108580213D01*
X173979786Y-108429890D01*
X173807820Y-108304951D01*
X173618414Y-108208444D01*
X173618413Y-108208443D01*
X173618412Y-108208443D01*
X173416243Y-108142754D01*
X173416241Y-108142753D01*
X173416240Y-108142753D01*
X173254957Y-108117208D01*
X173206287Y-108109500D01*
X172993713Y-108109500D01*
X172945042Y-108117208D01*
X172783760Y-108142753D01*
X172581585Y-108208444D01*
X172392179Y-108304951D01*
X172220213Y-108429890D01*
X172069890Y-108580213D01*
X171944951Y-108752179D01*
X171848444Y-108941585D01*
X171782753Y-109143760D01*
X171777047Y-109179788D01*
X171749500Y-109353713D01*
X171749500Y-109566287D01*
X171782754Y-109776243D01*
X171831056Y-109924902D01*
X171848444Y-109978414D01*
X171944951Y-110167820D01*
X172069890Y-110339786D01*
X172220213Y-110490109D01*
X172392182Y-110615050D01*
X172400946Y-110619516D01*
X172451742Y-110667491D01*
X172468536Y-110735312D01*
X172445998Y-110801447D01*
X172400946Y-110840484D01*
X172392182Y-110844949D01*
X172220213Y-110969890D01*
X172069890Y-111120213D01*
X171944951Y-111292179D01*
X171848444Y-111481585D01*
X171782753Y-111683760D01*
X171771303Y-111756054D01*
X171749500Y-111893713D01*
X171749500Y-112106287D01*
X171782754Y-112316243D01*
X171844502Y-112506284D01*
X171848444Y-112518414D01*
X171944951Y-112707820D01*
X172069890Y-112879786D01*
X172183818Y-112993714D01*
X172217303Y-113055037D01*
X172212319Y-113124729D01*
X172170447Y-113180662D01*
X172139471Y-113197577D01*
X172007912Y-113246646D01*
X172007906Y-113246649D01*
X171892812Y-113332809D01*
X171892809Y-113332812D01*
X171806649Y-113447906D01*
X171806645Y-113447913D01*
X171756403Y-113582620D01*
X171756401Y-113582627D01*
X171750000Y-113642155D01*
X171750000Y-114290000D01*
X172666988Y-114290000D01*
X172634075Y-114347007D01*
X172600000Y-114474174D01*
X172600000Y-114605826D01*
X172634075Y-114732993D01*
X172666988Y-114790000D01*
X171750000Y-114790000D01*
X171750000Y-115437844D01*
X171756401Y-115497372D01*
X171756403Y-115497379D01*
X171806645Y-115632086D01*
X171806649Y-115632093D01*
X171892809Y-115747187D01*
X171892812Y-115747190D01*
X172007906Y-115833350D01*
X172007913Y-115833354D01*
X172142620Y-115883596D01*
X172142627Y-115883598D01*
X172202155Y-115889999D01*
X172202172Y-115890000D01*
X172850000Y-115890000D01*
X172850000Y-114973012D01*
X172907007Y-115005925D01*
X173034174Y-115040000D01*
X173165826Y-115040000D01*
X173292993Y-115005925D01*
X173350000Y-114973012D01*
X173350000Y-115890000D01*
X173997828Y-115890000D01*
X173997844Y-115889999D01*
X174057372Y-115883598D01*
X174057379Y-115883596D01*
X174192086Y-115833354D01*
X174192093Y-115833350D01*
X174307187Y-115747190D01*
X174307190Y-115747187D01*
X174393350Y-115632093D01*
X174393354Y-115632086D01*
X174443596Y-115497379D01*
X174443598Y-115497372D01*
X174449999Y-115437844D01*
X174450000Y-115437827D01*
X174450000Y-114790000D01*
X173533012Y-114790000D01*
X173565925Y-114732993D01*
X173600000Y-114605826D01*
X173600000Y-114474174D01*
X173565925Y-114347007D01*
X173533012Y-114290000D01*
X174450000Y-114290000D01*
X174450000Y-113642172D01*
X174449999Y-113642155D01*
X174443598Y-113582627D01*
X174443596Y-113582620D01*
X174393354Y-113447913D01*
X174393350Y-113447906D01*
X174307190Y-113332812D01*
X174307187Y-113332809D01*
X174192093Y-113246649D01*
X174192088Y-113246646D01*
X174060528Y-113197577D01*
X174004595Y-113155705D01*
X173980178Y-113090241D01*
X173995030Y-113021968D01*
X174016175Y-112993720D01*
X174130104Y-112879792D01*
X174255051Y-112707816D01*
X174255437Y-112707058D01*
X174282878Y-112653205D01*
X174330852Y-112602409D01*
X174393362Y-112585500D01*
X174772803Y-112585500D01*
X174839842Y-112605185D01*
X174860484Y-112621819D01*
X175962181Y-113723516D01*
X175995666Y-113784839D01*
X175998500Y-113811197D01*
X175998500Y-128600903D01*
X175978815Y-128667942D01*
X175962181Y-128688584D01*
X168787584Y-135863181D01*
X168726261Y-135896666D01*
X168699903Y-135899500D01*
X88800097Y-135899500D01*
X88733058Y-135879815D01*
X88712416Y-135863181D01*
X84636819Y-131787584D01*
X84603334Y-131726261D01*
X84600500Y-131699903D01*
X84600500Y-131424500D01*
X84620185Y-131357461D01*
X84672989Y-131311706D01*
X84724500Y-131300500D01*
X84828844Y-131300500D01*
X84828845Y-131300499D01*
X84983497Y-131269737D01*
X85129179Y-131209394D01*
X85260289Y-131121789D01*
X85371789Y-131010289D01*
X85459394Y-130879179D01*
X85519737Y-130733497D01*
X85550500Y-130578842D01*
X85550500Y-130421158D01*
X85550500Y-130421155D01*
X85550499Y-130421153D01*
X85549415Y-130415703D01*
X85519737Y-130266503D01*
X85496540Y-130210500D01*
X85459397Y-130120827D01*
X85459390Y-130120814D01*
X85371789Y-129989711D01*
X85371786Y-129989707D01*
X85260292Y-129878213D01*
X85260288Y-129878210D01*
X85129185Y-129790609D01*
X85129172Y-129790602D01*
X84983501Y-129730264D01*
X84983489Y-129730261D01*
X84828845Y-129699500D01*
X84828842Y-129699500D01*
X84724500Y-129699500D01*
X84657461Y-129679815D01*
X84611706Y-129627011D01*
X84600500Y-129575500D01*
X84600500Y-113300097D01*
X84620185Y-113233058D01*
X84636819Y-113212416D01*
X85212417Y-112636819D01*
X85273740Y-112603334D01*
X85300098Y-112600500D01*
X85614281Y-112600500D01*
X85681320Y-112620185D01*
X85724765Y-112668205D01*
X85744947Y-112707814D01*
X85744948Y-112707815D01*
X85869890Y-112879786D01*
X86020213Y-113030109D01*
X86192179Y-113155048D01*
X86192181Y-113155049D01*
X86192184Y-113155051D01*
X86201493Y-113159794D01*
X86252290Y-113207766D01*
X86269087Y-113275587D01*
X86246552Y-113341722D01*
X86201505Y-113380760D01*
X86192446Y-113385376D01*
X86192440Y-113385380D01*
X86138282Y-113424727D01*
X86138282Y-113424728D01*
X86770591Y-114057037D01*
X86707007Y-114074075D01*
X86592993Y-114139901D01*
X86499901Y-114232993D01*
X86434075Y-114347007D01*
X86417037Y-114410591D01*
X85784728Y-113778282D01*
X85784727Y-113778282D01*
X85745380Y-113832439D01*
X85648904Y-114021782D01*
X85583242Y-114223869D01*
X85583242Y-114223872D01*
X85550000Y-114433753D01*
X85550000Y-114646246D01*
X85583242Y-114856127D01*
X85583242Y-114856130D01*
X85648904Y-115058217D01*
X85745375Y-115247550D01*
X85784728Y-115301716D01*
X86417037Y-114669408D01*
X86434075Y-114732993D01*
X86499901Y-114847007D01*
X86592993Y-114940099D01*
X86707007Y-115005925D01*
X86770590Y-115022962D01*
X86138282Y-115655269D01*
X86138282Y-115655270D01*
X86192449Y-115694624D01*
X86381782Y-115791095D01*
X86583870Y-115856757D01*
X86793754Y-115890000D01*
X87006246Y-115890000D01*
X87216127Y-115856757D01*
X87216130Y-115856757D01*
X87418217Y-115791095D01*
X87607554Y-115694622D01*
X87661716Y-115655270D01*
X87661717Y-115655270D01*
X87029408Y-115022962D01*
X87092993Y-115005925D01*
X87207007Y-114940099D01*
X87300099Y-114847007D01*
X87365925Y-114732993D01*
X87382962Y-114669409D01*
X88015270Y-115301717D01*
X88015270Y-115301716D01*
X88054622Y-115247554D01*
X88151095Y-115058217D01*
X88216757Y-114856130D01*
X88216757Y-114856127D01*
X88250000Y-114646246D01*
X88250000Y-114433753D01*
X88216757Y-114223872D01*
X88216757Y-114223869D01*
X88151095Y-114021782D01*
X88054624Y-113832449D01*
X88015270Y-113778282D01*
X88015269Y-113778282D01*
X87382962Y-114410590D01*
X87365925Y-114347007D01*
X87300099Y-114232993D01*
X87207007Y-114139901D01*
X87092993Y-114074075D01*
X87029409Y-114057037D01*
X87661716Y-113424728D01*
X87607547Y-113385373D01*
X87607547Y-113385372D01*
X87598500Y-113380763D01*
X87547706Y-113332788D01*
X87530912Y-113264966D01*
X87553451Y-113198832D01*
X87598508Y-113159793D01*
X87607816Y-113155051D01*
X87697020Y-113090241D01*
X87779786Y-113030109D01*
X87779788Y-113030106D01*
X87779792Y-113030104D01*
X87930104Y-112879792D01*
X87930106Y-112879788D01*
X87930109Y-112879786D01*
X88055048Y-112707820D01*
X88055047Y-112707820D01*
X88055051Y-112707816D01*
X88151557Y-112518412D01*
X88217246Y-112316243D01*
X88250500Y-112106287D01*
X88250500Y-111893713D01*
X88217246Y-111683757D01*
X88151557Y-111481588D01*
X88055051Y-111292184D01*
X88055049Y-111292181D01*
X88055048Y-111292179D01*
X87930109Y-111120213D01*
X87816569Y-111006673D01*
X87783084Y-110945350D01*
X87788068Y-110875658D01*
X87829940Y-110819725D01*
X87860915Y-110802810D01*
X87992331Y-110753796D01*
X88107546Y-110667546D01*
X88193796Y-110552331D01*
X88244091Y-110417483D01*
X88250500Y-110357873D01*
X88250499Y-108562128D01*
X88244091Y-108502517D01*
X88227512Y-108458067D01*
X88193797Y-108367671D01*
X88193793Y-108367664D01*
X88107547Y-108252455D01*
X88107544Y-108252452D01*
X87992335Y-108166206D01*
X87992328Y-108166202D01*
X87857482Y-108115908D01*
X87857483Y-108115908D01*
X87797883Y-108109501D01*
X87797881Y-108109500D01*
X87797873Y-108109500D01*
X87797864Y-108109500D01*
X86002129Y-108109500D01*
X86002123Y-108109501D01*
X85942516Y-108115908D01*
X85807671Y-108166202D01*
X85807664Y-108166206D01*
X85692455Y-108252452D01*
X85692452Y-108252455D01*
X85606206Y-108367664D01*
X85606202Y-108367671D01*
X85555908Y-108502517D01*
X85549501Y-108562116D01*
X85549501Y-108562123D01*
X85549500Y-108562135D01*
X85549500Y-109924902D01*
X85529815Y-109991941D01*
X85513181Y-110012583D01*
X83019481Y-112506282D01*
X83019480Y-112506284D01*
X82973745Y-112585500D01*
X82940423Y-112643215D01*
X82899499Y-112795943D01*
X82899499Y-112795945D01*
X82899499Y-112964046D01*
X82899500Y-112964059D01*
X82899500Y-127575500D01*
X82879815Y-127642539D01*
X82827011Y-127688294D01*
X82775500Y-127699500D01*
X82671155Y-127699500D01*
X82516510Y-127730261D01*
X82516498Y-127730264D01*
X82370827Y-127790602D01*
X82370814Y-127790609D01*
X82239711Y-127878210D01*
X82239707Y-127878213D01*
X82128213Y-127989707D01*
X82128210Y-127989711D01*
X82040609Y-128120814D01*
X82040602Y-128120827D01*
X81980264Y-128266498D01*
X81980261Y-128266510D01*
X81949500Y-128421153D01*
X80500500Y-128421153D01*
X80500500Y-100436530D01*
X86949500Y-100436530D01*
X86949500Y-100643469D01*
X86989868Y-100846412D01*
X86989870Y-100846420D01*
X87069058Y-101037596D01*
X87184024Y-101209657D01*
X87330342Y-101355975D01*
X87330345Y-101355977D01*
X87502402Y-101470941D01*
X87693580Y-101550130D01*
X87896530Y-101590499D01*
X87896534Y-101590500D01*
X87896535Y-101590500D01*
X88103466Y-101590500D01*
X88103467Y-101590499D01*
X88306420Y-101550130D01*
X88497598Y-101470941D01*
X88669655Y-101355977D01*
X88815977Y-101209655D01*
X88930941Y-101037598D01*
X89010130Y-100846420D01*
X89050500Y-100643465D01*
X89050500Y-100436535D01*
X89010130Y-100233580D01*
X88930941Y-100042402D01*
X88815977Y-99870345D01*
X88815975Y-99870342D01*
X88669657Y-99724024D01*
X88583626Y-99666541D01*
X88497598Y-99609059D01*
X88306420Y-99529870D01*
X88306412Y-99529868D01*
X88103469Y-99489500D01*
X88103465Y-99489500D01*
X87896535Y-99489500D01*
X87896530Y-99489500D01*
X87693587Y-99529868D01*
X87693579Y-99529870D01*
X87502403Y-99609058D01*
X87330342Y-99724024D01*
X87184024Y-99870342D01*
X87069058Y-100042403D01*
X86989870Y-100233579D01*
X86989868Y-100233587D01*
X86949500Y-100436530D01*
X80500500Y-100436530D01*
X80500500Y-95356530D01*
X86949500Y-95356530D01*
X86949500Y-95563469D01*
X86989868Y-95766412D01*
X86989870Y-95766420D01*
X87069058Y-95957596D01*
X87184024Y-96129657D01*
X87330342Y-96275975D01*
X87330345Y-96275977D01*
X87502402Y-96390941D01*
X87693580Y-96470130D01*
X87896530Y-96510499D01*
X87896534Y-96510500D01*
X87896535Y-96510500D01*
X88103466Y-96510500D01*
X88103467Y-96510499D01*
X88306420Y-96470130D01*
X88497598Y-96390941D01*
X88669655Y-96275977D01*
X88815977Y-96129655D01*
X88930941Y-95957598D01*
X89010130Y-95766420D01*
X89050500Y-95563465D01*
X89050500Y-95356535D01*
X89010130Y-95153580D01*
X88930941Y-94962402D01*
X88815977Y-94790345D01*
X88815975Y-94790342D01*
X88669657Y-94644024D01*
X88583626Y-94586541D01*
X88497598Y-94529059D01*
X88306420Y-94449870D01*
X88306412Y-94449868D01*
X88103469Y-94409500D01*
X88103465Y-94409500D01*
X87896535Y-94409500D01*
X87896530Y-94409500D01*
X87693587Y-94449868D01*
X87693579Y-94449870D01*
X87502403Y-94529058D01*
X87330342Y-94644024D01*
X87184024Y-94790342D01*
X87069058Y-94962403D01*
X86989870Y-95153579D01*
X86989868Y-95153587D01*
X86949500Y-95356530D01*
X80500500Y-95356530D01*
X80500500Y-81893713D01*
X85884500Y-81893713D01*
X85884500Y-82106287D01*
X85917754Y-82316243D01*
X85954462Y-82429219D01*
X85983444Y-82518414D01*
X86079951Y-82707820D01*
X86204890Y-82879786D01*
X86355213Y-83030109D01*
X86527179Y-83155048D01*
X86527181Y-83155049D01*
X86527184Y-83155051D01*
X86716588Y-83251557D01*
X86918757Y-83317246D01*
X87128713Y-83350500D01*
X87128714Y-83350500D01*
X87341286Y-83350500D01*
X87341287Y-83350500D01*
X87551243Y-83317246D01*
X87753412Y-83251557D01*
X87942816Y-83155051D01*
X88033406Y-83089234D01*
X88114784Y-83030110D01*
X88114784Y-83030109D01*
X88114792Y-83030104D01*
X88228329Y-82916566D01*
X88289648Y-82883084D01*
X88359340Y-82888068D01*
X88415274Y-82929939D01*
X88432189Y-82960917D01*
X88481202Y-83092328D01*
X88481206Y-83092335D01*
X88567452Y-83207544D01*
X88567455Y-83207547D01*
X88682664Y-83293793D01*
X88682671Y-83293797D01*
X88817517Y-83344091D01*
X88817516Y-83344091D01*
X88824444Y-83344835D01*
X88877127Y-83350500D01*
X90672872Y-83350499D01*
X90732483Y-83344091D01*
X90867331Y-83293796D01*
X90982546Y-83207546D01*
X91068796Y-83092331D01*
X91119091Y-82957483D01*
X91125500Y-82897873D01*
X91125500Y-82874500D01*
X91145185Y-82807461D01*
X91197989Y-82761706D01*
X91249500Y-82750500D01*
X92315500Y-82750500D01*
X92382539Y-82770185D01*
X92428294Y-82822989D01*
X92439500Y-82874500D01*
X92439500Y-127921868D01*
X92419815Y-127988907D01*
X92371796Y-128032352D01*
X92328619Y-128054351D01*
X92119329Y-128206410D01*
X91936410Y-128389329D01*
X91784353Y-128598617D01*
X91666910Y-128829112D01*
X91586967Y-129075149D01*
X91546500Y-129330648D01*
X91546500Y-129589351D01*
X91586967Y-129844850D01*
X91586968Y-129844854D01*
X91666909Y-130090885D01*
X91784353Y-130321382D01*
X91936408Y-130530668D01*
X91936410Y-130530670D01*
X92092659Y-130686919D01*
X92126144Y-130748242D01*
X92121160Y-130817934D01*
X92079288Y-130873867D01*
X92013824Y-130898284D01*
X92004978Y-130898600D01*
X91833313Y-130898600D01*
X91662086Y-130925720D01*
X91497211Y-130979290D01*
X91497208Y-130979291D01*
X91342739Y-131057998D01*
X91290212Y-131096162D01*
X91202486Y-131159899D01*
X91202484Y-131159901D01*
X91202483Y-131159901D01*
X91079901Y-131282483D01*
X91079901Y-131282484D01*
X91079899Y-131282486D01*
X91036136Y-131342719D01*
X90977998Y-131422739D01*
X90899291Y-131577208D01*
X90899290Y-131577211D01*
X90845720Y-131742086D01*
X90818600Y-131913312D01*
X90818600Y-132086687D01*
X90845720Y-132257913D01*
X90899290Y-132422788D01*
X90899291Y-132422791D01*
X90962896Y-132547621D01*
X90977998Y-132577260D01*
X91079899Y-132717514D01*
X91202486Y-132840101D01*
X91342740Y-132942002D01*
X91418502Y-132980604D01*
X91497208Y-133020708D01*
X91497211Y-133020709D01*
X91579648Y-133047494D01*
X91662088Y-133074280D01*
X91741391Y-133086840D01*
X91833313Y-133101400D01*
X91833318Y-133101400D01*
X92006687Y-133101400D01*
X92089695Y-133088252D01*
X92177912Y-133074280D01*
X92342791Y-133020708D01*
X92497260Y-132942002D01*
X92637514Y-132840101D01*
X92760101Y-132717514D01*
X92862002Y-132577260D01*
X92940708Y-132422791D01*
X92994280Y-132257912D01*
X93011981Y-132146154D01*
X93021400Y-132086687D01*
X93021400Y-131913312D01*
X92995733Y-131751265D01*
X92994280Y-131742088D01*
X92940708Y-131577209D01*
X92940708Y-131577208D01*
X92900604Y-131498502D01*
X92862002Y-131422740D01*
X92760101Y-131282486D01*
X92760092Y-131282477D01*
X92756937Y-131278782D01*
X92757908Y-131277952D01*
X92727240Y-131221787D01*
X92732224Y-131152095D01*
X92774096Y-131096162D01*
X92839560Y-131071745D01*
X92867804Y-131072956D01*
X93060649Y-131103500D01*
X93060654Y-131103500D01*
X93319351Y-131103500D01*
X93461294Y-131081017D01*
X93574854Y-131063032D01*
X93820885Y-130983091D01*
X94051382Y-130865647D01*
X94260668Y-130713592D01*
X94443592Y-130530668D01*
X94595647Y-130321382D01*
X94596166Y-130320361D01*
X94617648Y-130278204D01*
X94665622Y-130227409D01*
X94728132Y-130210500D01*
X95316076Y-130210500D01*
X95383115Y-130230185D01*
X95428870Y-130282989D01*
X95438814Y-130352147D01*
X95409789Y-130415703D01*
X95403757Y-130422181D01*
X95308954Y-130516983D01*
X95308948Y-130516990D01*
X95129851Y-130750394D01*
X95129840Y-130750410D01*
X94982742Y-131005189D01*
X94982734Y-131005205D01*
X94870152Y-131277005D01*
X94794001Y-131561203D01*
X94755601Y-131852883D01*
X94755600Y-131852900D01*
X94755600Y-132147099D01*
X94755601Y-132147116D01*
X94793608Y-132435814D01*
X94794002Y-132438800D01*
X94825053Y-132554685D01*
X94870152Y-132722994D01*
X94982734Y-132994794D01*
X94982742Y-132994810D01*
X95129840Y-133249589D01*
X95129851Y-133249605D01*
X95308948Y-133483009D01*
X95308954Y-133483016D01*
X95516983Y-133691045D01*
X95516989Y-133691050D01*
X95750403Y-133870155D01*
X95750410Y-133870159D01*
X96005189Y-134017257D01*
X96005205Y-134017265D01*
X96277005Y-134129847D01*
X96277007Y-134129847D01*
X96277013Y-134129850D01*
X96561200Y-134205998D01*
X96852894Y-134244400D01*
X96852901Y-134244400D01*
X97147099Y-134244400D01*
X97147106Y-134244400D01*
X97438800Y-134205998D01*
X97722987Y-134129850D01*
X97796318Y-134099475D01*
X97994794Y-134017265D01*
X97994797Y-134017263D01*
X97994803Y-134017261D01*
X98249597Y-133870155D01*
X98483011Y-133691050D01*
X98691050Y-133483011D01*
X98870155Y-133249597D01*
X99017261Y-132994803D01*
X99129850Y-132722987D01*
X99205998Y-132438800D01*
X99244400Y-132147106D01*
X99244400Y-131913312D01*
X100978600Y-131913312D01*
X100978600Y-132086687D01*
X101005720Y-132257913D01*
X101059290Y-132422788D01*
X101059291Y-132422791D01*
X101122896Y-132547621D01*
X101137998Y-132577260D01*
X101239899Y-132717514D01*
X101362486Y-132840101D01*
X101502740Y-132942002D01*
X101578502Y-132980604D01*
X101657208Y-133020708D01*
X101657211Y-133020709D01*
X101739648Y-133047494D01*
X101822088Y-133074280D01*
X101901391Y-133086840D01*
X101993313Y-133101400D01*
X101993318Y-133101400D01*
X102166687Y-133101400D01*
X102249695Y-133088252D01*
X102337912Y-133074280D01*
X102502791Y-133020708D01*
X102657260Y-132942002D01*
X102797514Y-132840101D01*
X102920101Y-132717514D01*
X103022002Y-132577260D01*
X103100708Y-132422791D01*
X103154280Y-132257912D01*
X103171981Y-132146154D01*
X103181400Y-132086687D01*
X103181400Y-131913312D01*
X103155733Y-131751265D01*
X103154280Y-131742088D01*
X103100708Y-131577209D01*
X103100708Y-131577208D01*
X103060604Y-131498502D01*
X103022002Y-131422740D01*
X102920101Y-131282486D01*
X102797514Y-131159899D01*
X102657260Y-131057998D01*
X102502791Y-130979291D01*
X102502788Y-130979290D01*
X102337913Y-130925720D01*
X102166687Y-130898600D01*
X102166682Y-130898600D01*
X101993318Y-130898600D01*
X101993313Y-130898600D01*
X101822086Y-130925720D01*
X101657211Y-130979290D01*
X101657208Y-130979291D01*
X101502739Y-131057998D01*
X101450212Y-131096162D01*
X101362486Y-131159899D01*
X101362484Y-131159901D01*
X101362483Y-131159901D01*
X101239901Y-131282483D01*
X101239901Y-131282484D01*
X101239899Y-131282486D01*
X101196136Y-131342719D01*
X101137998Y-131422739D01*
X101059291Y-131577208D01*
X101059290Y-131577211D01*
X101005720Y-131742086D01*
X100978600Y-131913312D01*
X99244400Y-131913312D01*
X99244400Y-131852894D01*
X99205998Y-131561200D01*
X99129850Y-131277013D01*
X99126837Y-131269738D01*
X99017265Y-131005205D01*
X99017257Y-131005189D01*
X98870159Y-130750410D01*
X98870155Y-130750403D01*
X98691050Y-130516989D01*
X98691045Y-130516983D01*
X98596243Y-130422181D01*
X98562758Y-130360858D01*
X98567742Y-130291166D01*
X98609614Y-130235233D01*
X98675078Y-130210816D01*
X98683924Y-130210500D01*
X113651868Y-130210500D01*
X113718907Y-130230185D01*
X113762352Y-130278204D01*
X113784351Y-130321380D01*
X113806705Y-130352147D01*
X113936408Y-130530668D01*
X113936410Y-130530670D01*
X114092659Y-130686919D01*
X114126144Y-130748242D01*
X114121160Y-130817934D01*
X114079288Y-130873867D01*
X114013824Y-130898284D01*
X114004978Y-130898600D01*
X113833313Y-130898600D01*
X113662086Y-130925720D01*
X113497211Y-130979290D01*
X113497208Y-130979291D01*
X113342739Y-131057998D01*
X113290212Y-131096162D01*
X113202486Y-131159899D01*
X113202484Y-131159901D01*
X113202483Y-131159901D01*
X113079901Y-131282483D01*
X113079901Y-131282484D01*
X113079899Y-131282486D01*
X113036136Y-131342719D01*
X112977998Y-131422739D01*
X112899291Y-131577208D01*
X112899290Y-131577211D01*
X112845720Y-131742086D01*
X112818600Y-131913312D01*
X112818600Y-132086687D01*
X112845720Y-132257913D01*
X112899290Y-132422788D01*
X112899291Y-132422791D01*
X112962896Y-132547621D01*
X112977998Y-132577260D01*
X113079899Y-132717514D01*
X113202486Y-132840101D01*
X113342740Y-132942002D01*
X113418502Y-132980604D01*
X113497208Y-133020708D01*
X113497211Y-133020709D01*
X113579648Y-133047494D01*
X113662088Y-133074280D01*
X113741391Y-133086840D01*
X113833313Y-133101400D01*
X113833318Y-133101400D01*
X114006687Y-133101400D01*
X114089695Y-133088252D01*
X114177912Y-133074280D01*
X114342791Y-133020708D01*
X114497260Y-132942002D01*
X114637514Y-132840101D01*
X114760101Y-132717514D01*
X114862002Y-132577260D01*
X114940708Y-132422791D01*
X114994280Y-132257912D01*
X115011981Y-132146154D01*
X115021400Y-132086687D01*
X115021400Y-131913312D01*
X114995733Y-131751265D01*
X114994280Y-131742088D01*
X114940708Y-131577209D01*
X114940708Y-131577208D01*
X114900604Y-131498502D01*
X114862002Y-131422740D01*
X114760101Y-131282486D01*
X114760092Y-131282477D01*
X114756937Y-131278782D01*
X114757908Y-131277952D01*
X114727240Y-131221787D01*
X114732224Y-131152095D01*
X114774096Y-131096162D01*
X114839560Y-131071745D01*
X114867804Y-131072956D01*
X115060649Y-131103500D01*
X115060654Y-131103500D01*
X115319351Y-131103500D01*
X115461294Y-131081017D01*
X115574854Y-131063032D01*
X115820885Y-130983091D01*
X116051382Y-130865647D01*
X116260668Y-130713592D01*
X116443592Y-130530668D01*
X116595647Y-130321382D01*
X116596166Y-130320361D01*
X116617648Y-130278204D01*
X116665622Y-130227409D01*
X116728132Y-130210500D01*
X117316076Y-130210500D01*
X117383115Y-130230185D01*
X117428870Y-130282989D01*
X117438814Y-130352147D01*
X117409789Y-130415703D01*
X117403757Y-130422181D01*
X117308954Y-130516983D01*
X117308948Y-130516990D01*
X117129851Y-130750394D01*
X117129840Y-130750410D01*
X116982742Y-131005189D01*
X116982734Y-131005205D01*
X116870152Y-131277005D01*
X116794001Y-131561203D01*
X116755601Y-131852883D01*
X116755600Y-131852900D01*
X116755600Y-132147099D01*
X116755601Y-132147116D01*
X116793608Y-132435814D01*
X116794002Y-132438800D01*
X116825053Y-132554685D01*
X116870152Y-132722994D01*
X116982734Y-132994794D01*
X116982742Y-132994810D01*
X117129840Y-133249589D01*
X117129851Y-133249605D01*
X117308948Y-133483009D01*
X117308954Y-133483016D01*
X117516983Y-133691045D01*
X117516989Y-133691050D01*
X117750403Y-133870155D01*
X117750410Y-133870159D01*
X118005189Y-134017257D01*
X118005205Y-134017265D01*
X118277005Y-134129847D01*
X118277007Y-134129847D01*
X118277013Y-134129850D01*
X118561200Y-134205998D01*
X118852894Y-134244400D01*
X118852901Y-134244400D01*
X119147099Y-134244400D01*
X119147106Y-134244400D01*
X119438800Y-134205998D01*
X119722987Y-134129850D01*
X119796318Y-134099475D01*
X119994794Y-134017265D01*
X119994797Y-134017263D01*
X119994803Y-134017261D01*
X120249597Y-133870155D01*
X120483011Y-133691050D01*
X120691050Y-133483011D01*
X120870155Y-133249597D01*
X121017261Y-132994803D01*
X121129850Y-132722987D01*
X121205998Y-132438800D01*
X121244400Y-132147106D01*
X121244400Y-131913312D01*
X122978600Y-131913312D01*
X122978600Y-132086687D01*
X123005720Y-132257913D01*
X123059290Y-132422788D01*
X123059291Y-132422791D01*
X123122896Y-132547621D01*
X123137998Y-132577260D01*
X123239899Y-132717514D01*
X123362486Y-132840101D01*
X123502740Y-132942002D01*
X123578502Y-132980604D01*
X123657208Y-133020708D01*
X123657211Y-133020709D01*
X123739648Y-133047494D01*
X123822088Y-133074280D01*
X123901391Y-133086840D01*
X123993313Y-133101400D01*
X123993318Y-133101400D01*
X124166687Y-133101400D01*
X124249695Y-133088252D01*
X124337912Y-133074280D01*
X124502791Y-133020708D01*
X124657260Y-132942002D01*
X124797514Y-132840101D01*
X124920101Y-132717514D01*
X125022002Y-132577260D01*
X125100708Y-132422791D01*
X125154280Y-132257912D01*
X125171981Y-132146154D01*
X125181400Y-132086687D01*
X125181400Y-131913312D01*
X125155733Y-131751265D01*
X125154280Y-131742088D01*
X125100708Y-131577209D01*
X125100708Y-131577208D01*
X125060604Y-131498502D01*
X125022002Y-131422740D01*
X124920101Y-131282486D01*
X124797514Y-131159899D01*
X124657260Y-131057998D01*
X124502791Y-130979291D01*
X124502788Y-130979290D01*
X124337913Y-130925720D01*
X124166687Y-130898600D01*
X124166682Y-130898600D01*
X123993318Y-130898600D01*
X123993313Y-130898600D01*
X123822086Y-130925720D01*
X123657211Y-130979290D01*
X123657208Y-130979291D01*
X123502739Y-131057998D01*
X123450212Y-131096162D01*
X123362486Y-131159899D01*
X123362484Y-131159901D01*
X123362483Y-131159901D01*
X123239901Y-131282483D01*
X123239901Y-131282484D01*
X123239899Y-131282486D01*
X123196136Y-131342719D01*
X123137998Y-131422739D01*
X123059291Y-131577208D01*
X123059290Y-131577211D01*
X123005720Y-131742086D01*
X122978600Y-131913312D01*
X121244400Y-131913312D01*
X121244400Y-131852894D01*
X121205998Y-131561200D01*
X121129850Y-131277013D01*
X121126837Y-131269738D01*
X121017265Y-131005205D01*
X121017257Y-131005189D01*
X120870159Y-130750410D01*
X120870155Y-130750403D01*
X120691050Y-130516989D01*
X120691045Y-130516983D01*
X120596243Y-130422181D01*
X120562758Y-130360858D01*
X120567742Y-130291166D01*
X120609614Y-130235233D01*
X120675078Y-130210816D01*
X120683924Y-130210500D01*
X135651868Y-130210500D01*
X135718907Y-130230185D01*
X135762352Y-130278204D01*
X135784351Y-130321380D01*
X135806705Y-130352147D01*
X135936408Y-130530668D01*
X135936410Y-130530670D01*
X136092659Y-130686919D01*
X136126144Y-130748242D01*
X136121160Y-130817934D01*
X136079288Y-130873867D01*
X136013824Y-130898284D01*
X136004978Y-130898600D01*
X135833313Y-130898600D01*
X135662086Y-130925720D01*
X135497211Y-130979290D01*
X135497208Y-130979291D01*
X135342739Y-131057998D01*
X135290212Y-131096162D01*
X135202486Y-131159899D01*
X135202484Y-131159901D01*
X135202483Y-131159901D01*
X135079901Y-131282483D01*
X135079901Y-131282484D01*
X135079899Y-131282486D01*
X135036136Y-131342719D01*
X134977998Y-131422739D01*
X134899291Y-131577208D01*
X134899290Y-131577211D01*
X134845720Y-131742086D01*
X134818600Y-131913312D01*
X134818600Y-132086687D01*
X134845720Y-132257913D01*
X134899290Y-132422788D01*
X134899291Y-132422791D01*
X134962896Y-132547621D01*
X134977998Y-132577260D01*
X135079899Y-132717514D01*
X135202486Y-132840101D01*
X135342740Y-132942002D01*
X135418502Y-132980604D01*
X135497208Y-133020708D01*
X135497211Y-133020709D01*
X135579648Y-133047494D01*
X135662088Y-133074280D01*
X135741391Y-133086840D01*
X135833313Y-133101400D01*
X135833318Y-133101400D01*
X136006687Y-133101400D01*
X136089695Y-133088252D01*
X136177912Y-133074280D01*
X136342791Y-133020708D01*
X136497260Y-132942002D01*
X136637514Y-132840101D01*
X136760101Y-132717514D01*
X136862002Y-132577260D01*
X136940708Y-132422791D01*
X136994280Y-132257912D01*
X137011981Y-132146154D01*
X137021400Y-132086687D01*
X137021400Y-131913312D01*
X136995733Y-131751265D01*
X136994280Y-131742088D01*
X136940708Y-131577209D01*
X136940708Y-131577208D01*
X136900604Y-131498502D01*
X136862002Y-131422740D01*
X136760101Y-131282486D01*
X136760092Y-131282477D01*
X136756937Y-131278782D01*
X136757908Y-131277952D01*
X136727240Y-131221787D01*
X136732224Y-131152095D01*
X136774096Y-131096162D01*
X136839560Y-131071745D01*
X136867804Y-131072956D01*
X137060649Y-131103500D01*
X137060654Y-131103500D01*
X137319351Y-131103500D01*
X137461294Y-131081017D01*
X137574854Y-131063032D01*
X137820885Y-130983091D01*
X138051382Y-130865647D01*
X138260668Y-130713592D01*
X138443592Y-130530668D01*
X138595647Y-130321382D01*
X138596166Y-130320361D01*
X138617648Y-130278204D01*
X138665622Y-130227409D01*
X138728132Y-130210500D01*
X139316076Y-130210500D01*
X139383115Y-130230185D01*
X139428870Y-130282989D01*
X139438814Y-130352147D01*
X139409789Y-130415703D01*
X139403757Y-130422181D01*
X139308954Y-130516983D01*
X139308948Y-130516990D01*
X139129851Y-130750394D01*
X139129840Y-130750410D01*
X138982742Y-131005189D01*
X138982734Y-131005205D01*
X138870152Y-131277005D01*
X138794001Y-131561203D01*
X138755601Y-131852883D01*
X138755600Y-131852900D01*
X138755600Y-132147099D01*
X138755601Y-132147116D01*
X138793608Y-132435814D01*
X138794002Y-132438800D01*
X138825053Y-132554685D01*
X138870152Y-132722994D01*
X138982734Y-132994794D01*
X138982742Y-132994810D01*
X139129840Y-133249589D01*
X139129851Y-133249605D01*
X139308948Y-133483009D01*
X139308954Y-133483016D01*
X139516983Y-133691045D01*
X139516989Y-133691050D01*
X139750403Y-133870155D01*
X139750410Y-133870159D01*
X140005189Y-134017257D01*
X140005205Y-134017265D01*
X140277005Y-134129847D01*
X140277007Y-134129847D01*
X140277013Y-134129850D01*
X140561200Y-134205998D01*
X140852894Y-134244400D01*
X140852901Y-134244400D01*
X141147099Y-134244400D01*
X141147106Y-134244400D01*
X141438800Y-134205998D01*
X141722987Y-134129850D01*
X141796318Y-134099475D01*
X141994794Y-134017265D01*
X141994797Y-134017263D01*
X141994803Y-134017261D01*
X142249597Y-133870155D01*
X142483011Y-133691050D01*
X142691050Y-133483011D01*
X142870155Y-133249597D01*
X143017261Y-132994803D01*
X143129850Y-132722987D01*
X143205998Y-132438800D01*
X143244400Y-132147106D01*
X143244400Y-131913312D01*
X144978600Y-131913312D01*
X144978600Y-132086687D01*
X145005720Y-132257913D01*
X145059290Y-132422788D01*
X145059291Y-132422791D01*
X145122896Y-132547621D01*
X145137998Y-132577260D01*
X145239899Y-132717514D01*
X145362486Y-132840101D01*
X145502740Y-132942002D01*
X145578502Y-132980604D01*
X145657208Y-133020708D01*
X145657211Y-133020709D01*
X145739648Y-133047494D01*
X145822088Y-133074280D01*
X145901391Y-133086840D01*
X145993313Y-133101400D01*
X145993318Y-133101400D01*
X146166687Y-133101400D01*
X146249695Y-133088252D01*
X146337912Y-133074280D01*
X146502791Y-133020708D01*
X146657260Y-132942002D01*
X146797514Y-132840101D01*
X146920101Y-132717514D01*
X147022002Y-132577260D01*
X147100708Y-132422791D01*
X147154280Y-132257912D01*
X147171981Y-132146154D01*
X147181400Y-132086687D01*
X147181400Y-131913312D01*
X147155733Y-131751265D01*
X147154280Y-131742088D01*
X147100708Y-131577209D01*
X147100708Y-131577208D01*
X147060604Y-131498502D01*
X147022002Y-131422740D01*
X146920101Y-131282486D01*
X146797514Y-131159899D01*
X146657260Y-131057998D01*
X146502791Y-130979291D01*
X146502788Y-130979290D01*
X146337913Y-130925720D01*
X146166687Y-130898600D01*
X146166682Y-130898600D01*
X145993318Y-130898600D01*
X145993313Y-130898600D01*
X145822086Y-130925720D01*
X145657211Y-130979290D01*
X145657208Y-130979291D01*
X145502739Y-131057998D01*
X145450212Y-131096162D01*
X145362486Y-131159899D01*
X145362484Y-131159901D01*
X145362483Y-131159901D01*
X145239901Y-131282483D01*
X145239901Y-131282484D01*
X145239899Y-131282486D01*
X145196136Y-131342719D01*
X145137998Y-131422739D01*
X145059291Y-131577208D01*
X145059290Y-131577211D01*
X145005720Y-131742086D01*
X144978600Y-131913312D01*
X143244400Y-131913312D01*
X143244400Y-131852894D01*
X143205998Y-131561200D01*
X143129850Y-131277013D01*
X143126837Y-131269738D01*
X143017265Y-131005205D01*
X143017257Y-131005189D01*
X142870159Y-130750410D01*
X142870155Y-130750403D01*
X142691050Y-130516989D01*
X142691045Y-130516983D01*
X142596243Y-130422181D01*
X142562758Y-130360858D01*
X142567742Y-130291166D01*
X142609614Y-130235233D01*
X142675078Y-130210816D01*
X142683924Y-130210500D01*
X157651868Y-130210500D01*
X157718907Y-130230185D01*
X157762352Y-130278204D01*
X157784351Y-130321380D01*
X157806705Y-130352147D01*
X157936408Y-130530668D01*
X157936410Y-130530670D01*
X158092659Y-130686919D01*
X158126144Y-130748242D01*
X158121160Y-130817934D01*
X158079288Y-130873867D01*
X158013824Y-130898284D01*
X158004978Y-130898600D01*
X157833313Y-130898600D01*
X157662086Y-130925720D01*
X157497211Y-130979290D01*
X157497208Y-130979291D01*
X157342739Y-131057998D01*
X157290212Y-131096162D01*
X157202486Y-131159899D01*
X157202484Y-131159901D01*
X157202483Y-131159901D01*
X157079901Y-131282483D01*
X157079901Y-131282484D01*
X157079899Y-131282486D01*
X157036136Y-131342719D01*
X156977998Y-131422739D01*
X156899291Y-131577208D01*
X156899290Y-131577211D01*
X156845720Y-131742086D01*
X156818600Y-131913312D01*
X156818600Y-132086687D01*
X156845720Y-132257913D01*
X156899290Y-132422788D01*
X156899291Y-132422791D01*
X156962896Y-132547621D01*
X156977998Y-132577260D01*
X157079899Y-132717514D01*
X157202486Y-132840101D01*
X157342740Y-132942002D01*
X157418502Y-132980604D01*
X157497208Y-133020708D01*
X157497211Y-133020709D01*
X157579648Y-133047494D01*
X157662088Y-133074280D01*
X157741391Y-133086840D01*
X157833313Y-133101400D01*
X157833318Y-133101400D01*
X158006687Y-133101400D01*
X158089695Y-133088252D01*
X158177912Y-133074280D01*
X158342791Y-133020708D01*
X158497260Y-132942002D01*
X158637514Y-132840101D01*
X158760101Y-132717514D01*
X158862002Y-132577260D01*
X158940708Y-132422791D01*
X158994280Y-132257912D01*
X159011981Y-132146154D01*
X159021400Y-132086687D01*
X159021400Y-131913312D01*
X159014260Y-131868233D01*
X159011831Y-131852900D01*
X160755600Y-131852900D01*
X160755600Y-132147099D01*
X160755601Y-132147116D01*
X160793608Y-132435814D01*
X160794002Y-132438800D01*
X160825053Y-132554685D01*
X160870152Y-132722994D01*
X160982734Y-132994794D01*
X160982742Y-132994810D01*
X161129840Y-133249589D01*
X161129851Y-133249605D01*
X161308948Y-133483009D01*
X161308954Y-133483016D01*
X161516983Y-133691045D01*
X161516989Y-133691050D01*
X161750403Y-133870155D01*
X161750410Y-133870159D01*
X162005189Y-134017257D01*
X162005205Y-134017265D01*
X162277005Y-134129847D01*
X162277007Y-134129847D01*
X162277013Y-134129850D01*
X162561200Y-134205998D01*
X162852894Y-134244400D01*
X162852901Y-134244400D01*
X163147099Y-134244400D01*
X163147106Y-134244400D01*
X163438800Y-134205998D01*
X163722987Y-134129850D01*
X163796318Y-134099475D01*
X163994794Y-134017265D01*
X163994797Y-134017263D01*
X163994803Y-134017261D01*
X164249597Y-133870155D01*
X164483011Y-133691050D01*
X164691050Y-133483011D01*
X164870155Y-133249597D01*
X165017261Y-132994803D01*
X165129850Y-132722987D01*
X165205998Y-132438800D01*
X165244400Y-132147106D01*
X165244400Y-131913312D01*
X166978600Y-131913312D01*
X166978600Y-132086687D01*
X167005720Y-132257913D01*
X167059290Y-132422788D01*
X167059291Y-132422791D01*
X167122896Y-132547621D01*
X167137998Y-132577260D01*
X167239899Y-132717514D01*
X167362486Y-132840101D01*
X167502740Y-132942002D01*
X167578502Y-132980604D01*
X167657208Y-133020708D01*
X167657211Y-133020709D01*
X167739648Y-133047494D01*
X167822088Y-133074280D01*
X167901391Y-133086840D01*
X167993313Y-133101400D01*
X167993318Y-133101400D01*
X168166687Y-133101400D01*
X168249695Y-133088252D01*
X168337912Y-133074280D01*
X168502791Y-133020708D01*
X168657260Y-132942002D01*
X168797514Y-132840101D01*
X168920101Y-132717514D01*
X169022002Y-132577260D01*
X169100708Y-132422791D01*
X169154280Y-132257912D01*
X169171981Y-132146154D01*
X169181400Y-132086687D01*
X169181400Y-131913312D01*
X169155733Y-131751265D01*
X169154280Y-131742088D01*
X169100708Y-131577209D01*
X169100708Y-131577208D01*
X169060604Y-131498502D01*
X169022002Y-131422740D01*
X168920101Y-131282486D01*
X168797514Y-131159899D01*
X168657260Y-131057998D01*
X168502791Y-130979291D01*
X168502788Y-130979290D01*
X168337913Y-130925720D01*
X168166687Y-130898600D01*
X168166682Y-130898600D01*
X167993318Y-130898600D01*
X167993313Y-130898600D01*
X167822086Y-130925720D01*
X167657211Y-130979290D01*
X167657208Y-130979291D01*
X167502739Y-131057998D01*
X167450212Y-131096162D01*
X167362486Y-131159899D01*
X167362484Y-131159901D01*
X167362483Y-131159901D01*
X167239901Y-131282483D01*
X167239901Y-131282484D01*
X167239899Y-131282486D01*
X167196136Y-131342719D01*
X167137998Y-131422739D01*
X167059291Y-131577208D01*
X167059290Y-131577211D01*
X167005720Y-131742086D01*
X166978600Y-131913312D01*
X165244400Y-131913312D01*
X165244400Y-131852894D01*
X165205998Y-131561200D01*
X165129850Y-131277013D01*
X165126837Y-131269738D01*
X165017265Y-131005205D01*
X165017257Y-131005189D01*
X164870159Y-130750410D01*
X164870155Y-130750403D01*
X164691050Y-130516989D01*
X164691045Y-130516983D01*
X164483016Y-130308954D01*
X164483009Y-130308948D01*
X164249605Y-130129851D01*
X164249603Y-130129849D01*
X164249597Y-130129845D01*
X164249592Y-130129842D01*
X164249589Y-130129840D01*
X163994810Y-129982742D01*
X163994794Y-129982734D01*
X163722994Y-129870152D01*
X163628566Y-129844850D01*
X163438800Y-129794002D01*
X163438799Y-129794001D01*
X163438796Y-129794001D01*
X163147116Y-129755601D01*
X163147111Y-129755600D01*
X163147106Y-129755600D01*
X162852894Y-129755600D01*
X162852888Y-129755600D01*
X162852883Y-129755601D01*
X162561203Y-129794001D01*
X162277005Y-129870152D01*
X162005205Y-129982734D01*
X162005189Y-129982742D01*
X161750410Y-130129840D01*
X161750394Y-130129851D01*
X161516990Y-130308948D01*
X161516983Y-130308954D01*
X161308954Y-130516983D01*
X161308948Y-130516990D01*
X161129851Y-130750394D01*
X161129840Y-130750410D01*
X160982742Y-131005189D01*
X160982734Y-131005205D01*
X160870152Y-131277005D01*
X160794001Y-131561203D01*
X160755601Y-131852883D01*
X160755600Y-131852900D01*
X159011831Y-131852900D01*
X158995733Y-131751265D01*
X158994280Y-131742088D01*
X158940708Y-131577209D01*
X158940708Y-131577208D01*
X158900604Y-131498502D01*
X158862002Y-131422740D01*
X158760101Y-131282486D01*
X158760092Y-131282477D01*
X158756937Y-131278782D01*
X158757908Y-131277952D01*
X158727240Y-131221787D01*
X158732224Y-131152095D01*
X158774096Y-131096162D01*
X158839560Y-131071745D01*
X158867804Y-131072956D01*
X159060649Y-131103500D01*
X159060654Y-131103500D01*
X159319351Y-131103500D01*
X159461294Y-131081017D01*
X159574854Y-131063032D01*
X159820885Y-130983091D01*
X160051382Y-130865647D01*
X160260668Y-130713592D01*
X160443592Y-130530668D01*
X160595647Y-130321382D01*
X160713091Y-130090885D01*
X160793032Y-129844854D01*
X160816054Y-129699500D01*
X160833500Y-129589351D01*
X160833500Y-129330648D01*
X160793032Y-129075149D01*
X160793032Y-129075146D01*
X160713091Y-128829115D01*
X160595647Y-128598618D01*
X160443592Y-128389332D01*
X160260668Y-128206408D01*
X160051382Y-128054353D01*
X159820885Y-127936909D01*
X159574854Y-127856968D01*
X159574852Y-127856967D01*
X159574850Y-127856967D01*
X159319351Y-127816500D01*
X159319346Y-127816500D01*
X159060654Y-127816500D01*
X159060649Y-127816500D01*
X158805149Y-127856967D01*
X158559112Y-127936910D01*
X158328617Y-128054353D01*
X158119329Y-128206410D01*
X157936410Y-128389329D01*
X157784351Y-128598619D01*
X157762352Y-128641796D01*
X157714378Y-128692591D01*
X157651868Y-128709500D01*
X144133867Y-128709500D01*
X144066828Y-128689815D01*
X144021073Y-128637011D01*
X144011129Y-128567853D01*
X144040154Y-128504297D01*
X144095547Y-128467569D01*
X144170885Y-128443091D01*
X144401382Y-128325647D01*
X144610668Y-128173592D01*
X144793592Y-127990668D01*
X144945647Y-127781382D01*
X145063091Y-127550885D01*
X145143032Y-127304854D01*
X145161017Y-127191294D01*
X145183500Y-127049351D01*
X145183500Y-126790648D01*
X163896500Y-126790648D01*
X163896500Y-127049351D01*
X163936967Y-127304850D01*
X163936968Y-127304854D01*
X164016909Y-127550885D01*
X164134353Y-127781382D01*
X164286408Y-127990668D01*
X164469332Y-128173592D01*
X164678618Y-128325647D01*
X164909115Y-128443091D01*
X165155146Y-128523032D01*
X165250961Y-128538207D01*
X165410649Y-128563500D01*
X165410654Y-128563500D01*
X165669351Y-128563500D01*
X165811294Y-128541017D01*
X165924854Y-128523032D01*
X166170885Y-128443091D01*
X166401382Y-128325647D01*
X166610668Y-128173592D01*
X166793592Y-127990668D01*
X166945647Y-127781382D01*
X167063091Y-127550885D01*
X167143032Y-127304854D01*
X167161017Y-127191294D01*
X167183500Y-127049351D01*
X167183500Y-126790648D01*
X167143032Y-126535149D01*
X167143032Y-126535146D01*
X167063091Y-126289115D01*
X166945647Y-126058618D01*
X166793592Y-125849332D01*
X166610668Y-125666408D01*
X166401382Y-125514353D01*
X166170885Y-125396909D01*
X165924854Y-125316968D01*
X165924852Y-125316967D01*
X165924850Y-125316967D01*
X165669351Y-125276500D01*
X165669346Y-125276500D01*
X165410654Y-125276500D01*
X165410649Y-125276500D01*
X165155149Y-125316967D01*
X164909112Y-125396910D01*
X164678617Y-125514353D01*
X164469329Y-125666410D01*
X164286410Y-125849329D01*
X164134353Y-126058617D01*
X164016910Y-126289112D01*
X163936967Y-126535149D01*
X163896500Y-126790648D01*
X145183500Y-126790648D01*
X145143032Y-126535149D01*
X145143032Y-126535146D01*
X145063091Y-126289115D01*
X144945647Y-126058618D01*
X144793592Y-125849332D01*
X144610668Y-125666408D01*
X144401382Y-125514353D01*
X144170885Y-125396909D01*
X143924854Y-125316968D01*
X143924852Y-125316967D01*
X143924850Y-125316967D01*
X143669351Y-125276500D01*
X143669346Y-125276500D01*
X143410654Y-125276500D01*
X143410649Y-125276500D01*
X143155149Y-125316967D01*
X142909112Y-125396910D01*
X142678617Y-125514353D01*
X142469329Y-125666410D01*
X142286410Y-125849329D01*
X142134353Y-126058617D01*
X142016910Y-126289112D01*
X141936967Y-126535149D01*
X141896500Y-126790648D01*
X141896500Y-127049351D01*
X141936967Y-127304850D01*
X141936968Y-127304854D01*
X142016909Y-127550885D01*
X142134353Y-127781382D01*
X142286408Y-127990668D01*
X142469332Y-128173592D01*
X142678618Y-128325647D01*
X142909115Y-128443091D01*
X142984452Y-128467569D01*
X143042127Y-128507007D01*
X143069325Y-128571365D01*
X143057410Y-128640212D01*
X143010166Y-128691687D01*
X142946133Y-128709500D01*
X138728132Y-128709500D01*
X138661093Y-128689815D01*
X138617648Y-128641796D01*
X138595648Y-128598619D01*
X138557633Y-128546296D01*
X138443592Y-128389332D01*
X138260668Y-128206408D01*
X138051382Y-128054353D01*
X137820885Y-127936909D01*
X137574854Y-127856968D01*
X137574852Y-127856967D01*
X137574850Y-127856967D01*
X137319351Y-127816500D01*
X137319346Y-127816500D01*
X137060654Y-127816500D01*
X137060649Y-127816500D01*
X136805149Y-127856967D01*
X136559112Y-127936910D01*
X136328617Y-128054353D01*
X136119329Y-128206410D01*
X135936410Y-128389329D01*
X135784351Y-128598619D01*
X135762352Y-128641796D01*
X135714378Y-128692591D01*
X135651868Y-128709500D01*
X122133867Y-128709500D01*
X122066828Y-128689815D01*
X122021073Y-128637011D01*
X122011129Y-128567853D01*
X122040154Y-128504297D01*
X122095547Y-128467569D01*
X122170885Y-128443091D01*
X122401382Y-128325647D01*
X122610668Y-128173592D01*
X122793592Y-127990668D01*
X122945647Y-127781382D01*
X123063091Y-127550885D01*
X123143032Y-127304854D01*
X123161017Y-127191294D01*
X123183500Y-127049351D01*
X123183500Y-126790648D01*
X123143032Y-126535149D01*
X123143032Y-126535146D01*
X123063091Y-126289115D01*
X122945647Y-126058618D01*
X122793592Y-125849332D01*
X122610668Y-125666408D01*
X122401382Y-125514353D01*
X122170885Y-125396909D01*
X121924854Y-125316968D01*
X121924852Y-125316967D01*
X121924850Y-125316967D01*
X121669351Y-125276500D01*
X121669346Y-125276500D01*
X121410654Y-125276500D01*
X121410649Y-125276500D01*
X121155149Y-125316967D01*
X120909112Y-125396910D01*
X120678617Y-125514353D01*
X120469329Y-125666410D01*
X120286410Y-125849329D01*
X120134353Y-126058617D01*
X120016910Y-126289112D01*
X119936967Y-126535149D01*
X119896500Y-126790648D01*
X119896500Y-127049351D01*
X119936967Y-127304850D01*
X119936968Y-127304854D01*
X120016909Y-127550885D01*
X120134353Y-127781382D01*
X120286408Y-127990668D01*
X120469332Y-128173592D01*
X120678618Y-128325647D01*
X120909115Y-128443091D01*
X120984452Y-128467569D01*
X121042127Y-128507007D01*
X121069325Y-128571365D01*
X121057410Y-128640212D01*
X121010166Y-128691687D01*
X120946133Y-128709500D01*
X116728132Y-128709500D01*
X116661093Y-128689815D01*
X116617648Y-128641796D01*
X116595648Y-128598619D01*
X116557633Y-128546296D01*
X116443592Y-128389332D01*
X116260668Y-128206408D01*
X116051382Y-128054353D01*
X115820885Y-127936909D01*
X115574854Y-127856968D01*
X115574852Y-127856967D01*
X115574850Y-127856967D01*
X115319351Y-127816500D01*
X115319346Y-127816500D01*
X115060654Y-127816500D01*
X115060649Y-127816500D01*
X114805149Y-127856967D01*
X114559112Y-127936910D01*
X114328617Y-128054353D01*
X114119329Y-128206410D01*
X113936410Y-128389329D01*
X113784351Y-128598619D01*
X113762352Y-128641796D01*
X113714378Y-128692591D01*
X113651868Y-128709500D01*
X100133867Y-128709500D01*
X100066828Y-128689815D01*
X100021073Y-128637011D01*
X100011129Y-128567853D01*
X100040154Y-128504297D01*
X100095547Y-128467569D01*
X100170885Y-128443091D01*
X100401382Y-128325647D01*
X100610668Y-128173592D01*
X100793592Y-127990668D01*
X100945647Y-127781382D01*
X101063091Y-127550885D01*
X101143032Y-127304854D01*
X101161017Y-127191294D01*
X101183500Y-127049351D01*
X101183500Y-126790648D01*
X101143032Y-126535149D01*
X101143032Y-126535146D01*
X101063091Y-126289115D01*
X100945647Y-126058618D01*
X100793592Y-125849332D01*
X100610668Y-125666408D01*
X100401382Y-125514353D01*
X100170885Y-125396909D01*
X99924854Y-125316968D01*
X99924852Y-125316967D01*
X99924850Y-125316967D01*
X99669351Y-125276500D01*
X99669346Y-125276500D01*
X99410654Y-125276500D01*
X99410649Y-125276500D01*
X99155149Y-125316967D01*
X98909112Y-125396910D01*
X98678617Y-125514353D01*
X98469329Y-125666410D01*
X98286410Y-125849329D01*
X98134353Y-126058617D01*
X98016910Y-126289112D01*
X97936967Y-126535149D01*
X97896500Y-126790648D01*
X97896500Y-127049351D01*
X97936967Y-127304850D01*
X97936968Y-127304854D01*
X98016909Y-127550885D01*
X98134353Y-127781382D01*
X98286408Y-127990668D01*
X98469332Y-128173592D01*
X98678618Y-128325647D01*
X98909115Y-128443091D01*
X98984452Y-128467569D01*
X99042127Y-128507007D01*
X99069325Y-128571365D01*
X99057410Y-128640212D01*
X99010166Y-128691687D01*
X98946133Y-128709500D01*
X94728132Y-128709500D01*
X94661093Y-128689815D01*
X94617648Y-128641796D01*
X94595648Y-128598619D01*
X94557633Y-128546296D01*
X94443592Y-128389332D01*
X94260668Y-128206408D01*
X94142876Y-128120827D01*
X94051380Y-128054351D01*
X94008204Y-128032352D01*
X93957409Y-127984378D01*
X93940500Y-127921868D01*
X93940500Y-111052135D01*
X94329500Y-111052135D01*
X94329500Y-112947870D01*
X94329501Y-112947876D01*
X94335908Y-113007483D01*
X94386202Y-113142328D01*
X94386206Y-113142335D01*
X94472452Y-113257544D01*
X94472455Y-113257547D01*
X94587664Y-113343793D01*
X94587671Y-113343797D01*
X94722517Y-113394091D01*
X94722516Y-113394091D01*
X94729444Y-113394835D01*
X94782127Y-113400500D01*
X96677872Y-113400499D01*
X96737483Y-113394091D01*
X96872331Y-113343796D01*
X96987546Y-113257546D01*
X97073796Y-113142331D01*
X97101429Y-113068243D01*
X97103601Y-113062420D01*
X97145471Y-113006486D01*
X97210936Y-112982068D01*
X97279209Y-112996919D01*
X97307464Y-113018071D01*
X97357636Y-113068243D01*
X97357641Y-113068247D01*
X97483645Y-113159793D01*
X97535978Y-113197815D01*
X97664375Y-113263237D01*
X97732393Y-113297895D01*
X97732396Y-113297896D01*
X97791951Y-113317246D01*
X97942049Y-113366015D01*
X98159778Y-113400500D01*
X98159779Y-113400500D01*
X98380221Y-113400500D01*
X98380222Y-113400500D01*
X98597951Y-113366015D01*
X98807606Y-113297895D01*
X99004022Y-113197815D01*
X99182365Y-113068242D01*
X99338242Y-112912365D01*
X99467815Y-112734022D01*
X99567895Y-112537606D01*
X99636015Y-112327951D01*
X99670500Y-112110222D01*
X99670500Y-111889778D01*
X99636015Y-111672049D01*
X99593738Y-111541932D01*
X99567896Y-111462396D01*
X99567895Y-111462393D01*
X99533179Y-111394260D01*
X99467815Y-111265978D01*
X99436403Y-111222743D01*
X99338247Y-111087641D01*
X99338243Y-111087636D01*
X99182363Y-110931756D01*
X99182358Y-110931752D01*
X99004025Y-110802187D01*
X99004024Y-110802186D01*
X99004022Y-110802185D01*
X98941096Y-110770122D01*
X98807606Y-110702104D01*
X98807603Y-110702103D01*
X98597952Y-110633985D01*
X98478407Y-110615051D01*
X98380222Y-110599500D01*
X98159778Y-110599500D01*
X98087201Y-110610995D01*
X97942047Y-110633985D01*
X97732396Y-110702103D01*
X97732393Y-110702104D01*
X97535974Y-110802187D01*
X97357641Y-110931752D01*
X97357636Y-110931756D01*
X97307463Y-110981929D01*
X97246140Y-111015413D01*
X97176448Y-111010428D01*
X97120515Y-110968557D01*
X97103601Y-110937580D01*
X97073797Y-110857671D01*
X97073793Y-110857664D01*
X96987547Y-110742455D01*
X96987544Y-110742452D01*
X96872335Y-110656206D01*
X96872328Y-110656202D01*
X96737482Y-110605908D01*
X96737483Y-110605908D01*
X96677883Y-110599501D01*
X96677881Y-110599500D01*
X96677873Y-110599500D01*
X96677864Y-110599500D01*
X94782129Y-110599500D01*
X94782123Y-110599501D01*
X94722516Y-110605908D01*
X94587671Y-110656202D01*
X94587664Y-110656206D01*
X94472455Y-110742452D01*
X94472452Y-110742455D01*
X94386206Y-110857664D01*
X94386202Y-110857671D01*
X94335908Y-110992517D01*
X94329501Y-111052116D01*
X94329500Y-111052135D01*
X93940500Y-111052135D01*
X93940500Y-82804500D01*
X93960185Y-82737461D01*
X94012989Y-82691706D01*
X94064500Y-82680500D01*
X96244582Y-82680500D01*
X96311621Y-82700185D01*
X96344900Y-82731615D01*
X96378028Y-82777212D01*
X96378032Y-82777217D01*
X96522786Y-82921971D01*
X96671621Y-83030104D01*
X96688390Y-83042287D01*
X96779840Y-83088883D01*
X96781080Y-83089515D01*
X96831876Y-83137490D01*
X96848671Y-83205311D01*
X96826134Y-83271446D01*
X96781080Y-83310485D01*
X96688386Y-83357715D01*
X96522786Y-83478028D01*
X96378028Y-83622786D01*
X96257715Y-83788386D01*
X96164781Y-83970776D01*
X96101522Y-84165465D01*
X96069500Y-84367648D01*
X96069500Y-84572351D01*
X96101522Y-84774534D01*
X96164781Y-84969223D01*
X96257715Y-85151613D01*
X96378028Y-85317213D01*
X96522786Y-85461971D01*
X96677749Y-85574556D01*
X96688390Y-85582287D01*
X96760424Y-85618990D01*
X96781629Y-85629795D01*
X96832425Y-85677770D01*
X96849220Y-85745591D01*
X96826682Y-85811726D01*
X96781629Y-85850765D01*
X96688650Y-85898140D01*
X96523105Y-86018417D01*
X96523104Y-86018417D01*
X96378417Y-86163104D01*
X96378417Y-86163105D01*
X96258140Y-86328650D01*
X96165244Y-86510970D01*
X96102009Y-86705586D01*
X96093391Y-86760000D01*
X96936988Y-86760000D01*
X96904075Y-86817007D01*
X96870000Y-86944174D01*
X96870000Y-87075826D01*
X96904075Y-87202993D01*
X96936988Y-87260000D01*
X96093391Y-87260000D01*
X96102009Y-87314413D01*
X96165244Y-87509029D01*
X96258140Y-87691349D01*
X96378417Y-87856894D01*
X96378417Y-87856895D01*
X96523104Y-88001582D01*
X96688652Y-88121861D01*
X96781628Y-88169234D01*
X96832425Y-88217208D01*
X96849220Y-88285029D01*
X96826683Y-88351164D01*
X96781630Y-88390203D01*
X96688388Y-88437713D01*
X96522786Y-88558028D01*
X96378028Y-88702786D01*
X96257715Y-88868386D01*
X96164781Y-89050776D01*
X96101522Y-89245465D01*
X96069500Y-89447648D01*
X96069500Y-89652351D01*
X96101522Y-89854534D01*
X96164781Y-90049223D01*
X96257715Y-90231613D01*
X96378028Y-90397213D01*
X96522786Y-90541971D01*
X96675079Y-90652616D01*
X96688390Y-90662287D01*
X96777212Y-90707544D01*
X96870776Y-90755218D01*
X96870778Y-90755218D01*
X96870781Y-90755220D01*
X96975137Y-90789127D01*
X97065465Y-90818477D01*
X97166557Y-90834488D01*
X97267648Y-90850500D01*
X97267649Y-90850500D01*
X97472351Y-90850500D01*
X97472352Y-90850500D01*
X97674534Y-90818477D01*
X97869219Y-90755220D01*
X98051610Y-90662287D01*
X98147901Y-90592328D01*
X98217213Y-90541971D01*
X98217215Y-90541968D01*
X98217219Y-90541966D01*
X98361966Y-90397219D01*
X98369016Y-90387516D01*
X98395100Y-90351615D01*
X98450429Y-90308949D01*
X98495418Y-90300500D01*
X99023920Y-90300500D01*
X99121462Y-90281096D01*
X99168913Y-90271658D01*
X99305495Y-90215084D01*
X99354729Y-90182186D01*
X99428416Y-90132952D01*
X101082952Y-88478416D01*
X101140389Y-88392454D01*
X101165084Y-88355495D01*
X101221658Y-88218913D01*
X101240879Y-88122287D01*
X101250500Y-88073920D01*
X101250500Y-73862229D01*
X101270185Y-73795190D01*
X101286819Y-73774548D01*
X108873548Y-66187819D01*
X108934871Y-66154334D01*
X108961229Y-66151500D01*
X111246872Y-66151500D01*
X111313911Y-66171185D01*
X111359666Y-66223989D01*
X111369610Y-66293147D01*
X111364803Y-66313819D01*
X111341522Y-66385465D01*
X111309500Y-66587648D01*
X111309500Y-66792351D01*
X111341522Y-66994534D01*
X111404781Y-67189223D01*
X111464194Y-67305826D01*
X111481982Y-67340737D01*
X111497715Y-67371613D01*
X111618028Y-67537213D01*
X111762786Y-67681971D01*
X111917749Y-67794556D01*
X111928390Y-67802287D01*
X112019840Y-67848883D01*
X112021080Y-67849515D01*
X112071876Y-67897490D01*
X112088671Y-67965311D01*
X112066134Y-68031446D01*
X112021080Y-68070485D01*
X111928386Y-68117715D01*
X111762786Y-68238028D01*
X111618028Y-68382786D01*
X111497715Y-68548386D01*
X111404781Y-68730776D01*
X111341522Y-68925465D01*
X111309500Y-69127648D01*
X111309500Y-69332351D01*
X111341522Y-69534534D01*
X111404781Y-69729223D01*
X111497715Y-69911613D01*
X111618028Y-70077213D01*
X111762786Y-70221971D01*
X111917749Y-70334556D01*
X111928390Y-70342287D01*
X112019840Y-70388883D01*
X112021080Y-70389515D01*
X112071876Y-70437490D01*
X112088671Y-70505311D01*
X112066134Y-70571446D01*
X112021080Y-70610485D01*
X111928386Y-70657715D01*
X111762786Y-70778028D01*
X111618028Y-70922786D01*
X111497715Y-71088386D01*
X111404781Y-71270776D01*
X111341522Y-71465465D01*
X111309500Y-71667648D01*
X111309500Y-71872351D01*
X111341522Y-72074534D01*
X111404781Y-72269223D01*
X111497715Y-72451613D01*
X111618028Y-72617213D01*
X111762786Y-72761971D01*
X111917749Y-72874556D01*
X111928390Y-72882287D01*
X112019840Y-72928883D01*
X112021080Y-72929515D01*
X112071876Y-72977490D01*
X112088671Y-73045311D01*
X112066134Y-73111446D01*
X112021080Y-73150485D01*
X111928386Y-73197715D01*
X111762786Y-73318028D01*
X111618028Y-73462786D01*
X111497715Y-73628386D01*
X111404781Y-73810776D01*
X111341522Y-74005465D01*
X111309500Y-74207648D01*
X111309500Y-74412351D01*
X111341522Y-74614534D01*
X111404781Y-74809223D01*
X111497715Y-74991613D01*
X111618028Y-75157213D01*
X111762786Y-75301971D01*
X111904715Y-75405086D01*
X111928390Y-75422287D01*
X111976651Y-75446877D01*
X112021080Y-75469515D01*
X112071876Y-75517490D01*
X112088671Y-75585311D01*
X112066134Y-75651446D01*
X112021080Y-75690485D01*
X111928386Y-75737715D01*
X111762786Y-75858028D01*
X111618028Y-76002786D01*
X111497715Y-76168386D01*
X111404781Y-76350776D01*
X111341522Y-76545465D01*
X111309500Y-76747648D01*
X111309500Y-76952351D01*
X111341522Y-77154534D01*
X111404781Y-77349223D01*
X111497715Y-77531613D01*
X111618028Y-77697213D01*
X111762786Y-77841971D01*
X111893493Y-77936933D01*
X111928390Y-77962287D01*
X112012219Y-78005000D01*
X112021080Y-78009515D01*
X112071876Y-78057490D01*
X112088671Y-78125311D01*
X112066134Y-78191446D01*
X112021080Y-78230485D01*
X111928386Y-78277715D01*
X111762786Y-78398028D01*
X111618028Y-78542786D01*
X111497715Y-78708385D01*
X111490883Y-78721795D01*
X111442909Y-78772591D01*
X111380398Y-78789500D01*
X110030940Y-78789500D01*
X109990019Y-78800464D01*
X109990019Y-78800465D01*
X109952751Y-78810451D01*
X109878214Y-78830423D01*
X109878209Y-78830426D01*
X109741290Y-78909475D01*
X109741282Y-78909481D01*
X102519481Y-86131282D01*
X102519479Y-86131285D01*
X102469361Y-86218094D01*
X102469359Y-86218096D01*
X102440425Y-86268209D01*
X102440424Y-86268210D01*
X102440423Y-86268215D01*
X102399499Y-86420943D01*
X102399499Y-86420945D01*
X102399499Y-86589046D01*
X102399500Y-86589059D01*
X102399500Y-122920234D01*
X102379815Y-122987273D01*
X102378602Y-122989125D01*
X102290609Y-123120814D01*
X102290602Y-123120827D01*
X102230264Y-123266498D01*
X102230261Y-123266510D01*
X102199500Y-123421153D01*
X102199500Y-123578846D01*
X102230261Y-123733489D01*
X102230264Y-123733501D01*
X102290602Y-123879172D01*
X102290609Y-123879185D01*
X102378210Y-124010288D01*
X102378213Y-124010292D01*
X102489707Y-124121786D01*
X102489711Y-124121789D01*
X102620814Y-124209390D01*
X102620827Y-124209397D01*
X102766498Y-124269735D01*
X102766503Y-124269737D01*
X102921153Y-124300499D01*
X102921156Y-124300500D01*
X102921158Y-124300500D01*
X103078844Y-124300500D01*
X103078845Y-124300499D01*
X103233497Y-124269737D01*
X103379179Y-124209394D01*
X103510289Y-124121789D01*
X103621789Y-124010289D01*
X103709394Y-123879179D01*
X103769737Y-123733497D01*
X103800500Y-123578842D01*
X103800500Y-123421158D01*
X103800500Y-123421155D01*
X103800499Y-123421153D01*
X103769738Y-123266510D01*
X103769737Y-123266503D01*
X103769735Y-123266498D01*
X103709397Y-123120827D01*
X103709390Y-123120814D01*
X103621398Y-122989125D01*
X103600520Y-122922447D01*
X103600500Y-122920234D01*
X103600500Y-111052135D01*
X116329500Y-111052135D01*
X116329500Y-112947870D01*
X116329501Y-112947876D01*
X116335908Y-113007483D01*
X116386202Y-113142328D01*
X116386206Y-113142335D01*
X116472452Y-113257544D01*
X116472455Y-113257547D01*
X116587664Y-113343793D01*
X116587671Y-113343797D01*
X116722517Y-113394091D01*
X116722516Y-113394091D01*
X116729444Y-113394835D01*
X116782127Y-113400500D01*
X118677872Y-113400499D01*
X118737483Y-113394091D01*
X118872331Y-113343796D01*
X118987546Y-113257546D01*
X119073796Y-113142331D01*
X119101429Y-113068243D01*
X119103601Y-113062420D01*
X119145471Y-113006486D01*
X119210936Y-112982068D01*
X119279209Y-112996919D01*
X119307464Y-113018071D01*
X119357636Y-113068243D01*
X119357641Y-113068247D01*
X119483645Y-113159793D01*
X119535978Y-113197815D01*
X119664375Y-113263237D01*
X119732393Y-113297895D01*
X119732396Y-113297896D01*
X119791951Y-113317246D01*
X119942049Y-113366015D01*
X120159778Y-113400500D01*
X120159779Y-113400500D01*
X120380221Y-113400500D01*
X120380222Y-113400500D01*
X120597951Y-113366015D01*
X120807606Y-113297895D01*
X121004022Y-113197815D01*
X121182365Y-113068242D01*
X121338242Y-112912365D01*
X121467815Y-112734022D01*
X121567895Y-112537606D01*
X121636015Y-112327951D01*
X121670500Y-112110222D01*
X121670500Y-111889778D01*
X121636015Y-111672049D01*
X121593738Y-111541932D01*
X121567896Y-111462396D01*
X121567895Y-111462393D01*
X121533179Y-111394260D01*
X121467815Y-111265978D01*
X121436403Y-111222743D01*
X121338247Y-111087641D01*
X121338243Y-111087636D01*
X121182363Y-110931756D01*
X121182358Y-110931752D01*
X121004025Y-110802187D01*
X121004024Y-110802186D01*
X121004022Y-110802185D01*
X120941096Y-110770122D01*
X120807606Y-110702104D01*
X120807603Y-110702103D01*
X120597952Y-110633985D01*
X120478407Y-110615051D01*
X120380222Y-110599500D01*
X120159778Y-110599500D01*
X120087201Y-110610995D01*
X119942047Y-110633985D01*
X119732396Y-110702103D01*
X119732393Y-110702104D01*
X119535974Y-110802187D01*
X119357641Y-110931752D01*
X119357636Y-110931756D01*
X119307463Y-110981929D01*
X119246140Y-111015413D01*
X119176448Y-111010428D01*
X119120515Y-110968557D01*
X119103601Y-110937580D01*
X119073797Y-110857671D01*
X119073793Y-110857664D01*
X118987547Y-110742455D01*
X118987544Y-110742452D01*
X118872335Y-110656206D01*
X118872328Y-110656202D01*
X118737482Y-110605908D01*
X118737483Y-110605908D01*
X118677883Y-110599501D01*
X118677881Y-110599500D01*
X118677873Y-110599500D01*
X118677864Y-110599500D01*
X116782129Y-110599500D01*
X116782123Y-110599501D01*
X116722516Y-110605908D01*
X116587671Y-110656202D01*
X116587664Y-110656206D01*
X116472455Y-110742452D01*
X116472452Y-110742455D01*
X116386206Y-110857664D01*
X116386202Y-110857671D01*
X116335908Y-110992517D01*
X116329501Y-111052116D01*
X116329500Y-111052135D01*
X103600500Y-111052135D01*
X103600500Y-86800097D01*
X103620185Y-86733058D01*
X103636819Y-86712416D01*
X110322416Y-80026819D01*
X110383739Y-79993334D01*
X110410097Y-79990500D01*
X111380398Y-79990500D01*
X111447437Y-80010185D01*
X111490883Y-80058205D01*
X111497715Y-80071614D01*
X111618028Y-80237213D01*
X111762786Y-80381971D01*
X111917749Y-80494556D01*
X111928390Y-80502287D01*
X112000424Y-80538990D01*
X112021629Y-80549795D01*
X112072425Y-80597770D01*
X112089220Y-80665591D01*
X112066682Y-80731726D01*
X112021629Y-80770765D01*
X111928650Y-80818140D01*
X111763105Y-80938417D01*
X111763104Y-80938417D01*
X111618417Y-81083104D01*
X111618417Y-81083105D01*
X111498140Y-81248650D01*
X111405244Y-81430970D01*
X111342009Y-81625586D01*
X111333391Y-81680000D01*
X112176988Y-81680000D01*
X112144075Y-81737007D01*
X112110000Y-81864174D01*
X112110000Y-81995826D01*
X112144075Y-82122993D01*
X112176988Y-82180000D01*
X111333391Y-82180000D01*
X111342009Y-82234413D01*
X111405244Y-82429029D01*
X111498140Y-82611349D01*
X111618417Y-82776894D01*
X111618417Y-82776895D01*
X111763104Y-82921582D01*
X111928652Y-83041861D01*
X112021628Y-83089234D01*
X112072425Y-83137208D01*
X112089220Y-83205029D01*
X112066683Y-83271164D01*
X112021630Y-83310203D01*
X111928388Y-83357713D01*
X111762786Y-83478028D01*
X111618028Y-83622786D01*
X111497715Y-83788386D01*
X111404781Y-83970776D01*
X111341522Y-84165465D01*
X111309500Y-84367648D01*
X111309500Y-84572351D01*
X111341522Y-84774534D01*
X111404781Y-84969223D01*
X111497715Y-85151613D01*
X111618028Y-85317213D01*
X111762786Y-85461971D01*
X111917749Y-85574556D01*
X111928390Y-85582287D01*
X112019840Y-85628883D01*
X112021080Y-85629515D01*
X112071876Y-85677490D01*
X112088671Y-85745311D01*
X112066134Y-85811446D01*
X112021080Y-85850485D01*
X111928386Y-85897715D01*
X111762786Y-86018028D01*
X111618028Y-86162786D01*
X111497715Y-86328386D01*
X111404781Y-86510776D01*
X111341522Y-86705465D01*
X111309500Y-86907648D01*
X111309500Y-87112351D01*
X111341522Y-87314534D01*
X111404781Y-87509223D01*
X111468691Y-87634653D01*
X111496450Y-87689132D01*
X111497715Y-87691613D01*
X111618028Y-87857213D01*
X111762784Y-88001969D01*
X111799068Y-88028330D01*
X111841735Y-88083659D01*
X111847715Y-88153273D01*
X111815109Y-88215068D01*
X111754271Y-88249426D01*
X111739440Y-88251938D01*
X111702519Y-88255907D01*
X111567671Y-88306202D01*
X111567664Y-88306206D01*
X111452455Y-88392452D01*
X111452454Y-88392454D01*
X111366206Y-88507664D01*
X111366202Y-88507671D01*
X111315908Y-88642517D01*
X111309501Y-88702116D01*
X111309501Y-88702123D01*
X111309500Y-88702135D01*
X111309500Y-90397870D01*
X111309501Y-90397876D01*
X111315908Y-90457483D01*
X111366202Y-90592328D01*
X111366206Y-90592335D01*
X111452452Y-90707544D01*
X111452455Y-90707547D01*
X111567664Y-90793793D01*
X111567671Y-90793797D01*
X111702517Y-90844091D01*
X111702516Y-90844091D01*
X111709444Y-90844835D01*
X111762127Y-90850500D01*
X113457872Y-90850499D01*
X113517483Y-90844091D01*
X113652331Y-90793796D01*
X113767546Y-90707546D01*
X113853796Y-90592331D01*
X113904091Y-90457483D01*
X113910500Y-90397873D01*
X113910499Y-88702128D01*
X113904091Y-88642517D01*
X113853796Y-88507669D01*
X113853795Y-88507668D01*
X113853793Y-88507664D01*
X113767546Y-88392454D01*
X113767544Y-88392452D01*
X113652335Y-88306206D01*
X113652328Y-88306202D01*
X113517482Y-88255908D01*
X113517483Y-88255908D01*
X113480560Y-88251939D01*
X113416009Y-88225201D01*
X113376160Y-88167809D01*
X113373667Y-88097984D01*
X113409319Y-88037895D01*
X113420930Y-88028331D01*
X113457219Y-88001966D01*
X113601966Y-87857219D01*
X113601968Y-87857215D01*
X113601971Y-87857213D01*
X113712697Y-87704809D01*
X113722287Y-87691610D01*
X113815220Y-87509219D01*
X113878477Y-87314534D01*
X113910500Y-87112352D01*
X113910500Y-86907648D01*
X113893465Y-86800097D01*
X113878477Y-86705465D01*
X113815218Y-86510776D01*
X113722419Y-86328650D01*
X113722287Y-86328390D01*
X113678564Y-86268210D01*
X113601971Y-86162786D01*
X113457213Y-86018028D01*
X113291614Y-85897715D01*
X113285006Y-85894348D01*
X113198917Y-85850483D01*
X113148123Y-85802511D01*
X113131328Y-85734690D01*
X113153865Y-85668555D01*
X113198917Y-85629516D01*
X113291610Y-85582287D01*
X113312770Y-85566913D01*
X113457213Y-85461971D01*
X113457215Y-85461968D01*
X113457219Y-85461966D01*
X113601966Y-85317219D01*
X113601968Y-85317215D01*
X113601971Y-85317213D01*
X113654732Y-85244590D01*
X113722287Y-85151610D01*
X113815220Y-84969219D01*
X113878477Y-84774534D01*
X113910500Y-84572352D01*
X113910500Y-84367648D01*
X113878477Y-84165466D01*
X113815220Y-83970781D01*
X113815218Y-83970778D01*
X113815218Y-83970776D01*
X113781503Y-83904607D01*
X113722287Y-83788390D01*
X113714556Y-83777749D01*
X113601971Y-83622786D01*
X113457213Y-83478028D01*
X113291611Y-83357713D01*
X113198369Y-83310203D01*
X113147574Y-83262229D01*
X113130779Y-83194407D01*
X113153317Y-83128273D01*
X113198371Y-83089234D01*
X113291347Y-83041861D01*
X113456894Y-82921582D01*
X113456895Y-82921582D01*
X113601582Y-82776895D01*
X113601582Y-82776894D01*
X113721859Y-82611349D01*
X113814755Y-82429029D01*
X113877990Y-82234413D01*
X113886609Y-82180000D01*
X113043012Y-82180000D01*
X113075925Y-82122993D01*
X113110000Y-81995826D01*
X113110000Y-81864174D01*
X113075925Y-81737007D01*
X113043012Y-81680000D01*
X113886609Y-81680000D01*
X113877990Y-81625586D01*
X113814755Y-81430970D01*
X113721859Y-81248650D01*
X113601582Y-81083105D01*
X113601582Y-81083104D01*
X113456895Y-80938417D01*
X113291349Y-80818140D01*
X113198370Y-80770765D01*
X113147574Y-80722790D01*
X113130779Y-80654969D01*
X113153316Y-80588835D01*
X113198370Y-80549795D01*
X113198920Y-80549515D01*
X113291610Y-80502287D01*
X113312770Y-80486913D01*
X113457213Y-80381971D01*
X113457215Y-80381968D01*
X113457219Y-80381966D01*
X113601966Y-80237219D01*
X113601968Y-80237215D01*
X113601971Y-80237213D01*
X113654732Y-80164590D01*
X113722287Y-80071610D01*
X113815220Y-79889219D01*
X113878477Y-79694534D01*
X113910500Y-79492352D01*
X113910500Y-79287648D01*
X113878477Y-79085466D01*
X113815220Y-78890781D01*
X113815218Y-78890778D01*
X113815218Y-78890776D01*
X113781503Y-78824607D01*
X113722287Y-78708390D01*
X113714556Y-78697749D01*
X113601971Y-78542786D01*
X113457213Y-78398028D01*
X113291614Y-78277715D01*
X113285006Y-78274348D01*
X113198917Y-78230483D01*
X113148123Y-78182511D01*
X113131328Y-78114690D01*
X113153865Y-78048555D01*
X113198917Y-78009516D01*
X113291610Y-77962287D01*
X113384083Y-77895102D01*
X113457213Y-77841971D01*
X113457215Y-77841968D01*
X113457219Y-77841966D01*
X113601966Y-77697219D01*
X113601968Y-77697215D01*
X113601971Y-77697213D01*
X113722284Y-77531614D01*
X113722285Y-77531613D01*
X113722287Y-77531610D01*
X113729117Y-77518204D01*
X113777091Y-77467409D01*
X113839602Y-77450500D01*
X117049903Y-77450500D01*
X117116942Y-77470185D01*
X117137584Y-77486819D01*
X124363181Y-84712416D01*
X124396666Y-84773739D01*
X124399500Y-84800097D01*
X124399500Y-122920234D01*
X124379815Y-122987273D01*
X124378602Y-122989125D01*
X124290609Y-123120814D01*
X124290602Y-123120827D01*
X124230264Y-123266498D01*
X124230261Y-123266510D01*
X124199500Y-123421153D01*
X124199500Y-123578846D01*
X124230261Y-123733489D01*
X124230264Y-123733501D01*
X124290602Y-123879172D01*
X124290609Y-123879185D01*
X124378210Y-124010288D01*
X124378213Y-124010292D01*
X124489707Y-124121786D01*
X124489711Y-124121789D01*
X124620814Y-124209390D01*
X124620827Y-124209397D01*
X124766498Y-124269735D01*
X124766503Y-124269737D01*
X124921153Y-124300499D01*
X124921156Y-124300500D01*
X124921158Y-124300500D01*
X125078844Y-124300500D01*
X125078845Y-124300499D01*
X125233497Y-124269737D01*
X125379179Y-124209394D01*
X125510289Y-124121789D01*
X125621789Y-124010289D01*
X125709394Y-123879179D01*
X125769737Y-123733497D01*
X125800500Y-123578842D01*
X125800500Y-123421158D01*
X125800500Y-123421155D01*
X125800499Y-123421153D01*
X125769738Y-123266510D01*
X125769737Y-123266503D01*
X125769735Y-123266498D01*
X125709397Y-123120827D01*
X125709390Y-123120814D01*
X125621398Y-122989125D01*
X125600520Y-122922447D01*
X125600500Y-122920234D01*
X125600500Y-109878711D01*
X128149500Y-109878711D01*
X128149500Y-110121288D01*
X128181161Y-110361785D01*
X128243947Y-110596104D01*
X128309266Y-110753797D01*
X128336776Y-110820212D01*
X128458064Y-111030289D01*
X128458065Y-111030290D01*
X128458067Y-111030293D01*
X128605733Y-111222736D01*
X128605739Y-111222743D01*
X128777256Y-111394260D01*
X128777262Y-111394265D01*
X128969711Y-111541936D01*
X129179788Y-111663224D01*
X129403900Y-111756054D01*
X129638211Y-111818838D01*
X129818586Y-111842584D01*
X129878711Y-111850500D01*
X129878712Y-111850500D01*
X130121289Y-111850500D01*
X130169388Y-111844167D01*
X130361789Y-111818838D01*
X130596100Y-111756054D01*
X130820212Y-111663224D01*
X131030289Y-111541936D01*
X131222738Y-111394265D01*
X131394265Y-111222738D01*
X131525173Y-111052135D01*
X138329500Y-111052135D01*
X138329500Y-112947870D01*
X138329501Y-112947876D01*
X138335908Y-113007483D01*
X138386202Y-113142328D01*
X138386206Y-113142335D01*
X138472452Y-113257544D01*
X138472455Y-113257547D01*
X138587664Y-113343793D01*
X138587671Y-113343797D01*
X138722517Y-113394091D01*
X138722516Y-113394091D01*
X138729444Y-113394835D01*
X138782127Y-113400500D01*
X140677872Y-113400499D01*
X140737483Y-113394091D01*
X140872331Y-113343796D01*
X140987546Y-113257546D01*
X141073796Y-113142331D01*
X141101429Y-113068243D01*
X141103601Y-113062420D01*
X141145471Y-113006486D01*
X141210936Y-112982068D01*
X141279209Y-112996919D01*
X141307464Y-113018071D01*
X141357636Y-113068243D01*
X141357641Y-113068247D01*
X141483645Y-113159793D01*
X141535978Y-113197815D01*
X141664375Y-113263237D01*
X141732393Y-113297895D01*
X141732396Y-113297896D01*
X141791951Y-113317246D01*
X141942049Y-113366015D01*
X142159778Y-113400500D01*
X142159779Y-113400500D01*
X142380221Y-113400500D01*
X142380222Y-113400500D01*
X142597951Y-113366015D01*
X142807606Y-113297895D01*
X143004022Y-113197815D01*
X143182365Y-113068242D01*
X143338242Y-112912365D01*
X143467815Y-112734022D01*
X143567895Y-112537606D01*
X143636015Y-112327951D01*
X143670500Y-112110222D01*
X143670500Y-111889778D01*
X143636015Y-111672049D01*
X143593738Y-111541932D01*
X143567896Y-111462396D01*
X143567895Y-111462393D01*
X143533179Y-111394260D01*
X143467815Y-111265978D01*
X143436403Y-111222743D01*
X143338247Y-111087641D01*
X143338243Y-111087636D01*
X143182363Y-110931756D01*
X143182358Y-110931752D01*
X143004025Y-110802187D01*
X143004024Y-110802186D01*
X143004022Y-110802185D01*
X142941096Y-110770122D01*
X142807606Y-110702104D01*
X142807603Y-110702103D01*
X142597952Y-110633985D01*
X142478407Y-110615051D01*
X142380222Y-110599500D01*
X142159778Y-110599500D01*
X142087201Y-110610995D01*
X141942047Y-110633985D01*
X141732396Y-110702103D01*
X141732393Y-110702104D01*
X141535974Y-110802187D01*
X141357641Y-110931752D01*
X141357636Y-110931756D01*
X141307463Y-110981929D01*
X141246140Y-111015413D01*
X141176448Y-111010428D01*
X141120515Y-110968557D01*
X141103601Y-110937580D01*
X141073797Y-110857671D01*
X141073793Y-110857664D01*
X140987547Y-110742455D01*
X140987544Y-110742452D01*
X140872335Y-110656206D01*
X140872328Y-110656202D01*
X140737482Y-110605908D01*
X140737483Y-110605908D01*
X140677883Y-110599501D01*
X140677881Y-110599500D01*
X140677873Y-110599500D01*
X140677864Y-110599500D01*
X138782129Y-110599500D01*
X138782123Y-110599501D01*
X138722516Y-110605908D01*
X138587671Y-110656202D01*
X138587664Y-110656206D01*
X138472455Y-110742452D01*
X138472452Y-110742455D01*
X138386206Y-110857664D01*
X138386202Y-110857671D01*
X138335908Y-110992517D01*
X138329501Y-111052116D01*
X138329500Y-111052135D01*
X131525173Y-111052135D01*
X131541936Y-111030289D01*
X131663224Y-110820212D01*
X131756054Y-110596100D01*
X131818838Y-110361789D01*
X131850500Y-110121288D01*
X131850500Y-109878712D01*
X131818838Y-109638211D01*
X131756054Y-109403900D01*
X131663224Y-109179788D01*
X131541936Y-108969711D01*
X131394265Y-108777262D01*
X131394260Y-108777256D01*
X131222743Y-108605739D01*
X131222736Y-108605733D01*
X131030293Y-108458067D01*
X131030292Y-108458066D01*
X131030289Y-108458064D01*
X130820212Y-108336776D01*
X130820205Y-108336773D01*
X130596104Y-108243947D01*
X130361785Y-108181161D01*
X130121289Y-108149500D01*
X130121288Y-108149500D01*
X129878712Y-108149500D01*
X129878711Y-108149500D01*
X129638214Y-108181161D01*
X129403895Y-108243947D01*
X129179794Y-108336773D01*
X129179785Y-108336777D01*
X128969706Y-108458067D01*
X128777263Y-108605733D01*
X128777256Y-108605739D01*
X128605739Y-108777256D01*
X128605733Y-108777263D01*
X128458067Y-108969706D01*
X128336777Y-109179785D01*
X128336773Y-109179794D01*
X128243947Y-109403895D01*
X128181161Y-109638214D01*
X128149500Y-109878711D01*
X125600500Y-109878711D01*
X125600500Y-84589060D01*
X125600501Y-84589047D01*
X125600501Y-84420944D01*
X125559576Y-84268214D01*
X125559573Y-84268209D01*
X125480524Y-84131290D01*
X125480518Y-84131282D01*
X117837590Y-76488355D01*
X117837588Y-76488352D01*
X117718717Y-76369481D01*
X117718716Y-76369480D01*
X117631904Y-76319360D01*
X117631904Y-76319359D01*
X117631900Y-76319358D01*
X117581785Y-76290423D01*
X117429057Y-76249499D01*
X117270943Y-76249499D01*
X117263347Y-76249499D01*
X117263331Y-76249500D01*
X113839602Y-76249500D01*
X113772563Y-76229815D01*
X113729117Y-76181795D01*
X113722284Y-76168385D01*
X113601971Y-76002786D01*
X113457213Y-75858028D01*
X113291614Y-75737715D01*
X113254546Y-75718828D01*
X113198917Y-75690483D01*
X113148123Y-75642511D01*
X113131328Y-75574690D01*
X113153865Y-75508555D01*
X113198917Y-75469516D01*
X113291610Y-75422287D01*
X113315289Y-75405083D01*
X113457213Y-75301971D01*
X113457215Y-75301968D01*
X113457219Y-75301966D01*
X113601966Y-75157219D01*
X113601968Y-75157215D01*
X113601971Y-75157213D01*
X113722284Y-74991614D01*
X113722285Y-74991613D01*
X113722287Y-74991610D01*
X113729117Y-74978204D01*
X113777091Y-74927409D01*
X113839602Y-74910500D01*
X118942803Y-74910500D01*
X119009842Y-74930185D01*
X119030484Y-74946819D01*
X146363181Y-102279516D01*
X146396666Y-102340839D01*
X146399500Y-102367197D01*
X146399500Y-122920234D01*
X146379815Y-122987273D01*
X146378602Y-122989125D01*
X146290609Y-123120814D01*
X146290602Y-123120827D01*
X146230264Y-123266498D01*
X146230261Y-123266510D01*
X146199500Y-123421153D01*
X146199500Y-123578846D01*
X146230261Y-123733489D01*
X146230264Y-123733501D01*
X146290602Y-123879172D01*
X146290609Y-123879185D01*
X146378210Y-124010288D01*
X146378213Y-124010292D01*
X146489707Y-124121786D01*
X146489711Y-124121789D01*
X146620814Y-124209390D01*
X146620827Y-124209397D01*
X146766498Y-124269735D01*
X146766503Y-124269737D01*
X146921153Y-124300499D01*
X146921156Y-124300500D01*
X146921158Y-124300500D01*
X147078844Y-124300500D01*
X147078845Y-124300499D01*
X147233497Y-124269737D01*
X147379179Y-124209394D01*
X147510289Y-124121789D01*
X147621789Y-124010289D01*
X147709394Y-123879179D01*
X147769737Y-123733497D01*
X147800500Y-123578842D01*
X147800500Y-123421158D01*
X147800500Y-123421155D01*
X147800499Y-123421153D01*
X147769738Y-123266510D01*
X147769737Y-123266503D01*
X147769735Y-123266498D01*
X147709397Y-123120827D01*
X147709390Y-123120814D01*
X147621398Y-122989125D01*
X147600520Y-122922447D01*
X147600500Y-122920234D01*
X147600500Y-103249097D01*
X147620185Y-103182058D01*
X147672989Y-103136303D01*
X147742147Y-103126359D01*
X147805703Y-103155384D01*
X147812181Y-103161416D01*
X168165425Y-123514660D01*
X168198910Y-123575983D01*
X168199361Y-123578149D01*
X168230261Y-123733491D01*
X168230264Y-123733501D01*
X168290602Y-123879172D01*
X168290609Y-123879185D01*
X168378210Y-124010288D01*
X168378213Y-124010292D01*
X168489707Y-124121786D01*
X168489711Y-124121789D01*
X168620814Y-124209390D01*
X168620827Y-124209397D01*
X168766498Y-124269735D01*
X168766503Y-124269737D01*
X168921153Y-124300499D01*
X168921156Y-124300500D01*
X168921158Y-124300500D01*
X169078844Y-124300500D01*
X169078845Y-124300499D01*
X169233497Y-124269737D01*
X169379179Y-124209394D01*
X169510289Y-124121789D01*
X169621789Y-124010289D01*
X169709394Y-123879179D01*
X169769737Y-123733497D01*
X169800500Y-123578842D01*
X169800500Y-123421158D01*
X169800500Y-123421155D01*
X169800499Y-123421153D01*
X169769738Y-123266510D01*
X169769737Y-123266503D01*
X169769735Y-123266498D01*
X169709397Y-123120827D01*
X169709390Y-123120814D01*
X169621789Y-122989711D01*
X169621786Y-122989707D01*
X169510292Y-122878213D01*
X169510288Y-122878210D01*
X169379185Y-122790609D01*
X169379172Y-122790602D01*
X169233501Y-122730264D01*
X169233491Y-122730261D01*
X169078151Y-122699362D01*
X169016241Y-122666977D01*
X169014662Y-122665426D01*
X157485723Y-111136487D01*
X157401371Y-111052135D01*
X160329500Y-111052135D01*
X160329500Y-112947870D01*
X160329501Y-112947876D01*
X160335908Y-113007483D01*
X160386202Y-113142328D01*
X160386206Y-113142335D01*
X160472452Y-113257544D01*
X160472455Y-113257547D01*
X160587664Y-113343793D01*
X160587671Y-113343797D01*
X160722517Y-113394091D01*
X160722516Y-113394091D01*
X160729444Y-113394835D01*
X160782127Y-113400500D01*
X162677872Y-113400499D01*
X162737483Y-113394091D01*
X162872331Y-113343796D01*
X162987546Y-113257546D01*
X163073796Y-113142331D01*
X163101429Y-113068243D01*
X163103601Y-113062420D01*
X163145471Y-113006486D01*
X163210936Y-112982068D01*
X163279209Y-112996919D01*
X163307464Y-113018071D01*
X163357636Y-113068243D01*
X163357641Y-113068247D01*
X163483645Y-113159793D01*
X163535978Y-113197815D01*
X163664375Y-113263237D01*
X163732393Y-113297895D01*
X163732396Y-113297896D01*
X163791951Y-113317246D01*
X163942049Y-113366015D01*
X164159778Y-113400500D01*
X164159779Y-113400500D01*
X164380221Y-113400500D01*
X164380222Y-113400500D01*
X164597951Y-113366015D01*
X164807606Y-113297895D01*
X165004022Y-113197815D01*
X165182365Y-113068242D01*
X165338242Y-112912365D01*
X165467815Y-112734022D01*
X165567895Y-112537606D01*
X165636015Y-112327951D01*
X165670500Y-112110222D01*
X165670500Y-111889778D01*
X165636015Y-111672049D01*
X165593738Y-111541932D01*
X165567896Y-111462396D01*
X165567895Y-111462393D01*
X165533179Y-111394260D01*
X165467815Y-111265978D01*
X165436403Y-111222743D01*
X165338247Y-111087641D01*
X165338243Y-111087636D01*
X165182363Y-110931756D01*
X165182358Y-110931752D01*
X165004025Y-110802187D01*
X165004024Y-110802186D01*
X165004022Y-110802185D01*
X164941096Y-110770122D01*
X164807606Y-110702104D01*
X164807603Y-110702103D01*
X164597952Y-110633985D01*
X164478407Y-110615051D01*
X164380222Y-110599500D01*
X164159778Y-110599500D01*
X164087201Y-110610995D01*
X163942047Y-110633985D01*
X163732396Y-110702103D01*
X163732393Y-110702104D01*
X163535974Y-110802187D01*
X163357641Y-110931752D01*
X163357636Y-110931756D01*
X163307463Y-110981929D01*
X163246140Y-111015413D01*
X163176448Y-111010428D01*
X163120515Y-110968557D01*
X163103601Y-110937580D01*
X163073797Y-110857671D01*
X163073793Y-110857664D01*
X162987547Y-110742455D01*
X162987544Y-110742452D01*
X162872335Y-110656206D01*
X162872328Y-110656202D01*
X162737482Y-110605908D01*
X162737483Y-110605908D01*
X162677883Y-110599501D01*
X162677881Y-110599500D01*
X162677873Y-110599500D01*
X162677864Y-110599500D01*
X160782129Y-110599500D01*
X160782123Y-110599501D01*
X160722516Y-110605908D01*
X160587671Y-110656202D01*
X160587664Y-110656206D01*
X160472455Y-110742452D01*
X160472452Y-110742455D01*
X160386206Y-110857664D01*
X160386202Y-110857671D01*
X160335908Y-110992517D01*
X160329501Y-111052116D01*
X160329500Y-111052135D01*
X157401371Y-111052135D01*
X147705211Y-101355975D01*
X137719677Y-91370441D01*
X145099500Y-91370441D01*
X145099500Y-91619558D01*
X145099501Y-91619575D01*
X145132017Y-91866561D01*
X145196498Y-92107207D01*
X145291830Y-92337361D01*
X145291837Y-92337376D01*
X145416400Y-92553126D01*
X145568060Y-92750774D01*
X145568066Y-92750781D01*
X145744218Y-92926933D01*
X145744225Y-92926939D01*
X145941873Y-93078599D01*
X146157623Y-93203162D01*
X146157638Y-93203169D01*
X146256825Y-93244253D01*
X146387793Y-93298502D01*
X146628435Y-93362982D01*
X146875435Y-93395500D01*
X146875442Y-93395500D01*
X147124558Y-93395500D01*
X147124565Y-93395500D01*
X147371565Y-93362982D01*
X147612207Y-93298502D01*
X147842373Y-93203164D01*
X148058127Y-93078599D01*
X148255776Y-92926938D01*
X148431938Y-92750776D01*
X148583599Y-92553127D01*
X148708164Y-92337373D01*
X148803502Y-92107207D01*
X148867982Y-91866565D01*
X148900500Y-91619565D01*
X148900500Y-91370435D01*
X148867982Y-91123435D01*
X148803502Y-90882793D01*
X148730912Y-90707546D01*
X148708169Y-90652638D01*
X148708166Y-90652632D01*
X148708164Y-90652627D01*
X148673355Y-90592335D01*
X148623399Y-90505807D01*
X148623398Y-90505806D01*
X148589524Y-90447135D01*
X172664500Y-90447135D01*
X172664500Y-92542870D01*
X172664501Y-92542876D01*
X172670908Y-92602483D01*
X172721202Y-92737328D01*
X172721206Y-92737335D01*
X172807452Y-92852544D01*
X172807455Y-92852547D01*
X172922664Y-92938793D01*
X172922671Y-92938797D01*
X173057517Y-92989091D01*
X173057516Y-92989091D01*
X173064444Y-92989835D01*
X173117127Y-92995500D01*
X175212872Y-92995499D01*
X175272483Y-92989091D01*
X175407331Y-92938796D01*
X175522546Y-92852546D01*
X175608796Y-92737331D01*
X175659091Y-92602483D01*
X175665500Y-92542873D01*
X175665499Y-90447128D01*
X175659091Y-90387517D01*
X175645700Y-90351615D01*
X175608797Y-90252671D01*
X175608793Y-90252664D01*
X175522547Y-90137455D01*
X175522544Y-90137452D01*
X175407335Y-90051206D01*
X175407328Y-90051202D01*
X175272482Y-90000908D01*
X175272483Y-90000908D01*
X175212883Y-89994501D01*
X175212881Y-89994500D01*
X175212873Y-89994500D01*
X175212864Y-89994500D01*
X173117129Y-89994500D01*
X173117123Y-89994501D01*
X173057516Y-90000908D01*
X172922671Y-90051202D01*
X172922664Y-90051206D01*
X172807455Y-90137452D01*
X172807452Y-90137455D01*
X172721206Y-90252664D01*
X172721202Y-90252671D01*
X172670908Y-90387517D01*
X172669794Y-90397883D01*
X172664501Y-90447123D01*
X172664500Y-90447135D01*
X148589524Y-90447135D01*
X148583599Y-90436873D01*
X148431939Y-90239225D01*
X148431933Y-90239218D01*
X148255781Y-90063066D01*
X148255774Y-90063060D01*
X148058126Y-89911400D01*
X147842376Y-89786837D01*
X147842361Y-89786830D01*
X147612207Y-89691498D01*
X147371565Y-89627018D01*
X147371564Y-89627017D01*
X147371561Y-89627017D01*
X147124575Y-89594501D01*
X147124570Y-89594500D01*
X147124565Y-89594500D01*
X146875435Y-89594500D01*
X146875429Y-89594500D01*
X146875424Y-89594501D01*
X146628438Y-89627017D01*
X146387792Y-89691498D01*
X146157638Y-89786830D01*
X146157623Y-89786837D01*
X145941873Y-89911400D01*
X145744225Y-90063060D01*
X145744218Y-90063066D01*
X145568066Y-90239218D01*
X145568060Y-90239225D01*
X145416400Y-90436873D01*
X145291837Y-90652623D01*
X145291830Y-90652638D01*
X145196498Y-90882792D01*
X145132017Y-91123438D01*
X145099501Y-91370424D01*
X145099500Y-91370441D01*
X137719677Y-91370441D01*
X122729676Y-76380441D01*
X145099500Y-76380441D01*
X145099500Y-76629558D01*
X145099501Y-76629575D01*
X145132017Y-76876561D01*
X145196498Y-77117207D01*
X145291830Y-77347361D01*
X145291837Y-77347376D01*
X145416400Y-77563126D01*
X145568060Y-77760774D01*
X145568066Y-77760781D01*
X145744218Y-77936933D01*
X145744225Y-77936939D01*
X145941873Y-78088599D01*
X146157623Y-78213162D01*
X146157638Y-78213169D01*
X146256825Y-78254253D01*
X146387793Y-78308502D01*
X146628435Y-78372982D01*
X146875435Y-78405500D01*
X146875442Y-78405500D01*
X147124558Y-78405500D01*
X147124565Y-78405500D01*
X147371565Y-78372982D01*
X147612207Y-78308502D01*
X147842373Y-78213164D01*
X148058127Y-78088599D01*
X148255776Y-77936938D01*
X148431938Y-77760776D01*
X148583599Y-77563127D01*
X148708164Y-77347373D01*
X148803502Y-77117207D01*
X148867982Y-76876565D01*
X148900500Y-76629565D01*
X148900500Y-76386947D01*
X172665000Y-76386947D01*
X172665000Y-76623052D01*
X172701934Y-76856247D01*
X172774897Y-77080802D01*
X172882087Y-77291174D01*
X172942338Y-77374104D01*
X172942340Y-77374105D01*
X173673871Y-76642574D01*
X173689755Y-76701853D01*
X173756898Y-76818147D01*
X173851853Y-76913102D01*
X173968147Y-76980245D01*
X174027425Y-76996128D01*
X173295893Y-77727658D01*
X173378828Y-77787914D01*
X173589197Y-77895102D01*
X173813752Y-77968065D01*
X173813751Y-77968065D01*
X174046948Y-78005000D01*
X174283052Y-78005000D01*
X174516247Y-77968065D01*
X174740802Y-77895102D01*
X174951163Y-77787918D01*
X174951169Y-77787914D01*
X175034104Y-77727658D01*
X175034105Y-77727658D01*
X174302574Y-76996128D01*
X174361853Y-76980245D01*
X174478147Y-76913102D01*
X174573102Y-76818147D01*
X174640245Y-76701853D01*
X174656128Y-76642574D01*
X175387658Y-77374105D01*
X175387658Y-77374104D01*
X175447914Y-77291169D01*
X175447918Y-77291163D01*
X175555102Y-77080802D01*
X175628065Y-76856247D01*
X175665000Y-76623052D01*
X175665000Y-76386947D01*
X175628065Y-76153752D01*
X175555102Y-75929197D01*
X175447914Y-75718828D01*
X175387658Y-75635894D01*
X175387658Y-75635893D01*
X174656128Y-76367424D01*
X174640245Y-76308147D01*
X174573102Y-76191853D01*
X174478147Y-76096898D01*
X174361853Y-76029755D01*
X174302574Y-76013871D01*
X175034105Y-75282340D01*
X175034104Y-75282338D01*
X174951174Y-75222087D01*
X174740802Y-75114897D01*
X174516247Y-75041934D01*
X174516248Y-75041934D01*
X174283052Y-75005000D01*
X174046948Y-75005000D01*
X173813752Y-75041934D01*
X173589197Y-75114897D01*
X173378830Y-75222084D01*
X173295894Y-75282340D01*
X174027425Y-76013871D01*
X173968147Y-76029755D01*
X173851853Y-76096898D01*
X173756898Y-76191853D01*
X173689755Y-76308147D01*
X173673871Y-76367425D01*
X172942340Y-75635894D01*
X172882084Y-75718830D01*
X172774897Y-75929197D01*
X172701934Y-76153752D01*
X172665000Y-76386947D01*
X148900500Y-76386947D01*
X148900500Y-76380435D01*
X148867982Y-76133435D01*
X148803502Y-75892793D01*
X148708164Y-75662627D01*
X148692730Y-75635894D01*
X148583602Y-75446877D01*
X148583599Y-75446873D01*
X148551533Y-75405084D01*
X148551533Y-75405083D01*
X148431939Y-75249225D01*
X148431933Y-75249218D01*
X148255781Y-75073066D01*
X148255774Y-75073060D01*
X148058126Y-74921400D01*
X147842376Y-74796837D01*
X147842361Y-74796830D01*
X147612207Y-74701498D01*
X147371561Y-74637017D01*
X147124575Y-74604501D01*
X147124570Y-74604500D01*
X147124565Y-74604500D01*
X146875435Y-74604500D01*
X146875429Y-74604500D01*
X146875424Y-74604501D01*
X146628438Y-74637017D01*
X146387792Y-74701498D01*
X146157638Y-74796830D01*
X146157623Y-74796837D01*
X145941873Y-74921400D01*
X145744225Y-75073060D01*
X145744218Y-75073066D01*
X145568066Y-75249218D01*
X145568060Y-75249225D01*
X145416400Y-75446873D01*
X145291837Y-75662623D01*
X145291830Y-75662638D01*
X145196498Y-75892792D01*
X145132017Y-76133438D01*
X145099501Y-76380424D01*
X145099500Y-76380441D01*
X122729676Y-76380441D01*
X117757589Y-71408354D01*
X117757588Y-71408352D01*
X117638717Y-71289481D01*
X117638716Y-71289480D01*
X117551904Y-71239360D01*
X117551904Y-71239359D01*
X117551900Y-71239358D01*
X117501785Y-71210423D01*
X117349057Y-71169499D01*
X117190943Y-71169499D01*
X117183347Y-71169499D01*
X117183331Y-71169500D01*
X113839602Y-71169500D01*
X113772563Y-71149815D01*
X113729117Y-71101795D01*
X113722284Y-71088385D01*
X113601971Y-70922786D01*
X113457213Y-70778028D01*
X113291614Y-70657715D01*
X113285006Y-70654348D01*
X113198917Y-70610483D01*
X113148123Y-70562511D01*
X113131328Y-70494690D01*
X113153865Y-70428555D01*
X113198917Y-70389516D01*
X113291610Y-70342287D01*
X113312770Y-70326913D01*
X113457213Y-70221971D01*
X113457215Y-70221968D01*
X113457219Y-70221966D01*
X113601966Y-70077219D01*
X113601968Y-70077215D01*
X113601971Y-70077213D01*
X113654732Y-70004590D01*
X113722287Y-69911610D01*
X113815220Y-69729219D01*
X113878477Y-69534534D01*
X113910500Y-69332352D01*
X113910500Y-69127648D01*
X113878477Y-68925466D01*
X113815220Y-68730781D01*
X113815218Y-68730778D01*
X113815218Y-68730776D01*
X113749114Y-68601041D01*
X113722287Y-68548390D01*
X113701661Y-68520000D01*
X113601971Y-68382786D01*
X113457213Y-68238028D01*
X113291614Y-68117715D01*
X113285006Y-68114348D01*
X113198917Y-68070483D01*
X113148123Y-68022511D01*
X113131328Y-67954690D01*
X113153865Y-67888555D01*
X113198917Y-67849516D01*
X113291610Y-67802287D01*
X113312770Y-67786913D01*
X113457213Y-67681971D01*
X113457215Y-67681968D01*
X113457219Y-67681966D01*
X113601966Y-67537219D01*
X113601968Y-67537215D01*
X113601971Y-67537213D01*
X113677690Y-67432993D01*
X113722287Y-67371610D01*
X113815220Y-67189219D01*
X113878477Y-66994534D01*
X113910500Y-66792352D01*
X113910500Y-66587648D01*
X113878477Y-66385466D01*
X113855196Y-66313817D01*
X113853201Y-66243978D01*
X113889281Y-66184145D01*
X113951982Y-66153316D01*
X113973128Y-66151500D01*
X170538770Y-66151500D01*
X170605809Y-66171185D01*
X170626451Y-66187819D01*
X171253927Y-66815295D01*
X171280807Y-66855523D01*
X171290604Y-66879175D01*
X171290609Y-66879185D01*
X171378210Y-67010288D01*
X171378213Y-67010292D01*
X171489707Y-67121786D01*
X171489711Y-67121789D01*
X171620814Y-67209390D01*
X171620827Y-67209397D01*
X171694713Y-67240001D01*
X171766503Y-67269737D01*
X171921153Y-67300499D01*
X171921156Y-67300500D01*
X171921158Y-67300500D01*
X172078844Y-67300500D01*
X172078845Y-67300499D01*
X172233497Y-67269737D01*
X172379179Y-67209394D01*
X172510289Y-67121789D01*
X172621789Y-67010289D01*
X172709394Y-66879179D01*
X172769737Y-66733497D01*
X172800500Y-66578842D01*
X172800500Y-66421158D01*
X172800500Y-66421155D01*
X172800499Y-66421153D01*
X172769738Y-66266510D01*
X172769737Y-66266503D01*
X172749510Y-66217671D01*
X172709397Y-66120827D01*
X172709390Y-66120814D01*
X172621789Y-65989711D01*
X172621786Y-65989707D01*
X172510292Y-65878213D01*
X172510288Y-65878210D01*
X172379185Y-65790609D01*
X172379175Y-65790604D01*
X172355523Y-65780807D01*
X172315295Y-65753927D01*
X171379421Y-64818052D01*
X171379414Y-64818046D01*
X171305729Y-64768812D01*
X171305729Y-64768813D01*
X171256491Y-64735913D01*
X171119917Y-64679343D01*
X171119907Y-64679340D01*
X170974920Y-64650500D01*
X170974918Y-64650500D01*
X113985476Y-64650500D01*
X113918437Y-64630815D01*
X113872682Y-64578011D01*
X113862738Y-64508853D01*
X113867545Y-64488183D01*
X113878475Y-64454542D01*
X113878475Y-64454538D01*
X113878477Y-64454534D01*
X113910500Y-64252352D01*
X113910500Y-64047648D01*
X113878477Y-63845466D01*
X113815220Y-63650781D01*
X113815218Y-63650778D01*
X113815218Y-63650776D01*
X113723801Y-63471361D01*
X113722285Y-63468386D01*
X113687969Y-63421153D01*
X125699500Y-63421153D01*
X125699500Y-63578846D01*
X125730261Y-63733489D01*
X125730264Y-63733501D01*
X125790602Y-63879172D01*
X125790609Y-63879185D01*
X125878210Y-64010288D01*
X125878213Y-64010292D01*
X125989707Y-64121786D01*
X125989711Y-64121789D01*
X126120814Y-64209390D01*
X126120827Y-64209397D01*
X126266498Y-64269735D01*
X126266503Y-64269737D01*
X126421153Y-64300499D01*
X126421156Y-64300500D01*
X126421158Y-64300500D01*
X126578844Y-64300500D01*
X126578845Y-64300499D01*
X126733497Y-64269737D01*
X126879179Y-64209394D01*
X126879185Y-64209390D01*
X127010875Y-64121398D01*
X127077553Y-64100520D01*
X127079766Y-64100500D01*
X149420234Y-64100500D01*
X149487273Y-64120185D01*
X149489125Y-64121398D01*
X149620814Y-64209390D01*
X149620827Y-64209397D01*
X149766498Y-64269735D01*
X149766503Y-64269737D01*
X149921153Y-64300499D01*
X149921156Y-64300500D01*
X149921158Y-64300500D01*
X150078844Y-64300500D01*
X150078845Y-64300499D01*
X150233497Y-64269737D01*
X150379179Y-64209394D01*
X150510289Y-64121789D01*
X150621789Y-64010289D01*
X150709394Y-63879179D01*
X150769737Y-63733497D01*
X150800500Y-63578842D01*
X150800500Y-63421158D01*
X150800500Y-63421155D01*
X150800499Y-63421153D01*
X150769738Y-63266510D01*
X150769737Y-63266503D01*
X150749113Y-63216711D01*
X150709397Y-63120827D01*
X150709390Y-63120814D01*
X150621789Y-62989711D01*
X150621786Y-62989707D01*
X150510292Y-62878213D01*
X150510288Y-62878210D01*
X150379185Y-62790609D01*
X150379172Y-62790602D01*
X150233501Y-62730264D01*
X150233489Y-62730261D01*
X150078845Y-62699500D01*
X150078842Y-62699500D01*
X149921158Y-62699500D01*
X149921155Y-62699500D01*
X149766510Y-62730261D01*
X149766498Y-62730264D01*
X149620827Y-62790602D01*
X149620814Y-62790609D01*
X149489125Y-62878602D01*
X149422447Y-62899480D01*
X149420234Y-62899500D01*
X127079766Y-62899500D01*
X127012727Y-62879815D01*
X127010875Y-62878602D01*
X126879185Y-62790609D01*
X126879172Y-62790602D01*
X126733501Y-62730264D01*
X126733489Y-62730261D01*
X126578845Y-62699500D01*
X126578842Y-62699500D01*
X126421158Y-62699500D01*
X126421155Y-62699500D01*
X126266510Y-62730261D01*
X126266498Y-62730264D01*
X126120827Y-62790602D01*
X126120814Y-62790609D01*
X125989711Y-62878210D01*
X125989707Y-62878213D01*
X125878213Y-62989707D01*
X125878210Y-62989711D01*
X125790609Y-63120814D01*
X125790602Y-63120827D01*
X125730264Y-63266498D01*
X125730261Y-63266510D01*
X125699500Y-63421153D01*
X113687969Y-63421153D01*
X113601971Y-63302786D01*
X113457213Y-63158028D01*
X113291614Y-63037715D01*
X113285006Y-63034348D01*
X113198917Y-62990483D01*
X113148123Y-62942511D01*
X113131328Y-62874690D01*
X113153865Y-62808555D01*
X113198917Y-62769516D01*
X113291610Y-62722287D01*
X113322974Y-62699500D01*
X113457213Y-62601971D01*
X113457215Y-62601968D01*
X113457219Y-62601966D01*
X113601966Y-62457219D01*
X113601968Y-62457215D01*
X113601971Y-62457213D01*
X113686561Y-62340783D01*
X113722287Y-62291610D01*
X113815220Y-62109219D01*
X113878477Y-61914534D01*
X113910500Y-61712352D01*
X113910500Y-61507648D01*
X113878477Y-61305466D01*
X113815220Y-61110781D01*
X113815218Y-61110778D01*
X113815218Y-61110776D01*
X113781503Y-61044607D01*
X113722287Y-60928390D01*
X113714556Y-60917749D01*
X113601971Y-60762786D01*
X113457213Y-60618028D01*
X113291614Y-60497715D01*
X113285006Y-60494348D01*
X113198917Y-60450483D01*
X113148123Y-60402511D01*
X113131328Y-60334690D01*
X113153865Y-60268555D01*
X113198917Y-60229516D01*
X113291610Y-60182287D01*
X113312770Y-60166913D01*
X113457213Y-60061971D01*
X113457215Y-60061968D01*
X113457219Y-60061966D01*
X113601966Y-59917219D01*
X113601968Y-59917215D01*
X113601971Y-59917213D01*
X113658673Y-59839168D01*
X113722287Y-59751610D01*
X113815220Y-59569219D01*
X113878477Y-59374534D01*
X113892269Y-59287454D01*
X113895861Y-59264778D01*
X117329500Y-59264778D01*
X117329500Y-59485222D01*
X117342928Y-59570000D01*
X117363985Y-59702952D01*
X117432103Y-59912603D01*
X117432104Y-59912606D01*
X117532187Y-60109025D01*
X117661752Y-60287358D01*
X117661756Y-60287363D01*
X117817636Y-60443243D01*
X117817641Y-60443247D01*
X117892608Y-60497713D01*
X117995978Y-60572815D01*
X118124375Y-60638237D01*
X118192393Y-60672895D01*
X118192396Y-60672896D01*
X118297221Y-60706955D01*
X118402049Y-60741015D01*
X118619778Y-60775500D01*
X118619779Y-60775500D01*
X118840221Y-60775500D01*
X118840222Y-60775500D01*
X119057951Y-60741015D01*
X119267606Y-60672895D01*
X119464022Y-60572815D01*
X119642365Y-60443242D01*
X119692536Y-60393070D01*
X119753857Y-60359586D01*
X119823548Y-60364570D01*
X119879482Y-60406441D01*
X119896398Y-60437419D01*
X119926202Y-60517328D01*
X119926206Y-60517335D01*
X120012452Y-60632544D01*
X120012455Y-60632547D01*
X120127664Y-60718793D01*
X120127671Y-60718797D01*
X120262517Y-60769091D01*
X120262516Y-60769091D01*
X120269444Y-60769835D01*
X120322127Y-60775500D01*
X122217872Y-60775499D01*
X122277483Y-60769091D01*
X122412331Y-60718796D01*
X122527546Y-60632546D01*
X122613796Y-60517331D01*
X122664091Y-60382483D01*
X122670500Y-60322873D01*
X122670500Y-60205513D01*
X136099500Y-60205513D01*
X136099500Y-60994486D01*
X136129059Y-61181118D01*
X136187454Y-61360836D01*
X136210369Y-61405808D01*
X136273240Y-61529199D01*
X136384310Y-61682073D01*
X136517927Y-61815690D01*
X136670801Y-61926760D01*
X136750347Y-61967290D01*
X136839163Y-62012545D01*
X136839165Y-62012545D01*
X136839168Y-62012547D01*
X136882908Y-62026759D01*
X137018881Y-62070940D01*
X137205514Y-62100500D01*
X137205519Y-62100500D01*
X137394486Y-62100500D01*
X137581118Y-62070940D01*
X137760832Y-62012547D01*
X137929199Y-61926760D01*
X138082073Y-61815690D01*
X138215690Y-61682073D01*
X138326760Y-61529199D01*
X138412547Y-61360832D01*
X138470940Y-61181118D01*
X138491182Y-61053314D01*
X138500500Y-60994486D01*
X138500500Y-60305513D01*
X140799500Y-60305513D01*
X140799500Y-61094486D01*
X140829059Y-61281118D01*
X140887454Y-61460836D01*
X140942501Y-61568870D01*
X140973240Y-61629199D01*
X141084310Y-61782073D01*
X141217927Y-61915690D01*
X141370801Y-62026760D01*
X141450347Y-62067290D01*
X141539163Y-62112545D01*
X141539165Y-62112545D01*
X141539168Y-62112547D01*
X141621246Y-62139216D01*
X141718881Y-62170940D01*
X141905514Y-62200500D01*
X141905519Y-62200500D01*
X142094486Y-62200500D01*
X142281118Y-62170940D01*
X142460832Y-62112547D01*
X142629199Y-62026760D01*
X142782073Y-61915690D01*
X142915690Y-61782073D01*
X143026760Y-61629199D01*
X143112547Y-61460832D01*
X143170940Y-61281118D01*
X143200500Y-61094486D01*
X143200500Y-60305513D01*
X143186963Y-60220045D01*
X143184661Y-60205513D01*
X145499500Y-60205513D01*
X145499500Y-60994486D01*
X145529059Y-61181118D01*
X145587454Y-61360836D01*
X145610369Y-61405808D01*
X145673240Y-61529199D01*
X145784310Y-61682073D01*
X145917927Y-61815690D01*
X146070801Y-61926760D01*
X146150347Y-61967290D01*
X146239163Y-62012545D01*
X146239165Y-62012545D01*
X146239168Y-62012547D01*
X146282908Y-62026759D01*
X146418881Y-62070940D01*
X146605514Y-62100500D01*
X146605519Y-62100500D01*
X146794486Y-62100500D01*
X146981118Y-62070940D01*
X147160832Y-62012547D01*
X147329199Y-61926760D01*
X147482073Y-61815690D01*
X147615690Y-61682073D01*
X147726760Y-61529199D01*
X147812547Y-61360832D01*
X147870940Y-61181118D01*
X147891182Y-61053314D01*
X147900500Y-60994486D01*
X147900500Y-60205513D01*
X147870940Y-60018881D01*
X147837907Y-59917219D01*
X147812547Y-59839168D01*
X147812545Y-59839165D01*
X147812545Y-59839163D01*
X147767290Y-59750347D01*
X147726760Y-59670801D01*
X147615690Y-59517927D01*
X147482073Y-59384310D01*
X147329199Y-59273240D01*
X147160836Y-59187454D01*
X146981118Y-59129059D01*
X146794486Y-59099500D01*
X146794481Y-59099500D01*
X146605519Y-59099500D01*
X146605514Y-59099500D01*
X146418881Y-59129059D01*
X146239163Y-59187454D01*
X146070800Y-59273240D01*
X145983579Y-59336610D01*
X145917927Y-59384310D01*
X145917925Y-59384312D01*
X145917924Y-59384312D01*
X145784312Y-59517924D01*
X145784312Y-59517925D01*
X145784310Y-59517927D01*
X145771234Y-59535925D01*
X145673240Y-59670800D01*
X145587454Y-59839163D01*
X145529059Y-60018881D01*
X145499500Y-60205513D01*
X143184661Y-60205513D01*
X143170940Y-60118881D01*
X143112545Y-59939163D01*
X143026759Y-59770800D01*
X143012819Y-59751613D01*
X142915690Y-59617927D01*
X142782073Y-59484310D01*
X142629199Y-59373240D01*
X142460836Y-59287454D01*
X142281118Y-59229059D01*
X142094486Y-59199500D01*
X142094481Y-59199500D01*
X141905519Y-59199500D01*
X141905514Y-59199500D01*
X141718881Y-59229059D01*
X141539163Y-59287454D01*
X141370800Y-59373240D01*
X141283579Y-59436610D01*
X141217927Y-59484310D01*
X141217925Y-59484312D01*
X141217924Y-59484312D01*
X141084312Y-59617924D01*
X141084312Y-59617925D01*
X141084310Y-59617927D01*
X141045895Y-59670800D01*
X140973240Y-59770800D01*
X140887454Y-59939163D01*
X140829059Y-60118881D01*
X140799500Y-60305513D01*
X138500500Y-60305513D01*
X138500500Y-60205513D01*
X138470940Y-60018881D01*
X138437907Y-59917219D01*
X138412547Y-59839168D01*
X138412545Y-59839165D01*
X138412545Y-59839163D01*
X138367290Y-59750347D01*
X138326760Y-59670801D01*
X138215690Y-59517927D01*
X138082073Y-59384310D01*
X137929199Y-59273240D01*
X137760836Y-59187454D01*
X137581118Y-59129059D01*
X137394486Y-59099500D01*
X137394481Y-59099500D01*
X137205519Y-59099500D01*
X137205514Y-59099500D01*
X137018881Y-59129059D01*
X136839163Y-59187454D01*
X136670800Y-59273240D01*
X136583579Y-59336610D01*
X136517927Y-59384310D01*
X136517925Y-59384312D01*
X136517924Y-59384312D01*
X136384312Y-59517924D01*
X136384312Y-59517925D01*
X136384310Y-59517927D01*
X136371234Y-59535925D01*
X136273240Y-59670800D01*
X136187454Y-59839163D01*
X136129059Y-60018881D01*
X136099500Y-60205513D01*
X122670500Y-60205513D01*
X122670499Y-59374534D01*
X122670499Y-58427129D01*
X122670498Y-58427123D01*
X122664091Y-58367516D01*
X122613797Y-58232671D01*
X122613793Y-58232664D01*
X122527547Y-58117455D01*
X122527544Y-58117452D01*
X122412335Y-58031206D01*
X122412328Y-58031202D01*
X122277482Y-57980908D01*
X122277483Y-57980908D01*
X122217883Y-57974501D01*
X122217881Y-57974500D01*
X122217873Y-57974500D01*
X122217864Y-57974500D01*
X120322129Y-57974500D01*
X120322123Y-57974501D01*
X120262516Y-57980908D01*
X120127671Y-58031202D01*
X120127664Y-58031206D01*
X120012455Y-58117452D01*
X120012452Y-58117455D01*
X119926206Y-58232664D01*
X119926203Y-58232669D01*
X119896398Y-58312581D01*
X119854526Y-58368514D01*
X119789062Y-58392931D01*
X119720789Y-58378079D01*
X119692535Y-58356928D01*
X119642363Y-58306756D01*
X119642358Y-58306752D01*
X119464025Y-58177187D01*
X119464024Y-58177186D01*
X119464022Y-58177185D01*
X119346791Y-58117452D01*
X119267606Y-58077104D01*
X119267603Y-58077103D01*
X119057952Y-58008985D01*
X118949086Y-57991742D01*
X118840222Y-57974500D01*
X118619778Y-57974500D01*
X118547201Y-57985995D01*
X118402047Y-58008985D01*
X118192396Y-58077103D01*
X118192393Y-58077104D01*
X117995974Y-58177187D01*
X117817641Y-58306752D01*
X117817636Y-58306756D01*
X117661756Y-58462636D01*
X117661752Y-58462641D01*
X117532187Y-58640974D01*
X117432104Y-58837393D01*
X117432103Y-58837396D01*
X117363985Y-59047047D01*
X117349924Y-59135826D01*
X117329500Y-59264778D01*
X113895861Y-59264778D01*
X113899705Y-59240508D01*
X113910500Y-59172351D01*
X113910500Y-58967648D01*
X113878477Y-58765465D01*
X113815218Y-58570776D01*
X113781503Y-58504607D01*
X113722287Y-58388390D01*
X113699429Y-58356928D01*
X113601971Y-58222786D01*
X113457213Y-58078028D01*
X113291614Y-57957715D01*
X113285006Y-57954348D01*
X113198917Y-57910483D01*
X113148123Y-57862511D01*
X113131328Y-57794690D01*
X113153865Y-57728555D01*
X113198917Y-57689516D01*
X113291610Y-57642287D01*
X113312770Y-57626913D01*
X113457213Y-57521971D01*
X113457215Y-57521968D01*
X113457219Y-57521966D01*
X113601966Y-57377219D01*
X113601968Y-57377215D01*
X113601971Y-57377213D01*
X113654732Y-57304590D01*
X113722287Y-57211610D01*
X113815220Y-57029219D01*
X113878477Y-56834534D01*
X113910500Y-56632352D01*
X113910500Y-56427648D01*
X113878477Y-56225466D01*
X113877592Y-56222743D01*
X113815218Y-56030776D01*
X113781503Y-55964607D01*
X113722287Y-55848390D01*
X113701810Y-55820205D01*
X113601971Y-55682786D01*
X113457213Y-55538028D01*
X113291614Y-55417715D01*
X113285006Y-55414348D01*
X113198917Y-55370483D01*
X113148123Y-55322511D01*
X113131328Y-55254690D01*
X113153865Y-55188555D01*
X113198917Y-55149516D01*
X113291610Y-55102287D01*
X113428673Y-55002706D01*
X113457213Y-54981971D01*
X113457215Y-54981968D01*
X113457219Y-54981966D01*
X113560474Y-54878711D01*
X128149500Y-54878711D01*
X128149500Y-55121288D01*
X128181161Y-55361785D01*
X128243947Y-55596104D01*
X128279850Y-55682781D01*
X128336776Y-55820212D01*
X128458064Y-56030289D01*
X128458066Y-56030292D01*
X128458067Y-56030293D01*
X128605733Y-56222736D01*
X128605739Y-56222743D01*
X128777256Y-56394260D01*
X128777263Y-56394266D01*
X128890321Y-56481018D01*
X128969711Y-56541936D01*
X129179788Y-56663224D01*
X129403900Y-56756054D01*
X129638211Y-56818838D01*
X129818586Y-56842584D01*
X129878711Y-56850500D01*
X129878712Y-56850500D01*
X130121289Y-56850500D01*
X130169388Y-56844167D01*
X130361789Y-56818838D01*
X130596100Y-56756054D01*
X130820212Y-56663224D01*
X131030289Y-56541936D01*
X131222738Y-56394265D01*
X131394265Y-56222738D01*
X131541936Y-56030289D01*
X131663224Y-55820212D01*
X131756054Y-55596100D01*
X131818838Y-55361789D01*
X131850500Y-55121288D01*
X131850500Y-54878712D01*
X131850500Y-54878711D01*
X173149500Y-54878711D01*
X173149500Y-55121288D01*
X173181161Y-55361785D01*
X173243947Y-55596104D01*
X173279850Y-55682781D01*
X173336776Y-55820212D01*
X173458064Y-56030289D01*
X173458066Y-56030292D01*
X173458067Y-56030293D01*
X173605733Y-56222736D01*
X173605739Y-56222743D01*
X173777256Y-56394260D01*
X173777263Y-56394266D01*
X173890321Y-56481018D01*
X173969711Y-56541936D01*
X174179788Y-56663224D01*
X174403900Y-56756054D01*
X174638211Y-56818838D01*
X174818586Y-56842584D01*
X174878711Y-56850500D01*
X174878712Y-56850500D01*
X175121289Y-56850500D01*
X175169388Y-56844167D01*
X175361789Y-56818838D01*
X175596100Y-56756054D01*
X175820212Y-56663224D01*
X176030289Y-56541936D01*
X176222738Y-56394265D01*
X176394265Y-56222738D01*
X176541936Y-56030289D01*
X176663224Y-55820212D01*
X176756054Y-55596100D01*
X176818838Y-55361789D01*
X176850500Y-55121288D01*
X176850500Y-54878712D01*
X176849253Y-54869243D01*
X176818838Y-54638214D01*
X176818838Y-54638211D01*
X176756054Y-54403900D01*
X176663224Y-54179788D01*
X176541936Y-53969711D01*
X176394265Y-53777262D01*
X176394260Y-53777256D01*
X176222743Y-53605739D01*
X176222736Y-53605733D01*
X176030293Y-53458067D01*
X176030292Y-53458066D01*
X176030289Y-53458064D01*
X175820212Y-53336776D01*
X175820205Y-53336773D01*
X175596104Y-53243947D01*
X175361785Y-53181161D01*
X175121289Y-53149500D01*
X175121288Y-53149500D01*
X174878712Y-53149500D01*
X174878711Y-53149500D01*
X174638214Y-53181161D01*
X174403895Y-53243947D01*
X174179794Y-53336773D01*
X174179785Y-53336777D01*
X173969706Y-53458067D01*
X173777263Y-53605733D01*
X173777256Y-53605739D01*
X173605739Y-53777256D01*
X173605733Y-53777263D01*
X173458067Y-53969706D01*
X173336777Y-54179785D01*
X173336773Y-54179794D01*
X173243947Y-54403895D01*
X173181161Y-54638214D01*
X173149500Y-54878711D01*
X131850500Y-54878711D01*
X131849253Y-54869243D01*
X131818838Y-54638214D01*
X131818838Y-54638211D01*
X131756054Y-54403900D01*
X131663224Y-54179788D01*
X131541936Y-53969711D01*
X131394265Y-53777262D01*
X131394260Y-53777256D01*
X131222743Y-53605739D01*
X131222736Y-53605733D01*
X131030293Y-53458067D01*
X131030292Y-53458066D01*
X131030289Y-53458064D01*
X130820212Y-53336776D01*
X130820205Y-53336773D01*
X130596104Y-53243947D01*
X130361785Y-53181161D01*
X130121289Y-53149500D01*
X130121288Y-53149500D01*
X129878712Y-53149500D01*
X129878711Y-53149500D01*
X129638214Y-53181161D01*
X129403895Y-53243947D01*
X129179794Y-53336773D01*
X129179785Y-53336777D01*
X128969706Y-53458067D01*
X128777263Y-53605733D01*
X128777256Y-53605739D01*
X128605739Y-53777256D01*
X128605733Y-53777263D01*
X128458067Y-53969706D01*
X128336777Y-54179785D01*
X128336773Y-54179794D01*
X128243947Y-54403895D01*
X128181161Y-54638214D01*
X128149500Y-54878711D01*
X113560474Y-54878711D01*
X113601966Y-54837219D01*
X113722287Y-54671610D01*
X113815220Y-54489219D01*
X113878477Y-54294534D01*
X113910500Y-54092352D01*
X113910500Y-53887648D01*
X113901413Y-53830276D01*
X113878477Y-53685465D01*
X113815218Y-53490776D01*
X113781503Y-53424607D01*
X113722287Y-53308390D01*
X113675467Y-53243947D01*
X113601971Y-53142786D01*
X113457213Y-52998028D01*
X113291613Y-52877715D01*
X113291612Y-52877714D01*
X113291610Y-52877713D01*
X113216568Y-52839477D01*
X113109223Y-52784781D01*
X112914534Y-52721522D01*
X112739995Y-52693878D01*
X112712352Y-52689500D01*
X112507648Y-52689500D01*
X112483329Y-52693351D01*
X112305465Y-52721522D01*
X112110776Y-52784781D01*
X111928386Y-52877715D01*
X111762786Y-52998028D01*
X111618028Y-53142786D01*
X111497715Y-53308386D01*
X111404781Y-53490776D01*
X111341522Y-53685465D01*
X111309500Y-53887648D01*
X111309500Y-54092351D01*
X111341522Y-54294534D01*
X111404781Y-54489223D01*
X111462485Y-54602472D01*
X111480695Y-54638211D01*
X111497715Y-54671613D01*
X111618028Y-54837213D01*
X111762786Y-54981971D01*
X111917749Y-55094556D01*
X111928390Y-55102287D01*
X112019840Y-55148883D01*
X112021080Y-55149515D01*
X112071876Y-55197490D01*
X112088671Y-55265311D01*
X112066134Y-55331446D01*
X112021080Y-55370485D01*
X111928386Y-55417715D01*
X111762786Y-55538028D01*
X111618028Y-55682786D01*
X111497715Y-55848386D01*
X111404781Y-56030776D01*
X111341522Y-56225465D01*
X111309500Y-56427648D01*
X111309500Y-56632351D01*
X111341522Y-56834534D01*
X111404781Y-57029223D01*
X111497715Y-57211613D01*
X111618028Y-57377213D01*
X111762786Y-57521971D01*
X111917749Y-57634556D01*
X111928390Y-57642287D01*
X112019840Y-57688883D01*
X112021080Y-57689515D01*
X112071876Y-57737490D01*
X112088671Y-57805311D01*
X112066134Y-57871446D01*
X112021080Y-57910485D01*
X111928386Y-57957715D01*
X111762786Y-58078028D01*
X111618028Y-58222786D01*
X111497715Y-58388386D01*
X111404781Y-58570776D01*
X111341522Y-58765465D01*
X111309500Y-58967648D01*
X111309500Y-59172351D01*
X111341522Y-59374534D01*
X111404781Y-59569223D01*
X111468691Y-59694653D01*
X111472920Y-59702952D01*
X111497715Y-59751613D01*
X111618028Y-59917213D01*
X111762786Y-60061971D01*
X111917749Y-60174556D01*
X111928390Y-60182287D01*
X112002494Y-60220045D01*
X112021080Y-60229515D01*
X112071876Y-60277490D01*
X112088671Y-60345311D01*
X112066134Y-60411446D01*
X112021080Y-60450485D01*
X111928386Y-60497715D01*
X111762786Y-60618028D01*
X111618028Y-60762786D01*
X111497715Y-60928386D01*
X111404781Y-61110776D01*
X111341522Y-61305465D01*
X111309500Y-61507648D01*
X111309500Y-61712351D01*
X111341522Y-61914534D01*
X111404781Y-62109223D01*
X111497715Y-62291613D01*
X111618028Y-62457213D01*
X111762786Y-62601971D01*
X111897026Y-62699500D01*
X111928390Y-62722287D01*
X112019840Y-62768883D01*
X112021080Y-62769515D01*
X112071876Y-62817490D01*
X112088671Y-62885311D01*
X112066134Y-62951446D01*
X112021080Y-62990485D01*
X111928386Y-63037715D01*
X111762786Y-63158028D01*
X111618028Y-63302786D01*
X111497715Y-63468386D01*
X111404781Y-63650776D01*
X111341522Y-63845465D01*
X111309500Y-64047648D01*
X111309500Y-64252351D01*
X111341523Y-64454535D01*
X111341524Y-64454542D01*
X111352455Y-64488183D01*
X111354450Y-64558024D01*
X111318369Y-64617856D01*
X111255668Y-64648684D01*
X111234524Y-64650500D01*
X108525076Y-64650500D01*
X108496242Y-64656234D01*
X108496243Y-64656235D01*
X108380093Y-64679339D01*
X108380083Y-64679342D01*
X108300081Y-64712479D01*
X108300082Y-64712480D01*
X108300080Y-64712481D01*
X108243505Y-64735916D01*
X108194273Y-64768812D01*
X108165882Y-64787782D01*
X108120582Y-64818049D01*
X108120579Y-64818052D01*
X99917052Y-73021578D01*
X99917049Y-73021581D01*
X99884363Y-73070499D01*
X99884364Y-73070500D01*
X99834914Y-73144508D01*
X99778343Y-73281082D01*
X99778340Y-73281092D01*
X99749500Y-73426079D01*
X99749500Y-87637770D01*
X99729815Y-87704809D01*
X99713181Y-87725451D01*
X98675451Y-88763181D01*
X98614128Y-88796666D01*
X98587770Y-88799500D01*
X98495418Y-88799500D01*
X98428379Y-88779815D01*
X98395100Y-88748385D01*
X98361971Y-88702787D01*
X98361967Y-88702782D01*
X98217213Y-88558028D01*
X98051611Y-88437713D01*
X97958369Y-88390203D01*
X97907574Y-88342229D01*
X97890779Y-88274407D01*
X97913317Y-88208273D01*
X97958371Y-88169234D01*
X98051347Y-88121861D01*
X98216894Y-88001582D01*
X98216895Y-88001582D01*
X98361582Y-87856895D01*
X98361582Y-87856894D01*
X98481859Y-87691349D01*
X98574755Y-87509029D01*
X98637990Y-87314413D01*
X98646609Y-87260000D01*
X97803012Y-87260000D01*
X97835925Y-87202993D01*
X97870000Y-87075826D01*
X97870000Y-86944174D01*
X97835925Y-86817007D01*
X97803012Y-86760000D01*
X98646609Y-86760000D01*
X98637990Y-86705586D01*
X98574755Y-86510970D01*
X98481859Y-86328650D01*
X98361582Y-86163105D01*
X98361582Y-86163104D01*
X98216895Y-86018417D01*
X98051349Y-85898140D01*
X97958370Y-85850765D01*
X97907574Y-85802790D01*
X97890779Y-85734969D01*
X97913316Y-85668835D01*
X97958370Y-85629795D01*
X97958920Y-85629515D01*
X98051610Y-85582287D01*
X98072770Y-85566913D01*
X98217213Y-85461971D01*
X98217215Y-85461968D01*
X98217219Y-85461966D01*
X98361966Y-85317219D01*
X98361968Y-85317215D01*
X98361971Y-85317213D01*
X98414732Y-85244590D01*
X98482287Y-85151610D01*
X98575220Y-84969219D01*
X98638477Y-84774534D01*
X98670500Y-84572352D01*
X98670500Y-84367648D01*
X98638477Y-84165466D01*
X98575220Y-83970781D01*
X98575218Y-83970778D01*
X98575218Y-83970776D01*
X98541503Y-83904607D01*
X98482287Y-83788390D01*
X98474556Y-83777749D01*
X98361971Y-83622786D01*
X98217213Y-83478028D01*
X98051614Y-83357715D01*
X98024875Y-83344091D01*
X97958917Y-83310483D01*
X97908123Y-83262511D01*
X97891328Y-83194690D01*
X97913865Y-83128555D01*
X97958917Y-83089516D01*
X98051610Y-83042287D01*
X98072770Y-83026913D01*
X98217213Y-82921971D01*
X98217215Y-82921968D01*
X98217219Y-82921966D01*
X98361966Y-82777219D01*
X98361968Y-82777215D01*
X98361971Y-82777213D01*
X98461512Y-82640204D01*
X98482287Y-82611610D01*
X98575220Y-82429219D01*
X98638477Y-82234534D01*
X98670500Y-82032352D01*
X98670500Y-81827648D01*
X98647710Y-81683757D01*
X98638477Y-81625465D01*
X98575218Y-81430776D01*
X98504601Y-81292184D01*
X98482287Y-81248390D01*
X98468792Y-81229815D01*
X98361971Y-81082786D01*
X98217213Y-80938028D01*
X98051614Y-80817715D01*
X98002036Y-80792454D01*
X97958917Y-80770483D01*
X97908123Y-80722511D01*
X97891328Y-80654690D01*
X97913865Y-80588555D01*
X97958917Y-80549516D01*
X98051610Y-80502287D01*
X98072770Y-80486913D01*
X98217213Y-80381971D01*
X98217215Y-80381968D01*
X98217219Y-80381966D01*
X98361966Y-80237219D01*
X98361968Y-80237215D01*
X98361971Y-80237213D01*
X98414732Y-80164590D01*
X98482287Y-80071610D01*
X98575220Y-79889219D01*
X98638477Y-79694534D01*
X98670500Y-79492352D01*
X98670500Y-79287648D01*
X98638477Y-79085466D01*
X98575220Y-78890781D01*
X98575218Y-78890778D01*
X98575218Y-78890776D01*
X98541503Y-78824607D01*
X98482287Y-78708390D01*
X98474556Y-78697749D01*
X98361971Y-78542786D01*
X98217213Y-78398028D01*
X98051614Y-78277715D01*
X98045006Y-78274348D01*
X97958917Y-78230483D01*
X97908123Y-78182511D01*
X97891328Y-78114690D01*
X97913865Y-78048555D01*
X97958917Y-78009516D01*
X98051610Y-77962287D01*
X98144083Y-77895102D01*
X98217213Y-77841971D01*
X98217215Y-77841968D01*
X98217219Y-77841966D01*
X98361966Y-77697219D01*
X98361968Y-77697215D01*
X98361971Y-77697213D01*
X98429030Y-77604913D01*
X98482287Y-77531610D01*
X98575220Y-77349219D01*
X98638477Y-77154534D01*
X98670500Y-76952352D01*
X98670500Y-76747648D01*
X98638477Y-76545466D01*
X98625328Y-76504999D01*
X98584855Y-76380435D01*
X98575220Y-76350781D01*
X98575218Y-76350778D01*
X98575218Y-76350776D01*
X98541503Y-76284607D01*
X98482287Y-76168390D01*
X98456891Y-76133435D01*
X98361971Y-76002786D01*
X98217213Y-75858028D01*
X98051614Y-75737715D01*
X98014546Y-75718828D01*
X97958917Y-75690483D01*
X97908123Y-75642511D01*
X97891328Y-75574690D01*
X97913865Y-75508555D01*
X97958917Y-75469516D01*
X98051610Y-75422287D01*
X98075289Y-75405083D01*
X98217213Y-75301971D01*
X98217215Y-75301968D01*
X98217219Y-75301966D01*
X98361966Y-75157219D01*
X98361968Y-75157215D01*
X98361971Y-75157213D01*
X98423109Y-75073062D01*
X98482287Y-74991610D01*
X98575220Y-74809219D01*
X98638477Y-74614534D01*
X98670500Y-74412352D01*
X98670500Y-74207648D01*
X98638477Y-74005466D01*
X98575220Y-73810781D01*
X98575218Y-73810778D01*
X98575218Y-73810776D01*
X98541503Y-73744607D01*
X98482287Y-73628390D01*
X98431976Y-73559142D01*
X98361971Y-73462786D01*
X98217213Y-73318028D01*
X98051614Y-73197715D01*
X98045006Y-73194348D01*
X97958917Y-73150483D01*
X97908123Y-73102511D01*
X97891328Y-73034690D01*
X97913865Y-72968555D01*
X97958917Y-72929516D01*
X98051610Y-72882287D01*
X98072770Y-72866913D01*
X98217213Y-72761971D01*
X98217215Y-72761968D01*
X98217219Y-72761966D01*
X98361966Y-72617219D01*
X98361968Y-72617215D01*
X98361971Y-72617213D01*
X98414732Y-72544590D01*
X98482287Y-72451610D01*
X98575220Y-72269219D01*
X98638477Y-72074534D01*
X98670500Y-71872352D01*
X98670500Y-71667648D01*
X98638477Y-71465466D01*
X98575220Y-71270781D01*
X98575218Y-71270778D01*
X98575218Y-71270776D01*
X98541503Y-71204607D01*
X98482287Y-71088390D01*
X98474556Y-71077749D01*
X98361971Y-70922786D01*
X98217213Y-70778028D01*
X98051614Y-70657715D01*
X98045006Y-70654348D01*
X97958917Y-70610483D01*
X97908123Y-70562511D01*
X97891328Y-70494690D01*
X97913865Y-70428555D01*
X97958917Y-70389516D01*
X98051610Y-70342287D01*
X98072770Y-70326913D01*
X98217213Y-70221971D01*
X98217215Y-70221968D01*
X98217219Y-70221966D01*
X98361966Y-70077219D01*
X98361968Y-70077215D01*
X98361971Y-70077213D01*
X98414732Y-70004590D01*
X98482287Y-69911610D01*
X98575220Y-69729219D01*
X98638477Y-69534534D01*
X98670500Y-69332352D01*
X98670500Y-69127648D01*
X98638477Y-68925466D01*
X98575220Y-68730781D01*
X98575218Y-68730778D01*
X98575218Y-68730776D01*
X98509114Y-68601041D01*
X98482287Y-68548390D01*
X98461661Y-68520000D01*
X98361971Y-68382786D01*
X98217213Y-68238028D01*
X98051614Y-68117715D01*
X98045006Y-68114348D01*
X97958917Y-68070483D01*
X97908123Y-68022511D01*
X97891328Y-67954690D01*
X97913865Y-67888555D01*
X97958917Y-67849516D01*
X98051610Y-67802287D01*
X98072770Y-67786913D01*
X98217213Y-67681971D01*
X98217215Y-67681968D01*
X98217219Y-67681966D01*
X98361966Y-67537219D01*
X98361968Y-67537215D01*
X98361971Y-67537213D01*
X98437690Y-67432993D01*
X98482287Y-67371610D01*
X98575220Y-67189219D01*
X98638477Y-66994534D01*
X98670500Y-66792352D01*
X98670500Y-66587648D01*
X98638477Y-66385466D01*
X98615197Y-66313819D01*
X98599826Y-66266510D01*
X98575220Y-66190781D01*
X98575218Y-66190778D01*
X98575218Y-66190776D01*
X98539570Y-66120814D01*
X98482287Y-66008390D01*
X98451423Y-65965909D01*
X98361971Y-65842786D01*
X98217213Y-65698028D01*
X98051614Y-65577715D01*
X98045006Y-65574348D01*
X97958917Y-65530483D01*
X97908123Y-65482511D01*
X97891328Y-65414690D01*
X97913865Y-65348555D01*
X97958917Y-65309516D01*
X98051610Y-65262287D01*
X98072770Y-65246913D01*
X98217213Y-65141971D01*
X98217215Y-65141968D01*
X98217219Y-65141966D01*
X98361966Y-64997219D01*
X98361968Y-64997215D01*
X98361971Y-64997213D01*
X98414732Y-64924590D01*
X98482287Y-64831610D01*
X98575220Y-64649219D01*
X98638477Y-64454534D01*
X98670500Y-64252352D01*
X98670500Y-64047648D01*
X98638477Y-63845466D01*
X98575220Y-63650781D01*
X98575218Y-63650778D01*
X98575218Y-63650776D01*
X98508838Y-63520500D01*
X98482287Y-63468390D01*
X98474556Y-63457749D01*
X98361971Y-63302786D01*
X98217213Y-63158028D01*
X98051614Y-63037715D01*
X98045006Y-63034348D01*
X97958917Y-62990483D01*
X97908123Y-62942511D01*
X97891328Y-62874690D01*
X97913865Y-62808555D01*
X97958917Y-62769516D01*
X98051610Y-62722287D01*
X98082974Y-62699500D01*
X98217213Y-62601971D01*
X98217215Y-62601968D01*
X98217219Y-62601966D01*
X98361966Y-62457219D01*
X98361968Y-62457215D01*
X98361971Y-62457213D01*
X98446561Y-62340783D01*
X98482287Y-62291610D01*
X98575220Y-62109219D01*
X98638477Y-61914534D01*
X98670500Y-61712352D01*
X98670500Y-61507648D01*
X98638477Y-61305466D01*
X98575220Y-61110781D01*
X98575218Y-61110778D01*
X98575218Y-61110776D01*
X98541503Y-61044607D01*
X98482287Y-60928390D01*
X98474556Y-60917749D01*
X98361971Y-60762786D01*
X98217213Y-60618028D01*
X98051611Y-60497713D01*
X97958369Y-60450203D01*
X97907574Y-60402229D01*
X97890779Y-60334407D01*
X97913317Y-60268273D01*
X97958371Y-60229234D01*
X98051347Y-60181861D01*
X98216894Y-60061582D01*
X98216895Y-60061582D01*
X98361582Y-59916895D01*
X98361582Y-59916894D01*
X98481859Y-59751349D01*
X98574755Y-59569029D01*
X98637990Y-59374413D01*
X98646609Y-59320000D01*
X97803012Y-59320000D01*
X97835925Y-59262993D01*
X97870000Y-59135826D01*
X97870000Y-59004174D01*
X97835925Y-58877007D01*
X97803012Y-58820000D01*
X98646609Y-58820000D01*
X98637990Y-58765586D01*
X98574755Y-58570970D01*
X98481859Y-58388650D01*
X98361582Y-58223105D01*
X98361582Y-58223104D01*
X98216895Y-58078417D01*
X98051349Y-57958140D01*
X97958370Y-57910765D01*
X97907574Y-57862790D01*
X97890779Y-57794969D01*
X97913316Y-57728835D01*
X97958370Y-57689795D01*
X97958920Y-57689515D01*
X98051610Y-57642287D01*
X98072770Y-57626913D01*
X98217213Y-57521971D01*
X98217215Y-57521968D01*
X98217219Y-57521966D01*
X98361966Y-57377219D01*
X98361968Y-57377215D01*
X98361971Y-57377213D01*
X98414732Y-57304590D01*
X98482287Y-57211610D01*
X98575220Y-57029219D01*
X98638477Y-56834534D01*
X98670500Y-56632352D01*
X98670500Y-56427648D01*
X98638477Y-56225466D01*
X98637592Y-56222743D01*
X98575218Y-56030776D01*
X98541503Y-55964607D01*
X98482287Y-55848390D01*
X98461810Y-55820205D01*
X98361971Y-55682786D01*
X98217213Y-55538028D01*
X98051614Y-55417715D01*
X98045006Y-55414348D01*
X97958917Y-55370483D01*
X97908123Y-55322511D01*
X97891328Y-55254690D01*
X97913865Y-55188555D01*
X97958917Y-55149516D01*
X98051610Y-55102287D01*
X98188673Y-55002706D01*
X98217213Y-54981971D01*
X98217215Y-54981968D01*
X98217219Y-54981966D01*
X98361966Y-54837219D01*
X98361968Y-54837215D01*
X98361971Y-54837213D01*
X98414732Y-54764590D01*
X98482287Y-54671610D01*
X98575220Y-54489219D01*
X98638477Y-54294534D01*
X98670500Y-54092352D01*
X98670500Y-53887648D01*
X98661413Y-53830276D01*
X98638477Y-53685465D01*
X98575218Y-53490776D01*
X98541503Y-53424607D01*
X98482287Y-53308390D01*
X98435467Y-53243947D01*
X98361971Y-53142786D01*
X98217213Y-52998028D01*
X98051613Y-52877715D01*
X98051612Y-52877714D01*
X98051610Y-52877713D01*
X97976568Y-52839477D01*
X97869223Y-52784781D01*
X97674534Y-52721522D01*
X97499995Y-52693878D01*
X97472352Y-52689500D01*
X97267648Y-52689500D01*
X97243329Y-52693351D01*
X97065465Y-52721522D01*
X96870776Y-52784781D01*
X96688386Y-52877715D01*
X96522786Y-52998028D01*
X96378028Y-53142786D01*
X96257715Y-53308386D01*
X96164781Y-53490776D01*
X96101522Y-53685465D01*
X96069500Y-53887648D01*
X96069500Y-54092351D01*
X96101522Y-54294534D01*
X96164781Y-54489223D01*
X96222485Y-54602472D01*
X96240695Y-54638211D01*
X96257715Y-54671613D01*
X96378028Y-54837213D01*
X96522786Y-54981971D01*
X96677749Y-55094556D01*
X96688390Y-55102287D01*
X96779840Y-55148883D01*
X96781080Y-55149515D01*
X96831876Y-55197490D01*
X96848671Y-55265311D01*
X96826134Y-55331446D01*
X96781080Y-55370485D01*
X96688386Y-55417715D01*
X96522786Y-55538028D01*
X96378028Y-55682786D01*
X96257715Y-55848386D01*
X96164781Y-56030776D01*
X96101522Y-56225465D01*
X96069500Y-56427648D01*
X96069500Y-56632351D01*
X96101522Y-56834534D01*
X96164781Y-57029223D01*
X96257715Y-57211613D01*
X96378028Y-57377213D01*
X96522786Y-57521971D01*
X96677749Y-57634556D01*
X96688390Y-57642287D01*
X96760424Y-57678990D01*
X96781629Y-57689795D01*
X96832425Y-57737770D01*
X96849220Y-57805591D01*
X96826682Y-57871726D01*
X96781629Y-57910765D01*
X96688650Y-57958140D01*
X96523105Y-58078417D01*
X96523104Y-58078417D01*
X96378417Y-58223104D01*
X96378417Y-58223105D01*
X96258140Y-58388650D01*
X96165244Y-58570970D01*
X96102009Y-58765586D01*
X96093391Y-58820000D01*
X96936988Y-58820000D01*
X96904075Y-58877007D01*
X96870000Y-59004174D01*
X96870000Y-59135826D01*
X96904075Y-59262993D01*
X96936988Y-59320000D01*
X96093391Y-59320000D01*
X96102009Y-59374413D01*
X96165244Y-59569029D01*
X96258140Y-59751349D01*
X96378417Y-59916894D01*
X96378417Y-59916895D01*
X96523104Y-60061582D01*
X96688652Y-60181861D01*
X96781628Y-60229234D01*
X96832425Y-60277208D01*
X96849220Y-60345029D01*
X96826683Y-60411164D01*
X96781630Y-60450203D01*
X96688388Y-60497713D01*
X96522786Y-60618028D01*
X96378028Y-60762786D01*
X96257715Y-60928386D01*
X96164781Y-61110776D01*
X96101522Y-61305465D01*
X96069500Y-61507648D01*
X96069500Y-61712351D01*
X96101522Y-61914534D01*
X96164781Y-62109223D01*
X96257715Y-62291613D01*
X96378028Y-62457213D01*
X96522786Y-62601971D01*
X96657026Y-62699500D01*
X96688390Y-62722287D01*
X96779840Y-62768883D01*
X96781080Y-62769515D01*
X96831876Y-62817490D01*
X96848671Y-62885311D01*
X96826134Y-62951446D01*
X96781080Y-62990485D01*
X96688386Y-63037715D01*
X96522786Y-63158028D01*
X96378028Y-63302786D01*
X96257715Y-63468386D01*
X96164781Y-63650776D01*
X96101522Y-63845465D01*
X96069500Y-64047648D01*
X96069500Y-64252351D01*
X96101522Y-64454534D01*
X96164781Y-64649223D01*
X96208953Y-64735913D01*
X96250803Y-64818049D01*
X96257715Y-64831613D01*
X96378028Y-64997213D01*
X96522786Y-65141971D01*
X96677749Y-65254556D01*
X96688390Y-65262287D01*
X96779840Y-65308883D01*
X96781080Y-65309515D01*
X96831876Y-65357490D01*
X96848671Y-65425311D01*
X96826134Y-65491446D01*
X96781080Y-65530485D01*
X96688386Y-65577715D01*
X96522786Y-65698028D01*
X96378028Y-65842786D01*
X96257715Y-66008386D01*
X96164781Y-66190776D01*
X96101522Y-66385465D01*
X96069500Y-66587648D01*
X96069500Y-66792351D01*
X96101522Y-66994534D01*
X96164781Y-67189223D01*
X96224194Y-67305826D01*
X96241982Y-67340737D01*
X96257715Y-67371613D01*
X96378028Y-67537213D01*
X96522786Y-67681971D01*
X96677749Y-67794556D01*
X96688390Y-67802287D01*
X96779840Y-67848883D01*
X96781080Y-67849515D01*
X96831876Y-67897490D01*
X96848671Y-67965311D01*
X96826134Y-68031446D01*
X96781080Y-68070485D01*
X96688386Y-68117715D01*
X96522786Y-68238028D01*
X96378028Y-68382786D01*
X96257715Y-68548386D01*
X96164781Y-68730776D01*
X96101522Y-68925465D01*
X96069500Y-69127648D01*
X96069500Y-69332351D01*
X96101522Y-69534534D01*
X96164781Y-69729223D01*
X96257715Y-69911613D01*
X96378028Y-70077213D01*
X96522786Y-70221971D01*
X96677749Y-70334556D01*
X96688390Y-70342287D01*
X96779840Y-70388883D01*
X96781080Y-70389515D01*
X96831876Y-70437490D01*
X96848671Y-70505311D01*
X96826134Y-70571446D01*
X96781080Y-70610485D01*
X96688386Y-70657715D01*
X96522786Y-70778028D01*
X96378028Y-70922786D01*
X96257715Y-71088386D01*
X96164781Y-71270776D01*
X96101522Y-71465465D01*
X96069500Y-71667648D01*
X96069500Y-71872351D01*
X96101522Y-72074534D01*
X96164781Y-72269223D01*
X96257715Y-72451613D01*
X96378028Y-72617213D01*
X96522786Y-72761971D01*
X96677749Y-72874556D01*
X96688390Y-72882287D01*
X96779840Y-72928883D01*
X96781080Y-72929515D01*
X96831876Y-72977490D01*
X96848671Y-73045311D01*
X96826134Y-73111446D01*
X96781080Y-73150485D01*
X96688386Y-73197715D01*
X96522786Y-73318028D01*
X96378028Y-73462786D01*
X96257715Y-73628386D01*
X96164781Y-73810776D01*
X96101522Y-74005465D01*
X96069500Y-74207648D01*
X96069500Y-74412351D01*
X96101522Y-74614534D01*
X96164781Y-74809223D01*
X96257715Y-74991613D01*
X96378028Y-75157213D01*
X96522786Y-75301971D01*
X96664715Y-75405086D01*
X96688390Y-75422287D01*
X96736651Y-75446877D01*
X96781080Y-75469515D01*
X96831876Y-75517490D01*
X96848671Y-75585311D01*
X96826134Y-75651446D01*
X96781080Y-75690485D01*
X96688386Y-75737715D01*
X96522786Y-75858028D01*
X96378028Y-76002786D01*
X96257715Y-76168386D01*
X96164781Y-76350776D01*
X96101522Y-76545465D01*
X96069500Y-76747648D01*
X96069500Y-76952351D01*
X96101522Y-77154534D01*
X96164781Y-77349223D01*
X96257715Y-77531613D01*
X96378028Y-77697213D01*
X96522786Y-77841971D01*
X96653493Y-77936933D01*
X96688390Y-77962287D01*
X96772219Y-78005000D01*
X96781080Y-78009515D01*
X96831876Y-78057490D01*
X96848671Y-78125311D01*
X96826134Y-78191446D01*
X96781080Y-78230485D01*
X96688386Y-78277715D01*
X96522786Y-78398028D01*
X96378028Y-78542786D01*
X96257715Y-78708386D01*
X96164781Y-78890776D01*
X96101522Y-79085465D01*
X96069500Y-79287648D01*
X96069500Y-79492351D01*
X96101522Y-79694534D01*
X96164781Y-79889223D01*
X96257715Y-80071613D01*
X96378028Y-80237213D01*
X96522786Y-80381971D01*
X96677749Y-80494556D01*
X96688390Y-80502287D01*
X96779840Y-80548883D01*
X96781080Y-80549515D01*
X96831876Y-80597490D01*
X96848671Y-80665311D01*
X96826134Y-80731446D01*
X96781080Y-80770485D01*
X96688386Y-80817715D01*
X96522786Y-80938028D01*
X96378032Y-81082782D01*
X96378028Y-81082787D01*
X96344900Y-81128385D01*
X96289571Y-81171051D01*
X96244582Y-81179500D01*
X94064500Y-81179500D01*
X93997461Y-81159815D01*
X93951706Y-81107011D01*
X93940500Y-81055500D01*
X93940500Y-74366079D01*
X93913986Y-74232790D01*
X93911772Y-74221658D01*
X93911659Y-74221088D01*
X93857047Y-74089245D01*
X93856713Y-74088403D01*
X93856684Y-74088093D01*
X93855764Y-74085523D01*
X93802272Y-74005465D01*
X93802270Y-74005463D01*
X93772954Y-73961586D01*
X91786819Y-71975451D01*
X91753334Y-71914128D01*
X91750500Y-71887770D01*
X91750500Y-68640201D01*
X91770185Y-68573162D01*
X91822989Y-68527407D01*
X91861246Y-68516911D01*
X91887483Y-68514091D01*
X92022331Y-68463796D01*
X92137546Y-68377546D01*
X92223796Y-68262331D01*
X92274091Y-68127483D01*
X92280500Y-68067873D01*
X92280499Y-66412128D01*
X92274091Y-66352517D01*
X92251947Y-66293147D01*
X92223797Y-66217671D01*
X92223793Y-66217664D01*
X92137547Y-66102455D01*
X92137544Y-66102452D01*
X92022335Y-66016206D01*
X92022328Y-66016202D01*
X91887482Y-65965908D01*
X91887483Y-65965908D01*
X91827883Y-65959501D01*
X91827881Y-65959500D01*
X91827873Y-65959500D01*
X91827864Y-65959500D01*
X90172129Y-65959500D01*
X90172123Y-65959501D01*
X90112516Y-65965908D01*
X89977671Y-66016202D01*
X89977664Y-66016206D01*
X89862455Y-66102452D01*
X89862452Y-66102455D01*
X89776206Y-66217664D01*
X89776202Y-66217671D01*
X89725908Y-66352517D01*
X89722366Y-66385466D01*
X89719501Y-66412123D01*
X89719500Y-66412135D01*
X89719500Y-68067870D01*
X89719501Y-68067876D01*
X89725908Y-68127483D01*
X89776202Y-68262328D01*
X89776206Y-68262335D01*
X89862452Y-68377544D01*
X89862455Y-68377547D01*
X89977664Y-68463793D01*
X89977671Y-68463797D01*
X90022618Y-68480561D01*
X90112517Y-68514091D01*
X90138758Y-68516912D01*
X90203306Y-68543649D01*
X90243154Y-68601041D01*
X90249500Y-68640201D01*
X90249500Y-72323918D01*
X90249500Y-72323920D01*
X90249499Y-72323920D01*
X90278340Y-72468907D01*
X90278343Y-72468917D01*
X90334913Y-72605490D01*
X90334915Y-72605493D01*
X90334916Y-72605495D01*
X90342748Y-72617216D01*
X90342749Y-72617219D01*
X90342750Y-72617219D01*
X90417051Y-72728420D01*
X90417052Y-72728421D01*
X92403181Y-74714549D01*
X92436666Y-74775872D01*
X92439500Y-74802230D01*
X92439500Y-81125500D01*
X92419815Y-81192539D01*
X92367011Y-81238294D01*
X92315500Y-81249500D01*
X91249499Y-81249500D01*
X91182460Y-81229815D01*
X91136705Y-81177011D01*
X91125499Y-81125500D01*
X91125499Y-81102129D01*
X91125498Y-81102123D01*
X91119091Y-81042516D01*
X91068797Y-80907671D01*
X91068793Y-80907664D01*
X90982547Y-80792455D01*
X90982544Y-80792452D01*
X90867335Y-80706206D01*
X90867328Y-80706202D01*
X90732482Y-80655908D01*
X90732483Y-80655908D01*
X90672883Y-80649501D01*
X90672881Y-80649500D01*
X90672873Y-80649500D01*
X90672864Y-80649500D01*
X88877129Y-80649500D01*
X88877123Y-80649501D01*
X88817516Y-80655908D01*
X88682671Y-80706202D01*
X88682664Y-80706206D01*
X88567455Y-80792452D01*
X88567452Y-80792455D01*
X88481206Y-80907664D01*
X88481203Y-80907669D01*
X88432189Y-81039083D01*
X88390317Y-81095016D01*
X88324853Y-81119433D01*
X88256580Y-81104581D01*
X88228326Y-81083430D01*
X88114786Y-80969890D01*
X87942820Y-80844951D01*
X87753414Y-80748444D01*
X87753413Y-80748443D01*
X87753412Y-80748443D01*
X87551243Y-80682754D01*
X87551241Y-80682753D01*
X87551240Y-80682753D01*
X87389957Y-80657208D01*
X87341287Y-80649500D01*
X87128713Y-80649500D01*
X87080042Y-80657208D01*
X86918760Y-80682753D01*
X86716585Y-80748444D01*
X86527179Y-80844951D01*
X86355213Y-80969890D01*
X86204890Y-81120213D01*
X86079951Y-81292179D01*
X85983444Y-81481585D01*
X85917753Y-81683760D01*
X85884500Y-81893713D01*
X80500500Y-81893713D01*
X80500500Y-67139262D01*
X84720000Y-67139262D01*
X84720000Y-67340737D01*
X84751518Y-67539735D01*
X84813775Y-67731346D01*
X84813776Y-67731349D01*
X84905248Y-67910869D01*
X84934842Y-67951602D01*
X84934843Y-67951603D01*
X85517037Y-67369409D01*
X85534075Y-67432993D01*
X85599901Y-67547007D01*
X85692993Y-67640099D01*
X85807007Y-67705925D01*
X85870590Y-67722962D01*
X85288395Y-68305155D01*
X85329133Y-68334753D01*
X85508650Y-68426223D01*
X85508653Y-68426224D01*
X85700264Y-68488481D01*
X85899263Y-68520000D01*
X86100737Y-68520000D01*
X86299735Y-68488481D01*
X86491346Y-68426224D01*
X86491349Y-68426223D01*
X86670866Y-68334753D01*
X86711602Y-68305156D01*
X86711602Y-68305155D01*
X86129409Y-67722962D01*
X86192993Y-67705925D01*
X86307007Y-67640099D01*
X86400099Y-67547007D01*
X86465925Y-67432993D01*
X86482962Y-67369409D01*
X87065155Y-67951602D01*
X87065156Y-67951602D01*
X87094753Y-67910866D01*
X87186223Y-67731349D01*
X87186224Y-67731346D01*
X87248481Y-67539735D01*
X87280000Y-67340737D01*
X87280000Y-67139262D01*
X87248481Y-66940264D01*
X87186224Y-66748653D01*
X87186223Y-66748650D01*
X87094753Y-66569133D01*
X87065155Y-66528396D01*
X87065155Y-66528395D01*
X86482962Y-67110589D01*
X86465925Y-67047007D01*
X86400099Y-66932993D01*
X86307007Y-66839901D01*
X86192993Y-66774075D01*
X86129408Y-66757037D01*
X86711603Y-66174843D01*
X86711602Y-66174842D01*
X86670869Y-66145248D01*
X86491349Y-66053776D01*
X86491346Y-66053775D01*
X86299735Y-65991518D01*
X86100737Y-65960000D01*
X85899263Y-65960000D01*
X85700264Y-65991518D01*
X85508653Y-66053775D01*
X85508650Y-66053776D01*
X85329135Y-66145245D01*
X85329133Y-66145246D01*
X85288396Y-66174842D01*
X85288396Y-66174843D01*
X85870591Y-66757037D01*
X85807007Y-66774075D01*
X85692993Y-66839901D01*
X85599901Y-66932993D01*
X85534075Y-67047007D01*
X85517037Y-67110590D01*
X84934843Y-66528396D01*
X84934842Y-66528396D01*
X84905246Y-66569133D01*
X84905245Y-66569135D01*
X84813776Y-66748650D01*
X84813775Y-66748653D01*
X84751518Y-66940264D01*
X84720000Y-67139262D01*
X80500500Y-67139262D01*
X80500500Y-62139216D01*
X87219500Y-62139216D01*
X87219500Y-62340783D01*
X87251030Y-62539852D01*
X87313312Y-62731539D01*
X87386251Y-62874690D01*
X87404818Y-62911129D01*
X87523289Y-63074190D01*
X87665810Y-63216711D01*
X87828871Y-63335182D01*
X87997599Y-63421153D01*
X88008460Y-63426687D01*
X88104303Y-63457828D01*
X88200149Y-63488970D01*
X88292348Y-63503572D01*
X88399217Y-63520500D01*
X88399222Y-63520500D01*
X88600783Y-63520500D01*
X88697289Y-63505214D01*
X88799851Y-63488970D01*
X88991542Y-63426686D01*
X89171129Y-63335182D01*
X89334190Y-63216711D01*
X89476711Y-63074190D01*
X89595182Y-62911129D01*
X89686686Y-62731542D01*
X89748970Y-62539851D01*
X89765214Y-62437289D01*
X89780500Y-62340783D01*
X89780500Y-62139216D01*
X89760436Y-62012545D01*
X89748970Y-61940149D01*
X89697609Y-61782075D01*
X89686687Y-61748460D01*
X89668289Y-61712352D01*
X89595182Y-61568871D01*
X89476711Y-61405810D01*
X89334190Y-61263289D01*
X89171129Y-61144818D01*
X89072337Y-61094481D01*
X88991539Y-61053312D01*
X88799852Y-60991030D01*
X88600783Y-60959500D01*
X88600778Y-60959500D01*
X88399222Y-60959500D01*
X88399217Y-60959500D01*
X88200147Y-60991030D01*
X88008460Y-61053312D01*
X87828870Y-61144818D01*
X87778908Y-61181118D01*
X87665810Y-61263289D01*
X87665808Y-61263291D01*
X87665807Y-61263291D01*
X87523291Y-61405807D01*
X87523291Y-61405808D01*
X87523289Y-61405810D01*
X87483313Y-61460832D01*
X87404818Y-61568870D01*
X87313312Y-61748460D01*
X87251030Y-61940147D01*
X87219500Y-62139216D01*
X80500500Y-62139216D01*
X80500500Y-55002706D01*
X80500618Y-54997297D01*
X80505796Y-54878711D01*
X83149500Y-54878711D01*
X83149500Y-55121288D01*
X83181161Y-55361785D01*
X83243947Y-55596104D01*
X83279850Y-55682781D01*
X83336776Y-55820212D01*
X83458064Y-56030289D01*
X83458066Y-56030292D01*
X83458067Y-56030293D01*
X83605733Y-56222736D01*
X83605739Y-56222743D01*
X83777256Y-56394260D01*
X83777263Y-56394266D01*
X83890321Y-56481018D01*
X83969711Y-56541936D01*
X84179788Y-56663224D01*
X84403900Y-56756054D01*
X84638211Y-56818838D01*
X84818586Y-56842584D01*
X84878711Y-56850500D01*
X84878712Y-56850500D01*
X85121289Y-56850500D01*
X85169388Y-56844167D01*
X85361789Y-56818838D01*
X85596100Y-56756054D01*
X85820212Y-56663224D01*
X86030289Y-56541936D01*
X86222738Y-56394265D01*
X86394265Y-56222738D01*
X86541936Y-56030289D01*
X86663224Y-55820212D01*
X86756054Y-55596100D01*
X86818838Y-55361789D01*
X86850500Y-55121288D01*
X86850500Y-54878712D01*
X86849253Y-54869243D01*
X86818838Y-54638214D01*
X86818838Y-54638211D01*
X86756054Y-54403900D01*
X86663224Y-54179788D01*
X86541936Y-53969711D01*
X86533150Y-53958261D01*
X86533150Y-53958260D01*
X86394266Y-53777263D01*
X86394260Y-53777256D01*
X86222743Y-53605739D01*
X86222736Y-53605733D01*
X86030293Y-53458067D01*
X86030292Y-53458066D01*
X86030289Y-53458064D01*
X85820212Y-53336776D01*
X85820205Y-53336773D01*
X85596104Y-53243947D01*
X85361785Y-53181161D01*
X85121289Y-53149500D01*
X85121288Y-53149500D01*
X84878712Y-53149500D01*
X84878711Y-53149500D01*
X84638214Y-53181161D01*
X84403895Y-53243947D01*
X84179794Y-53336773D01*
X84179785Y-53336777D01*
X83969706Y-53458067D01*
X83777263Y-53605733D01*
X83777256Y-53605739D01*
X83605739Y-53777256D01*
X83605733Y-53777263D01*
X83458067Y-53969706D01*
X83336777Y-54179785D01*
X83336773Y-54179794D01*
X83243947Y-54403895D01*
X83181161Y-54638214D01*
X83149500Y-54878711D01*
X80505796Y-54878711D01*
X80506209Y-54869244D01*
X80506209Y-54869243D01*
X80510433Y-54772498D01*
X80517386Y-54613226D01*
X80518325Y-54602496D01*
X80568151Y-54224032D01*
X80570024Y-54213402D01*
X80652648Y-53840714D01*
X80655446Y-53830276D01*
X80672161Y-53777263D01*
X80770230Y-53466227D01*
X80773917Y-53456095D01*
X80920003Y-53103412D01*
X80924561Y-53093638D01*
X81100822Y-52755045D01*
X81106217Y-52745700D01*
X81311325Y-52423744D01*
X81317515Y-52414905D01*
X81549896Y-52112060D01*
X81556834Y-52103791D01*
X81814726Y-51822352D01*
X81822352Y-51814726D01*
X82103791Y-51556834D01*
X82112060Y-51549896D01*
X82414905Y-51317515D01*
X82423744Y-51311325D01*
X82745700Y-51106217D01*
X82755045Y-51100822D01*
X83093638Y-50924561D01*
X83103412Y-50920003D01*
X83456095Y-50773917D01*
X83466227Y-50770230D01*
X83830285Y-50655443D01*
X83840714Y-50652648D01*
X84213402Y-50570024D01*
X84224032Y-50568151D01*
X84602496Y-50518325D01*
X84613224Y-50517387D01*
X84997297Y-50500617D01*
X85002706Y-50500500D01*
X85065892Y-50500500D01*
X134475802Y-50500500D01*
X134507278Y-50509742D01*
G37*
%TD.AperFunction*%
%TD*%
M02*
