%TF.GenerationSoftware,KiCad,Pcbnew,10.0.0*%
%TF.CreationDate,2026-03-31T23:13:25+02:00*%
%TF.ProjectId,Simon,53696d6f-6e2e-46b6-9963-61645f706362,01*%
%TF.SameCoordinates,Original*%
%TF.FileFunction,Paste,Top*%
%TF.FilePolarity,Positive*%
%FSLAX46Y46*%
G04 Gerber Fmt 4.6, Leading zero omitted, Abs format (unit mm)*
G04 Created by KiCad (PCBNEW 10.0.0) date 2026-03-31 23:13:25*
%MOMM*%
%LPD*%
G01*
G04 APERTURE LIST*
G04 Aperture macros list*
%AMRoundRect*
0 Rectangle with rounded corners*
0 $1 Rounding radius*
0 $2 $3 $4 $5 $6 $7 $8 $9 X,Y pos of 4 corners*
0 Add a 4 corners polygon primitive as box body*
4,1,4,$2,$3,$4,$5,$6,$7,$8,$9,$2,$3,0*
0 Add four circle primitives for the rounded corners*
1,1,$1+$1,$2,$3*
1,1,$1+$1,$4,$5*
1,1,$1+$1,$6,$7*
1,1,$1+$1,$8,$9*
0 Add four rect primitives between the rounded corners*
20,1,$1+$1,$2,$3,$4,$5,0*
20,1,$1+$1,$4,$5,$6,$7,0*
20,1,$1+$1,$6,$7,$8,$9,0*
20,1,$1+$1,$8,$9,$2,$3,0*%
G04 Aperture macros list end*
%ADD10RoundRect,0.150000X-0.587500X-0.150000X0.587500X-0.150000X0.587500X0.150000X-0.587500X0.150000X0*%
%ADD11RoundRect,0.250000X-0.450000X0.262500X-0.450000X-0.262500X0.450000X-0.262500X0.450000X0.262500X0*%
%ADD12RoundRect,0.250000X0.262500X0.450000X-0.262500X0.450000X-0.262500X-0.450000X0.262500X-0.450000X0*%
%ADD13RoundRect,0.250000X-0.262500X-0.450000X0.262500X-0.450000X0.262500X0.450000X-0.262500X0.450000X0*%
%ADD14RoundRect,0.250000X0.450000X-0.262500X0.450000X0.262500X-0.450000X0.262500X-0.450000X-0.262500X0*%
%ADD15RoundRect,0.250000X-1.000000X-0.650000X1.000000X-0.650000X1.000000X0.650000X-1.000000X0.650000X0*%
%ADD16RoundRect,0.125000X1.475000X0.675000X-1.475000X0.675000X-1.475000X-0.675000X1.475000X-0.675000X0*%
%ADD17RoundRect,0.150000X-0.150000X0.512500X-0.150000X-0.512500X0.150000X-0.512500X0.150000X0.512500X0*%
%ADD18RoundRect,0.150000X0.150000X-0.587500X0.150000X0.587500X-0.150000X0.587500X-0.150000X-0.587500X0*%
%ADD19RoundRect,0.150000X0.587500X0.150000X-0.587500X0.150000X-0.587500X-0.150000X0.587500X-0.150000X0*%
%ADD20RoundRect,0.250000X-0.475000X0.250000X-0.475000X-0.250000X0.475000X-0.250000X0.475000X0.250000X0*%
G04 APERTURE END LIST*
D10*
%TO.C,Q3*%
X137522500Y-119620000D03*
X137522500Y-121520000D03*
X139397500Y-120570000D03*
%TD*%
D11*
%TO.C,R2*%
X112650000Y-119657500D03*
X112650000Y-121482500D03*
%TD*%
%TO.C,R27*%
X91750000Y-76837500D03*
X91750000Y-78662500D03*
%TD*%
D12*
%TO.C,R10*%
X87662500Y-130500000D03*
X85837500Y-130500000D03*
%TD*%
D11*
%TO.C,R6*%
X156650000Y-119657500D03*
X156650000Y-121482500D03*
%TD*%
D13*
%TO.C,R19*%
X123167500Y-121840000D03*
X124992500Y-121840000D03*
%TD*%
D12*
%TO.C,R15*%
X124992500Y-119300000D03*
X123167500Y-119300000D03*
%TD*%
D14*
%TO.C,R3*%
X120270000Y-121482500D03*
X120270000Y-119657500D03*
%TD*%
D12*
%TO.C,R9*%
X91912500Y-59000000D03*
X90087500Y-59000000D03*
%TD*%
D15*
%TO.C,D5*%
X160500000Y-53500000D03*
X164500000Y-53500000D03*
%TD*%
D13*
%TO.C,R18*%
X101167500Y-121840000D03*
X102992500Y-121840000D03*
%TD*%
%TO.C,R21*%
X167167500Y-121840000D03*
X168992500Y-121840000D03*
%TD*%
D11*
%TO.C,R12*%
X102000000Y-99587500D03*
X102000000Y-101412500D03*
%TD*%
D13*
%TO.C,R28*%
X121337500Y-62662500D03*
X123162500Y-62662500D03*
%TD*%
D11*
%TO.C,R13*%
X98000000Y-95587500D03*
X98000000Y-97412500D03*
%TD*%
D12*
%TO.C,R11*%
X87662500Y-128500000D03*
X85837500Y-128500000D03*
%TD*%
D14*
%TO.C,R24*%
X155500000Y-65412500D03*
X155500000Y-63587500D03*
%TD*%
D11*
%TO.C,R22*%
X155500000Y-53587500D03*
X155500000Y-55412500D03*
%TD*%
D14*
%TO.C,R23*%
X153500000Y-55412500D03*
X153500000Y-53587500D03*
%TD*%
D16*
%TO.C,L1*%
X164500000Y-65450000D03*
X164500000Y-56550000D03*
%TD*%
D10*
%TO.C,Q1*%
X93522500Y-119620000D03*
X93522500Y-121520000D03*
X95397500Y-120570000D03*
%TD*%
D17*
%TO.C,U1*%
X157450000Y-58362500D03*
X156500000Y-58362500D03*
X155550000Y-58362500D03*
X155550000Y-60637500D03*
X156500000Y-60637500D03*
X157450000Y-60637500D03*
%TD*%
D12*
%TO.C,R16*%
X146992500Y-119300000D03*
X145167500Y-119300000D03*
%TD*%
D10*
%TO.C,Q4*%
X159522500Y-119620000D03*
X159522500Y-121520000D03*
X161397500Y-120570000D03*
%TD*%
%TO.C,Q2*%
X115522500Y-119620000D03*
X115522500Y-121520000D03*
X117397500Y-120570000D03*
%TD*%
D18*
%TO.C,Q6*%
X151550000Y-65437500D03*
X153450000Y-65437500D03*
X152500000Y-63562500D03*
%TD*%
D19*
%TO.C,Q5*%
X98937500Y-101450000D03*
X98937500Y-99550000D03*
X97062500Y-100500000D03*
%TD*%
D14*
%TO.C,R1*%
X98270000Y-121482500D03*
X98270000Y-119657500D03*
%TD*%
D12*
%TO.C,R14*%
X102992500Y-119300000D03*
X101167500Y-119300000D03*
%TD*%
D14*
%TO.C,R8*%
X164270000Y-121482500D03*
X164270000Y-119657500D03*
%TD*%
%TO.C,R25*%
X124000000Y-59412500D03*
X124000000Y-57587500D03*
%TD*%
D13*
%TO.C,R20*%
X145167500Y-121840000D03*
X146992500Y-121840000D03*
%TD*%
D11*
%TO.C,R4*%
X134650000Y-119657500D03*
X134650000Y-121482500D03*
%TD*%
D20*
%TO.C,C1*%
X157500000Y-63550000D03*
X157500000Y-65450000D03*
%TD*%
D14*
%TO.C,R7*%
X142270000Y-121482500D03*
X142270000Y-119657500D03*
%TD*%
D20*
%TO.C,C2*%
X157500000Y-53550000D03*
X157500000Y-55450000D03*
%TD*%
D12*
%TO.C,R17*%
X168992500Y-119300000D03*
X167167500Y-119300000D03*
%TD*%
D11*
%TO.C,R5*%
X90650000Y-119657500D03*
X90650000Y-121482500D03*
%TD*%
D13*
%TO.C,R26*%
X121337500Y-64662500D03*
X123162500Y-64662500D03*
%TD*%
M02*
