M48
; DRILL file KiCad 10.0.0 date 2026-03-31T23:13:44
; FORMAT={-:-/ absolute / metric / decimal}
; #@! TF.CreationDate,2026-03-31T23:13:44+02:00
; #@! TF.GenerationSoftware,Kicad,Pcbnew,10.0.0
; #@! TF.FileFunction,NonPlated,1,2,NPTH
FMAT,2
METRIC
; #@! TA.AperFunction,NonPlated,NPTH,ComponentDrill
T1C1.702
; #@! TA.AperFunction,NonPlated,NPTH,ComponentDrill
T2C3.200
; #@! TA.AperFunction,NonPlated,NPTH,ComponentDrill
T3C3.300
; #@! TA.AperFunction,NonPlated,NPTH,ComponentDrill
T4C3.988
%
G90
G05
T1
X91.92Y-132.0
X102.08Y-132.0
X113.92Y-132.0
X124.08Y-132.0
X135.92Y-132.0
X146.08Y-132.0
X157.92Y-132.0
X168.08Y-132.0
T2
X85.0Y-55.0
X85.0Y-145.0
X130.0Y-55.0
X130.0Y-110.0
X130.0Y-145.0
X175.0Y-55.0
X175.0Y-145.0
T3
X147.0Y-76.505
X147.0Y-91.495
T4
X97.0Y-132.0
X119.0Y-132.0
X141.0Y-132.0
X163.0Y-132.0
M30
