M48
; DRILL file KiCad 10.0.0 date 2026-03-31T23:13:44
; FORMAT={-:-/ absolute / metric / decimal}
; #@! TF.CreationDate,2026-03-31T23:13:44+02:00
; #@! TF.GenerationSoftware,Kicad,Pcbnew,10.0.0
; #@! TF.FileFunction,Plated,1,2,PTH
FMAT,2
METRIC
; #@! TA.AperFunction,Plated,PTH,ViaDrill
T1C0.300
; #@! TA.AperFunction,Plated,PTH,ComponentDrill
T2C0.450
; #@! TA.AperFunction,Plated,PTH,ComponentDrill
T3C0.600
; #@! TA.AperFunction,Plated,PTH,ComponentDrill
T4C0.900
; #@! TA.AperFunction,Plated,PTH,ComponentDrill
T5C1.000
; #@! TA.AperFunction,Plated,PTH,ComponentDrill
T6C1.020
; #@! TA.AperFunction,Plated,PTH,ComponentDrill
T7C1.499
%
G90
G05
T1
X82.75Y-128.5
X84.75Y-130.5
X94.5Y-73.0
X103.0Y-123.5
X125.0Y-123.5
X126.5Y-63.5
X147.0Y-123.5
X150.0Y-63.5
X156.5Y-56.75
X157.5Y-56.75
X158.75Y-55.5
X158.75Y-60.25
X158.75Y-61.25
X160.0Y-58.75
X169.0Y-123.5
X172.0Y-66.5
T3
X88.0Y-95.46
X88.0Y-100.54
T4
X95.73Y-112.0
X98.27Y-112.0
X117.73Y-112.0
X118.73Y-59.375
X120.27Y-112.0
X121.27Y-59.375
X139.73Y-112.0
X142.27Y-112.0
X161.73Y-112.0
X164.27Y-112.0
T5
X86.0Y-67.24
X86.9Y-109.46
X86.9Y-112.0
X86.9Y-114.54
X87.235Y-82.0
X88.5Y-62.24
X89.775Y-82.0
X91.0Y-67.24
X97.37Y-53.99
X97.37Y-56.53
X97.37Y-59.07
X97.37Y-61.61
X97.37Y-64.15
X97.37Y-66.69
X97.37Y-69.23
X97.37Y-71.77
X97.37Y-74.31
X97.37Y-76.85
X97.37Y-79.39
X97.37Y-81.93
X97.37Y-84.47
X97.37Y-87.01
X97.37Y-89.55
X112.61Y-53.99
X112.61Y-56.53
X112.61Y-59.07
X112.61Y-61.61
X112.61Y-64.15
X112.61Y-66.69
X112.61Y-69.23
X112.61Y-71.77
X112.61Y-74.31
X112.61Y-76.85
X112.61Y-79.39
X112.61Y-81.93
X112.61Y-84.47
X112.61Y-87.01
X112.61Y-89.55
X173.1Y-109.46
X173.1Y-112.0
X173.1Y-114.54
T6
X174.165Y-76.505
X174.165Y-91.495
T7
X93.19Y-129.46
X99.54Y-126.92
X115.19Y-129.46
X121.54Y-126.92
X137.19Y-129.46
X143.54Y-126.92
X159.19Y-129.46
X165.54Y-126.92
T2
G00X135.5Y-51.025
M15
G01X135.5Y-51.975
M16
G05
G00X148.5Y-51.025
M15
G01X148.5Y-51.975
M16
G05
T4
G00X137.3Y-60.3
M15
G01X137.3Y-60.9
M16
G05
G00X142.0Y-60.4
M15
G01X142.0Y-61.0
M16
G05
G00X146.7Y-60.3
M15
G01X146.7Y-60.9
M16
G05
M30
